<svg xmlns="http://www.w3.org/2000/svg" viewBox="0 0 162.01 316.55"><defs><style>.cls-1{fill:#f2f2f2;}.cls-2{fill:#c0505a;}.cls-3{fill:none;stroke:#222323;stroke-linecap:round;stroke-linejoin:round;}.cls-4{fill:#fff;}</style></defs><g id="Layer_2" data-name="Layer 2"><g id="Layer_4" data-name="Layer 4"><path class="cls-1" d="M.5,54.64,45.1,34.72l71.54-32,5-2.26,37.39,19.34-.29.61L126.34,34.36l-4.27,1.83-3.17,1.37-4.28,1.83-6.94,3-22,9.44L81.4,53.62,78.22,55,74,56.81h0l-6.94,3L32.44,74.61v104.5c-.45.26-.89.55-1.35.83a51.14,51.14,0,0,0-17,18.19L15.55,258h0L.5,244.43Z"/><path class="cls-1" d="M85.19,258.15a32.29,32.29,0,0,1-9.9,9.55l-.35.1c-1,.32-2.23.65-3.55,1A71.25,71.25,0,0,1,46,270.27c-1.32-.16-2.6-.35-3.86-.58a68.73,68.73,0,0,1-9.31-2.35,71,71,0,0,1-12.57-5.45q-1.11-.61-2.07-1.2c-1-.59-1.87-1.15-2.64-1.66l0-1-1.46-59.87L16.78,200q1,28.49,2,57a71.08,71.08,0,0,0,22.43,9.15c1,.23,2.08.43,3.15.62,1.59.27,3.14.48,4.64.63a70.8,70.8,0,0,0,12.77.15c1.81-.1,15.21-1.1,23.09-12.47.42-.6.8-1.2,1.15-1.79l2.28-.87c-.27.65-.56,1.32-.9,2A31,31,0,0,1,85.19,258.15Z"/><path class="cls-1" d="M144.58,200.15l-.26.35-15.21,6.56a71.11,71.11,0,0,1-11-.92l13.12-5.68a67.63,67.63,0,0,0,13.88-1.58A3.38,3.38,0,0,1,144.58,200.15Z"/><path class="cls-1" d="M111.44,177.05v6.6c-1.16.34-2.25.71-3.29,1.12v-6.59C109.18,177.78,110.28,177.4,111.44,177.05Z"/><path class="cls-1" d="M135.86,206.84a60,60,0,0,0,13.39-2.47,2.71,2.71,0,0,1-.76,2.69l-1,.42-14.69,6.33v-5.67Z"/><path class="cls-1" d="M127,207.2V208l-6.94,3-2.61-4.55.68-.28a71.11,71.11,0,0,0,11,.92l-.28.12Z"/><path class="cls-1" d="M130.47,181.2l-29.65,11.36c-.21-.21-.4-.41-.59-.62a4.69,4.69,0,0,0,.94-1.07v-2.08a16.51,16.51,0,0,1,2.6-1.91V190a4.07,4.07,0,0,0,4.38-1.91v-3.31c1-.41,2.13-.78,3.29-1.12v3.16a4,4,0,0,0,4.37-1.91v-2.34c1.13-.24,2.29-.44,3.49-.62v2.49a4.05,4.05,0,0,0,4.38-1.91v-1.07c.86-.07,1.72-.13,2.61-.17v.36a4.21,4.21,0,0,0,2.87-.44h1.31Z"/><path class="cls-1" d="M143.35,195.25c1,1.38,2.05,2.3,1.8,3.63a67.63,67.63,0,0,1-13.88,1.58l12-5.19h0Z"/><path class="cls-1" d="M147.51,201.81h0a10.94,10.94,0,0,1,1.72,2.57,60,60,0,0,1-13.39,2.47Z"/><path class="cls-1" d="M87.69,246.1v-7.27c.81-.12,1.52-.25,2.15-.37v.69a30.1,30.1,0,0,1-1,7A4.77,4.77,0,0,1,87.69,246.1Z"/><path class="cls-1" d="M161.51,187.54a6.05,6.05,0,0,1-1,3.3,9.73,9.73,0,0,0-1.68-2v-6.58A7.23,7.23,0,0,1,161.51,187.54Z"/><path class="cls-1" d="M160.47,190.84a6,6,0,0,1,1,3.29,7.26,7.26,0,0,1-2.72,5.26V192.8A10,10,0,0,0,160.47,190.84Z"/><path class="cls-1" d="M158.79,188.87a9.73,9.73,0,0,1,1.68,2,10,10,0,0,1-1.68,2Z"/><polygon class="cls-1" points="158.79 225.45 158.79 225.95 158.12 225.71 158.79 225.45"/><polygon class="cls-1" points="158.79 219.64 158.79 225.45 158.12 225.71 150.22 222.8 158.17 219.76 158.47 219.64 158.79 219.64"/><path class="cls-1" d="M158.79,199.39v20.25h-.32l-.3.12,0-.12-8.28-4.29,2-.88c1.8-2.32.38-3.36-1-5.24l0,0-3.31-1.71,0-.06,1-.42a2.71,2.71,0,0,0,.76-2.69A25.59,25.59,0,0,0,158.79,199.39Z"/><path class="cls-1" d="M158.79,192.8v6.59a25.59,25.59,0,0,1-9.54,5,10.94,10.94,0,0,0-1.72-2.57h0l-2.93-1.66a3.38,3.38,0,0,0,.57-1.27C151.17,197.52,156,195.39,158.79,192.8Z"/><path class="cls-1" d="M158.79,188.87v3.93c-2.8,2.59-7.62,4.72-13.64,6.08.25-1.33-.79-2.25-1.8-3.63l0,0h0l-14.19-7.34-.19-.49,13.52-5.19C149.72,183.54,155.58,185.91,158.79,188.87Z"/><path class="cls-1" d="M158.79,182.29v6.58c-3.21-3-9.07-5.33-16.33-6.62l9.93-3.81A21.91,21.91,0,0,1,158.79,182.29Z"/><path class="cls-1" d="M158.79,176v6.3a21.91,21.91,0,0,0-6.4-3.85Z"/><path class="cls-1" d="M158.79,170.33V176l-6.4,2.45a47.07,47.07,0,0,0-8.31-2.47l14.27-5.47Z"/><polygon class="cls-1" points="158.79 125.5 158.79 170.34 158.35 170.5 158.12 169.91 138.07 159.49 138.07 144.45 125.03 138.86 124.9 138.5 158.79 125.5"/><polygon class="cls-1" points="80.3 155.61 75.93 157.28 68.93 159.97 66.64 160.84 33.12 173.7 32.44 173.7 32.44 168.16 32.73 168.16 63.47 156.38 70.99 153.48 129.46 131.06 137 128.18 158.25 120.03 158.79 119.81 158.79 125.5 124.9 138.5 120.56 140.16 117.34 141.4 113 143.06 110.35 144.08 106.02 145.75 102.69 147.03 98.35 148.69 94.92 150 90.58 151.66 87.92 152.68 83.59 154.34 80.3 155.61"/><polygon class="cls-1" points="158.79 73.27 158.79 119.81 158.25 120.03 158.12 119.7 138.07 109.3 138.07 92.06 125.03 86.47 124.95 86.25 158.79 73.27"/><path class="cls-1" d="M158.79,67.58v5.69L125,86.25l-4.33,1.66-3.23,1.23-4.34,1.67-7,2.7L59,111.55l-4.33,1.66-3.23,1.24-4.33,1.66L40,118.81l-6.51,2.5H32.44v-5.39h.3l53.45-20.5L87.44,95A3.9,3.9,0,0,0,91,93.58l4.79-1.84a3.67,3.67,0,0,0,2-.75h0L130.58,78.4Z"/><path class="cls-1" d="M158.79,66.44v1.14L130.58,78.4l-.42-1.1a4.27,4.27,0,0,0,2-1.72v-2l2,.82,1-.08a4,4,0,0,0,4.37-1.91V57.2h.73l17.86,9.24Z"/><polygon class="cls-1" points="158.79 20.45 158.79 66.44 158.12 66.44 140.26 57.2 139.53 57.2 139.53 40.3 126.49 34.72 126.34 34.36 158.79 20.45"/><path class="cls-1" d="M158.12,169.91l.23.59L144.08,176c-1.9-.39-3.91-.7-6-.94V159.49Z"/><path class="cls-1" d="M158.12,119.71l.13.32L137,128.18l-.89-2.34a4.24,4.24,0,0,0,2-1.7V109.29Z"/><polygon class="cls-1" points="158.13 219.64 158.17 219.76 150.22 222.8 140.7 219.3 149.85 215.35 158.13 219.64"/><path class="cls-1" d="M150.22,222.8l7.9,2.91-25.27,9.64v-5.89Z"/><path class="cls-1" d="M152.39,178.44l-9.93,3.81a72.41,72.41,0,0,0-12-1.05L144.08,176A47.07,47.07,0,0,1,152.39,178.44Z"/><path class="cls-1" d="M149.85,215.35l-9.15,4-7.1-2.6,17.28-7.45,0,0c1.36,1.88,2.78,2.92,1,5.24Z"/><path class="cls-1" d="M150.88,209.25,133.6,216.7l-.75-.27v-2.62l14.69-6.33,0,.06Z"/><path class="cls-1" d="M150.29,260.85l-.61-2A3.87,3.87,0,0,1,150.29,260.85Z"/><path class="cls-1" d="M149.68,258.81l.61,2c0,4.6-9.11,8.33-20.35,8.33s-20.27-3.7-20.36-8.27h0l.65-2.16a6,6,0,0,1,.94-1.13c1.26,3.78,9.18,6.7,18.77,6.7s17.5-2.92,18.76-6.7A5.87,5.87,0,0,1,149.68,258.81Z"/><path class="cls-1" d="M150.22,222.8l-17.37,6.66v-6.77l7.85-3.39Z"/><path class="cls-1" d="M148.83,256a2.67,2.67,0,0,1,.06.56,3.1,3.1,0,0,1-.19,1.07c-2.71-2.65-8.68-4.6-15.85-5v-3.71c8,.5,14.31,3,15.74,6.29v0Z"/><path class="cls-1" d="M148.83,256l-.24-.78A2.43,2.43,0,0,1,148.83,256Z"/><path class="cls-1" d="M147.51,201.81l-11.65,5c-1.92.16-3.9.23-5.92.23h-.83l15.21-6.56.26-.35Z"/><path class="cls-1" d="M132.85,252.58c7.17.43,13.14,2.38,15.85,5-1.26,3.78-9.18,6.7-18.76,6.7s-17.51-2.92-18.77-6.7c2.71-2.65,8.68-4.6,15.85-5v5.62a3.84,3.84,0,0,0,2.92.95,4.28,4.28,0,0,0,2.91-1Z"/><path class="cls-1" d="M130.66,177.69v-3.08c1,0,2,0,3,.08v3.74a4,4,0,0,0,4.37-1.91V175c2.1.24,4.11.55,6,.94l-13.61,5.23h-1.31a4.56,4.56,0,0,0,1.5-1.47Z"/><path class="cls-1" d="M129.13,187.93l14.19,7.34-12,5.19c-.44,0-.88,0-1.33,0-9.41,0-17.86-1.69-23.65-4.36l22.65-8.68Z"/><path class="cls-1" d="M142.46,182.25l-13.52,5.19-22.65,8.68a19.69,19.69,0,0,1-5.47-3.56l29.65-11.36A72.41,72.41,0,0,1,142.46,182.25Z"/><path class="cls-1" d="M140.7,219.3l-7.85,3.39V217l.75-.32Z"/><path class="cls-1" d="M139.53,57.2V72.38a4,4,0,0,1-4.37,1.91V41.55l4.37-1.24Z"/><polygon class="cls-1" points="139.53 40.3 135.16 41.55 122.23 36.55 122.07 36.19 126.34 34.36 126.49 34.72 139.53 40.3"/><path class="cls-1" d="M138.07,175v1.49a4,4,0,0,1-4.37,1.91v-3.74C135.19,174.76,136.66,174.88,138.07,175Z"/><path class="cls-1" d="M138.07,159.49V175c-1.41-.15-2.88-.27-4.37-.34v-29l4.37-1.24Z"/><path class="cls-1" d="M138.07,109.29v14.85a4.05,4.05,0,0,1-4.37,1.9V93.31l4.37-1.25Z"/><polygon class="cls-1" points="138.07 92.06 133.7 93.31 120.77 88.31 120.62 87.91 124.95 86.25 125.03 86.47 138.07 92.06"/><polygon class="cls-1" points="138.07 144.45 133.7 145.69 120.77 140.69 120.56 140.16 124.9 138.5 125.03 138.86 138.07 144.45"/><path class="cls-1" d="M136.1,125.84l.89,2.34-7.53,2.88-.77-2a4.22,4.22,0,0,0,2-1.71v-2l2,.82,1-.08A4.25,4.25,0,0,0,136.1,125.84Z"/><path class="cls-1" d="M135.86,206.84l-3,1.3v-1l-4,0,.28-.12h.83C132,207.07,133.94,207,135.86,206.84Z"/><polygon class="cls-1" points="135.16 41.55 135.16 74.29 134.11 74.37 132.12 73.55 132.12 43.51 119.05 37.91 118.9 37.56 122.07 36.19 122.23 36.55 135.16 41.55"/><path class="cls-1" d="M133.7,145.69v29c-1-.05-2-.07-3-.08v-27L117.59,142l-.24-.64,3.22-1.24.2.53Z"/><polygon class="cls-1" points="133.7 93.31 133.7 126.05 132.65 126.12 130.66 125.3 130.66 95.27 117.59 89.66 117.39 89.14 120.62 87.91 120.77 88.31 133.7 93.31"/><path class="cls-1" d="M132.85,252.58v5.57a4.28,4.28,0,0,1-2.91,1,3.84,3.84,0,0,1-2.92-.95v-5.62c1-.05,1.93-.08,2.92-.08S131.89,252.53,132.85,252.58Z"/><path class="cls-1" d="M132.85,248.87v3.71c-1-.05-1.92-.08-2.91-.08s-2,0-2.92.08v-3.71c1-.06,1.92-.1,2.92-.1S131.9,248.81,132.85,248.87Z"/><path class="cls-1" d="M132.85,235.35v13.52c-.95-.06-1.92-.1-2.91-.1s-2,0-2.92.1V237.56Z"/><path class="cls-1" d="M129.4,235.33a4,4,0,0,0,2.52-3.7l-.85-1.49,1.78-.68v5.89L127,237.56v-3.25l1.84.78.21.37Z"/><path class="cls-1" d="M132.85,222.69v6.77l-1.78.68L128,224.78Z"/><path class="cls-1" d="M132.85,217v5.67L128,224.78l-1-1.7v-3.55Z"/><path class="cls-1" d="M132.85,216.43V217L127,219.53v-3.21l2.56-1.1Z"/><path class="cls-1" d="M132.85,213.81v2.62l-3.27-1.21Z"/><path class="cls-1" d="M132.85,208.14v5.67l-3.27,1.41-2.56-.93v-3.64Z"/><path class="cls-1" d="M132.85,207.15v1L127,210.65V208l1.81-.79Z"/><path class="cls-1" d="M132.12,73.55v2a4.27,4.27,0,0,1-2,1.72,4.46,4.46,0,0,1-2.41.2V44.76l4.37-1.25Z"/><polygon class="cls-1" points="132.12 43.51 127.75 44.77 114.77 39.74 114.62 39.39 118.9 37.56 119.05 37.91 132.12 43.51"/><path class="cls-1" d="M128,224.78l3.07,5.36.85,1.49a4,4,0,0,1-2.52,3.7l-.54-.24-1.84-3.2v-8.81Z"/><path class="cls-1" d="M131.27,200.46l-13.12,5.68-.93-.16L116,203.8l-.07.08-.08-.08L102,197.87l0-.08,4.35-1.67c5.79,2.67,14.24,4.36,23.65,4.36C130.39,200.48,130.83,200.48,131.27,200.46Z"/><path class="cls-1" d="M130.66,177.69v2a4.56,4.56,0,0,1-1.5,1.47c-1,0-1.93,0-2.87.08v-6.59c1.2-.06,2.41-.09,3.65-.09h.72Z"/><path class="cls-1" d="M130.66,147.65v27h-.72c-1.24,0-2.45,0-3.65.09V148.91Z"/><path class="cls-1" d="M130.66,125.3v2a4.22,4.22,0,0,1-2,1.71,4.34,4.34,0,0,1-2.4.21V96.52l4.37-1.25Z"/><polygon class="cls-1" points="130.66 95.27 126.29 96.52 113.32 91.49 113.05 90.81 117.39 89.14 117.59 89.66 130.66 95.27"/><polygon class="cls-1" points="130.66 147.65 126.29 148.91 113.32 143.88 113 143.06 117.34 141.4 117.59 142.04 130.66 147.65"/><path class="cls-1" d="M130.16,77.3l.42,1.1L97.75,91a4.79,4.79,0,0,0,1.1-1.21v-28l9-3.45V69.78l18.86,7.79,1-.07A4.46,4.46,0,0,0,130.16,77.3Z"/><polygon class="cls-1" points="129.58 215.22 127.02 216.32 127.02 214.29 129.58 215.22"/><path class="cls-1" d="M129.46,131.06,71,153.48l-.88-2.29a4.24,4.24,0,0,0,2-1.71V120.11h.1l7.59-2.91.42-.1,1.71,7-2.4,13.34,6.7,4.33-4.29-17.63,4.81,17.63,21.72-8-2.92-12.06.85-.21,18.86,7.79,1.05-.07a4.34,4.34,0,0,0,2.4-.21Z"/><path class="cls-1" d="M128.86,235.09l.54.24-.33.13Z"/><polygon class="cls-1" points="128.86 235.09 127.02 234.31 127.02 231.89 128.86 235.09"/><polygon class="cls-1" points="128.84 207.18 127.02 207.97 127.02 207.2 128.84 207.18"/><polygon class="cls-1" points="127.75 44.77 127.75 77.5 126.7 77.57 107.84 69.78 107.84 58.37 107.84 42.72 107.69 42.36 114.62 39.39 114.77 39.74 127.75 44.77"/><path class="cls-1" d="M129.16,181.2a4.21,4.21,0,0,1-2.87.44v-.36C127.23,181.23,128.19,181.21,129.16,181.2Z"/><path class="cls-1" d="M111,256.14c.45-3.7,7.24-6.72,16-7.27v3.71c-7.17.43-13.14,2.38-15.85,5a3.1,3.1,0,0,1-.19-1.07,2.13,2.13,0,0,1,0-.37Z"/><path class="cls-1" d="M89.85,247.18V246a3,3,0,0,0,.56-.24l6.18-2.37a3.78,3.78,0,0,0,2.55-1l4.74-1.83a3.84,3.84,0,0,0,3.23-1.23l16.7-6.41,3.21,1.38v3.25L89.85,251.74Z"/><polygon class="cls-1" points="127.02 231.89 127.02 234.31 123.81 232.93 108.11 226.2 107.7 226.2 107.7 207.19 114.24 209.59 127.02 231.89"/><polygon class="cls-1" points="125.4 220.24 127.02 223.08 127.02 231.89 114.24 209.59 120.63 211.94 123.92 217.67 125.4 220.24"/><polygon class="cls-1" points="127.02 219.53 127.02 223.08 125.4 220.24 127.02 219.53"/><polygon class="cls-1" points="127.02 216.32 127.02 219.53 125.4 220.24 123.92 217.67 123.96 217.64 127.02 216.32"/><polygon class="cls-1" points="122.48 212.62 127.02 214.29 127.02 216.32 123.96 217.64 123.92 217.67 120.63 211.94 122.48 212.62"/><polygon class="cls-1" points="127.02 210.65 127.02 214.29 122.48 212.62 127.02 210.65"/><polygon class="cls-1" points="127.02 207.97 127.02 210.65 122.48 212.62 120.63 211.94 120.08 210.97 127.02 207.97"/><path class="cls-1" d="M126.29,174.69v6.59c-.89,0-1.75.1-2.61.17v-6.6C124.54,174.79,125.4,174.73,126.29,174.69Z"/><path class="cls-1" d="M126.29,148.91v25.78c-.89,0-1.75.1-2.61.16v-24.4l-13-5.59-.29-.78,2.65-1,.32.82Z"/><polygon class="cls-1" points="126.29 96.52 126.29 129.26 125.24 129.33 106.38 121.54 106.38 106.67 106.38 94.47 106.01 93.51 113.05 90.81 113.32 91.49 126.29 96.52"/><path class="cls-1" d="M108.11,226.2l15.7,6.73-16.7,6.41a4.36,4.36,0,0,0,.59-.74V226.2Z"/><path class="cls-1" d="M123.68,181.45v1.07a4.05,4.05,0,0,1-4.38,1.91v-2.49C120.72,181.74,122.18,181.57,123.68,181.45Z"/><path class="cls-1" d="M123.68,174.85v6.6c-1.5.12-3,.29-4.38.49v-6.59C120.72,175.15,122.18,175,123.68,174.85Z"/><path class="cls-1" d="M123.68,150.45v24.4c-1.5.13-3,.3-4.38.5V151.7Z"/><polygon class="cls-1" points="123.68 150.45 119.3 151.7 106.38 146.69 106.02 145.75 110.35 144.08 110.64 144.86 123.68 150.45"/><path class="cls-1" d="M120.08,211l.55,1-6.39-2.35-1.45-2.53,0-.05,1.57-1.61c.91.21,1.85.41,2.81.58l.25.44Z"/><path class="cls-1" d="M119.3,175.35v6.59c-1.2.18-2.36.38-3.49.62V176C116.94,175.73,118.1,175.53,119.3,175.35Z"/><path class="cls-1" d="M119.3,151.7v23.65c-1.2.18-2.36.38-3.49.62V152.83l-13-5.58-.08-.22,3.33-1.28.36.94Z"/><path class="cls-1" d="M118.15,206.14l-.68.28-.25-.44Z"/><path class="cls-1" d="M116,203.8l1.25,2.18c-1-.17-1.9-.37-2.81-.58l1.49-1.52Z"/><path class="cls-1" d="M115.9,203.88l-1.49,1.52c-6.57-1.52-11.67-4-14.24-6.93l1.77-.68,0,.08,13.85,5.93Z"/><path class="cls-1" d="M115.81,182.56v2.34a4,4,0,0,1-4.37,1.91v-3.16C112.82,183.23,114.28,182.87,115.81,182.56Z"/><path class="cls-1" d="M115.81,176v6.59c-1.53.31-3,.67-4.37,1.09v-6.6C112.82,176.65,114.28,176.28,115.81,176Z"/><path class="cls-1" d="M115.81,152.83V176c-1.53.31-3,.68-4.37,1.08v-23Z"/><polygon class="cls-1" points="115.81 152.83 111.44 154.08 98.5 149.07 98.35 148.69 102.69 147.03 102.77 147.25 115.81 152.83"/><path class="cls-1" d="M114.41,205.4,112.84,207l-16.5-7.07,3.83-1.47C102.74,201.42,107.84,203.88,114.41,205.4Z"/><polygon class="cls-1" points="112.79 207.06 114.24 209.59 107.7 207.19 107.7 206.52 94.67 200.94 94.55 200.62 96.34 199.94 112.84 207.01 112.79 207.06"/><path class="cls-1" d="M111.44,154.08v23c-1.16.35-2.26.73-3.29,1.13V156l-13.08-5.6-.15-.4,3.43-1.31.15.38Z"/><path class="cls-1" d="M110.23,258.74l-.65,2.16v0A4,4,0,0,1,110.23,258.74Z"/><polygon class="cls-2" points="105.53 121.75 108.45 133.81 86.73 141.81 81.92 124.18 81.92 124.14 80.2 117.1 78.14 108.58 99.58 99.42 100.11 99.42 102.25 108.22 102.57 109.55 105.53 121.75"/><path class="cls-1" d="M108.15,184.77v3.31a4.07,4.07,0,0,1-4.38,1.91v-3.11A29.8,29.8,0,0,1,108.15,184.77Z"/><path class="cls-1" d="M108.15,178.18v6.59a29.8,29.8,0,0,0-4.38,2.11V180.3A28.82,28.82,0,0,1,108.15,178.18Z"/><path class="cls-1" d="M108.15,156v22.18a28.82,28.82,0,0,0-4.38,2.12v-23Z"/><polygon class="cls-1" points="108.15 156 103.77 157.26 90.8 152.23 90.58 151.66 94.92 150 95.07 150.4 108.15 156"/><polygon class="cls-1" points="107.84 42.72 107.84 58.37 98.85 61.82 98.85 57.7 85.81 52.12 85.67 51.8 107.69 42.36 107.84 42.72"/><path class="cls-1" d="M107.7,226.2v12.4a4.36,4.36,0,0,1-.59.74l-3.23,1.23a3.69,3.69,0,0,1-.55-.06V207.78l3.35-1,1,.37Z"/><polygon class="cls-1" points="107.7 206.52 107.7 207.19 106.68 206.82 107.7 206.52"/><polygon class="cls-1" points="107.7 206.52 106.68 206.82 92.24 201.51 94.55 200.62 94.67 200.94 107.7 206.52"/><polygon class="cls-1" points="92.24 201.51 106.68 206.82 103.33 207.78 90.39 202.76 90.21 202.29 92.24 201.51"/><polygon class="cls-1" points="106.38 106.67 106.38 121.54 105.53 121.75 102.57 109.55 102.25 108.22 102.45 108.17 106.38 106.67"/><polygon class="cls-1" points="106.38 94.47 106.38 106.67 102.45 108.17 102.25 108.22 100.11 99.42 99.58 99.42 78.14 108.58 80.2 117.1 79.78 117.2 72.19 120.11 72.09 120.11 72.09 117.4 59.05 111.81 58.95 111.55 106.01 93.51 106.38 94.47"/><path class="cls-1" d="M106.29,196.12l-4.35,1.67-1.77.68a6.62,6.62,0,0,1-1.81-4.34,4.44,4.44,0,0,1,0-.63l2.42-.94A19.69,19.69,0,0,0,106.29,196.12Z"/><path class="cls-1" d="M103.88,240.57l-4.74,1.83a5,5,0,0,0,.86-1V209.32l-13-5.59-.07-.17,3.32-1.27.19.47,12.93,5v32.73A3.69,3.69,0,0,0,103.88,240.57Z"/><path class="cls-1" d="M103.77,180.3v6.58a16.51,16.51,0,0,0-2.6,1.91V182.2A17.13,17.13,0,0,1,103.77,180.3Z"/><path class="cls-1" d="M103.77,157.26v23a17.13,17.13,0,0,0-2.6,1.9V158.8l-13-5.59-.2-.53,2.65-1,.22.57Z"/><path class="cls-1" d="M101.17,188.79v2.08a4.69,4.69,0,0,1-.94,1.07,8.14,8.14,0,0,1-.83-1.1A9.48,9.48,0,0,1,101.17,188.79Z"/><path class="cls-1" d="M101.17,182.2v6.59a9.48,9.48,0,0,0-1.77,2.05,6.05,6.05,0,0,1-1-3.3A7.3,7.3,0,0,1,101.17,182.2Z"/><path class="cls-1" d="M101.17,158.8v23.4a7.3,7.3,0,0,0-2.81,5.34v5.26a4.62,4.62,0,0,1-1.57,0V160.05Z"/><polygon class="cls-1" points="101.17 158.8 96.79 160.05 83.86 155.04 83.59 154.34 87.92 152.68 88.13 153.21 101.17 158.8"/><path class="cls-1" d="M100.82,192.56l-2.42.94a6.21,6.21,0,0,1,.13-.73,3.48,3.48,0,0,0,1.7-.83C100.42,192.15,100.61,192.35,100.82,192.56Z"/><path class="cls-1" d="M96.34,199.94l-1.79.68-2.31.89-7.53-2.77,7-2.69,6.62-2.54v.62a6.62,6.62,0,0,0,1.81,4.34Z"/><path class="cls-1" d="M100,209.32V241.4a5,5,0,0,1-.86,1l-2.55,1a4.19,4.19,0,0,1-1-.07V210.57Z"/><polygon class="cls-1" points="100 209.32 95.61 210.57 82.68 205.56 82.56 205.23 86.89 203.56 86.96 203.73 100 209.32"/><path class="cls-1" d="M99.4,190.84a8.14,8.14,0,0,0,.83,1.1,3.48,3.48,0,0,1-1.7.83A6.65,6.65,0,0,1,99.4,190.84Z"/><path class="cls-1" d="M98.85,61.82v28A4.79,4.79,0,0,1,97.75,91h0l-2,.75a4.5,4.5,0,0,1-1.31,0V59l4.38-1.26Z"/><polygon class="cls-1" points="98.85 57.7 94.47 58.96 81.54 53.95 81.4 53.62 85.67 51.8 85.81 52.12 98.85 57.7"/><path class="cls-1" d="M99.4,190.84a6.65,6.65,0,0,0-.87,1.93.47.47,0,0,1-.17,0v-5.26A6.05,6.05,0,0,0,99.4,190.84Z"/><path class="cls-1" d="M98.36,192.8a.47.47,0,0,0,.17,0,6.21,6.21,0,0,0-.13.73h0Z"/><path class="cls-1" d="M98.36,193.51h0a4.44,4.44,0,0,0,0,.63Z"/><path class="cls-1" d="M98.36,192.8v.71l-6.62,2.54L91.32,195a4.32,4.32,0,0,0,2-1.71V161.18l-13-5.57,3.29-1.27.27.7,12.93,5v32.73A4.62,4.62,0,0,0,98.36,192.8Z"/><path class="cls-1" d="M95.78,91.74l2-.75A3.67,3.67,0,0,1,95.78,91.74Z"/><path class="cls-1" d="M96.59,243.37l-6.18,2.37a4.33,4.33,0,0,0,1.65-1.55V212.11l-13-5.56,3.46-1.32.12.33,12.93,5V243.3A4.19,4.19,0,0,0,96.59,243.37Z"/><path class="cls-1" d="M91.44,91v-30L78.37,55.31,78.22,55l3.18-1.36.14.33,12.93,5V91.69a4.5,4.5,0,0,0,1.31,0L91,93.58a4.37,4.37,0,0,0,.45-.59Z"/><path class="cls-1" d="M93.29,161.18v32.08a4.32,4.32,0,0,1-2,1.71,4.43,4.43,0,0,1-2.4.2V162.44Z"/><polygon class="cls-1" points="93.3 161.18 88.92 162.44 75.99 157.43 75.93 157.28 80.3 155.61 93.3 161.18"/><path class="cls-1" d="M71.65,209.41l-4.48,1.72-3,1.13L59.71,214l-6.21,2.39c.07-1.91.13-3.82.2-5.73l31-11.9,7.53,2.77-2,.78-3.32,1.27-4.33,1.67-3.46,1.32-4.38,1.68Z"/><path class="cls-1" d="M92.06,212.11v32.08a4.33,4.33,0,0,1-1.65,1.55l-.56.22v-6.85c0-.23,0-.45,0-.65h0c-.63.12-1.34.25-2.15.37V213.36Z"/><polygon class="cls-1" points="92.06 212.11 87.69 213.36 74.76 208.35 74.72 208.24 79.1 206.55 92.06 212.11"/><path class="cls-1" d="M91.32,195l.42,1.08-7,2.69-6-2.21,2-5.61L88.62,195h.3v.16A4.43,4.43,0,0,0,91.32,195Z"/><path class="cls-1" d="M91.44,91v2a4.37,4.37,0,0,1-.45.59L87.44,95l-.37,0V62.16l4.37-1.24Z"/><polygon class="cls-1" points="91.44 60.92 87.06 62.16 74.09 57.14 73.95 56.82 73.95 56.81 78.22 54.98 78.37 55.31 91.44 60.92"/><path class="cls-1" d="M87.44,95,91,93.58A3.9,3.9,0,0,1,87.44,95Z"/><path class="cls-1" d="M89.86,261.84v38a1.35,1.35,0,0,1-2.37,0V254.44l-.15-.08c.34-.69.63-1.36.9-2l1.6-.61v10.1Z"/><path class="cls-1" d="M89.85,247.18v4.56l-1.6.61A34.32,34.32,0,0,0,89.85,247.18Z"/><path class="cls-1" d="M89.85,238.46c0,.2,0,.42,0,.65v-.65Z"/><path class="cls-1" d="M89.85,246v1.2a34.32,34.32,0,0,1-1.6,5.17l-2.28.87a27.83,27.83,0,0,0,2.85-6.87l.77-.29h0Z"/><polygon class="cls-1" points="88.92 168.79 88.92 195.01 88.63 195.01 80.73 190.92 88.83 168.79 88.92 168.79"/><polygon class="cls-1" points="88.92 162.44 88.92 168.79 88.83 168.79 88.31 168.75 88.32 168.46 69.02 160.19 68.93 159.97 75.93 157.28 75.99 157.43 88.92 162.44"/><path class="cls-1" d="M88.87,246.16c0,.06,0,.13-.05.19l-6.28,2.41,0-.07a4.34,4.34,0,0,0,2-1.71v-7.81c1.18-.08,2.25-.21,3.2-.34v7.27A4.77,4.77,0,0,0,88.87,246.16Z"/><polygon class="cls-1" points="88.83 168.79 80.73 190.92 78.69 196.53 74.57 195.02 84.28 168.46 84.44 168.47 88.31 168.75 88.83 168.79"/><path class="cls-1" d="M82.54,248.76l6.28-2.41A27.83,27.83,0,0,1,86,253.22L49,267.33c-1.5-.15-3.05-.36-4.64-.63-1.07-.19-2.13-.39-3.15-.62l.34-1.58L75,251.66Z"/><polygon class="cls-1" points="88.32 168.46 88.31 168.75 84.44 168.47 84.44 168.46 66.64 160.84 68.93 159.97 69.02 160.19 88.32 168.46"/><path class="cls-1" d="M87.69,213.36v25.47c-1,.13-2,.26-3.2.34V214.91l-12.84-5.5,3.07-1.18,0,.12Z"/><path class="cls-1" d="M87.44,95l-1.25.47L86,95l-18.87-7.8V60.12L67,59.79l6.94-3,.14.32,13,5V94.9Z"/><polygon class="cls-1" points="81.92 124.18 86.21 141.81 79.51 137.47 81.92 124.14 81.92 124.18"/><polygon class="cls-1" points="86.02 94.98 86.19 95.42 32.73 115.92 32.44 115.92 32.44 87.06 33.04 87.06 60.94 76.36 62.13 75.9 66.83 74.1 67.15 74.1 67.15 87.18 86.02 94.98"/><path class="cls-1" d="M49,267.33l37-14.11c-.35.59-.73,1.19-1.15,1.79-7.88,11.37-21.28,12.37-23.09,12.47A70.8,70.8,0,0,1,49,267.33Z"/><path class="cls-1" d="M84.71,198.74l-31,11.9q.4-11.5.81-23l2.78,1-1,3.11L73,199l.07,0-.07.2a4.06,4.06,0,0,0,4.77-.29l.88-2.39Z"/><path class="cls-1" d="M84.49,239.17V247a4.07,4.07,0,0,1-4.39,1.91v-9.62C81.69,239.32,83.15,239.26,84.49,239.17Z"/><path class="cls-1" d="M84.49,214.91v24.26c-1.34.09-2.8.15-4.39.1V216.16Z"/><polygon class="cls-1" points="84.49 214.91 80.1 216.16 67.18 211.15 67.17 211.13 71.65 209.41 84.49 214.91"/><polygon class="cls-1" points="84.44 168.46 84.44 168.47 84.28 168.46 74.57 195.02 57.29 188.68 66.64 160.84 84.44 168.46"/><path class="cls-1" d="M82.54,248.76,75,251.66l-.06-.16a4.43,4.43,0,0,0,2-1.71V239.08c1.1.11,2.16.17,3.18.19v9.62a4.36,4.36,0,0,0,2.41-.2Z"/><path class="cls-1" d="M80.1,216.16v23.11c-1,0-2.08-.08-3.18-.19V217.71l-12.71-5.45,3-1.13v0Z"/><path class="cls-1" d="M78.69,196.53l-.88,2.39a4.06,4.06,0,0,1-4.77.29l.07-.2,1.46-4Z"/><path class="cls-1" d="M76.92,239.08v10.71a4.08,4.08,0,0,1-4.39,1.91V238.44C74.05,238.74,75.52,238.94,76.92,239.08Z"/><path class="cls-1" d="M76.92,217.71v21.37c-1.4-.14-2.87-.34-4.39-.64V219Z"/><polygon class="cls-1" points="76.92 217.71 72.53 218.96 59.71 213.98 64.21 212.26 76.92 217.71"/><path class="cls-1" d="M53.7,210.64c-.07,1.91-.13,3.82-.2,5.73l-1,.36.07.18V244l18.88,7.79,1-.07a4.41,4.41,0,0,0,2.4-.2l.06.16L41.51,264.5l-.34,1.58a71.08,71.08,0,0,1-22.43-9.15q-1-28.47-2-57L41.6,182.91l12.91,4.75Q54.11,199.15,53.7,210.64Z"/><path class="cls-1" d="M74.94,267.8v47.56a1.46,1.46,0,0,1-2.48,0V268.87l-1.07-.1C72.71,268.45,73.89,268.12,74.94,267.8Z"/><polygon class="cls-1" points="74.57 195.02 73.11 199.01 73.04 198.99 56.25 191.79 57.29 188.68 74.57 195.02"/><path class="cls-1" d="M72.53,238.44V251.7l-1,.07L52.62,244V216.91l-.07-.18,1-.36L53,229.19A44.27,44.27,0,0,0,68,237.28C69.53,237.76,71.06,238.14,72.53,238.44Z"/><path class="cls-1" d="M72.53,219v19.48c-1.47-.3-3-.68-4.56-1.16A44.27,44.27,0,0,1,53,229.19l.46-12.82L59.71,214Z"/><path class="cls-1" d="M72.09,120.11v29.37a4.24,4.24,0,0,1-2,1.71,4.33,4.33,0,0,1-2.4.2V118.66l4.38-1.26Z"/><polygon class="cls-1" points="72.09 117.4 67.71 118.66 54.79 113.64 54.62 113.21 58.95 111.55 59.05 111.81 72.09 117.4"/><path class="cls-1" d="M71,153.48l-7.52,2.89-.76-2a4.24,4.24,0,0,0,2-1.7v-2l2,.82,1-.08a4.33,4.33,0,0,0,2.4-.2Z"/><polygon class="cls-1" points="67.71 118.66 67.71 151.39 66.67 151.47 64.68 150.65 64.68 120.62 51.61 115.01 51.39 114.44 54.62 113.21 54.79 113.64 67.71 118.66"/><polygon class="cls-1" points="67.15 60.12 67.15 74.1 66.83 74.1 62.13 75.9 60.94 76.36 33.04 87.06 32.44 87.06 32.44 74.61 67.01 59.79 67.15 60.12"/><path class="cls-1" d="M66.64,160.84l-9.35,27.84-2.78-1q.26-7,.5-14l-2.63-1.43a50.73,50.73,0,0,0-19.94,6.84V173.7h.68Z"/><path class="cls-1" d="M64.68,150.65v2a4.24,4.24,0,0,1-2,1.7,4.34,4.34,0,0,1-2.4.21V121.86l4.37-1.24Z"/><polygon class="cls-1" points="64.68 120.62 60.31 121.86 47.34 116.84 47.06 116.11 51.39 114.44 51.61 115.01 64.68 120.62"/><path class="cls-1" d="M62.71,154.39l.76,2L32.74,168.16h-.3V134.9h.3L40.4,132v14.92l18.86,7.8,1.05-.08A4.34,4.34,0,0,0,62.71,154.39Z"/><polygon class="cls-1" points="60.31 121.86 60.31 154.6 59.26 154.68 40.4 146.88 40.4 131.96 40.4 119.81 40.01 118.81 47.06 116.11 47.34 116.84 60.31 121.86"/><path class="cls-1" d="M55,173.7q-.25,7-.5,14L41.6,182.91Z"/><path class="cls-1" d="M55,173.7,41.6,182.91l-6.21-2.27A51.62,51.62,0,0,1,55,173.7Z"/><path class="cls-1" d="M52.38,172.27,55,173.7a51.62,51.62,0,0,0-19.62,6.94l-3-1.09v-.44A50.73,50.73,0,0,1,52.38,172.27Z"/><path class="cls-1" d="M42.16,269.69l0,.25-9.38,3.58V267.7l.11-.36A68.73,68.73,0,0,0,42.16,269.69Z"/><path class="cls-1" d="M41.6,182.91,16.78,200a52.19,52.19,0,0,1,18.08-19l.53-.32Z"/><polygon class="cls-1" points="40.4 119.81 40.4 131.96 32.73 134.9 32.44 134.9 32.44 121.31 33.5 121.31 40.01 118.81 40.4 119.81"/><path class="cls-1" d="M32.44,179.55l3,1.09-.53.32a52.19,52.19,0,0,0-18.08,19l-2.69-1.84a51.14,51.14,0,0,1,17-18.19c.46-.28.9-.57,1.35-.83Z"/><path class="cls-1" d="M32.85,267.34l-.11.36v5.82l-12.6-11.37.14-.26A71,71,0,0,0,32.85,267.34Z"/><path class="cls-1" d="M18.21,260.69,18,261v35.53a1.47,1.47,0,0,1-2.49,0V259h0C16.34,259.54,17.22,260.1,18.21,260.69Z"/><polyline class="cls-3" points="158.79 199.39 158.79 219.64 158.79 225.45 158.79 225.95"/><polyline class="cls-3" points="32.44 179.11 32.44 173.7 32.44 168.16 32.44 134.9 32.44 121.31 32.44 115.92 32.44 87.06 32.44 74.61 67.01 59.79 73.95 56.82 73.95 56.81 78.22 54.98 81.4 53.62 85.67 51.8 107.69 42.36 114.62 39.39 118.9 37.56 122.07 36.19 126.34 34.36 158.79 20.45 158.79 66.44 158.79 67.58 158.79 73.27 158.79 119.81 158.79 125.5 158.79 170.34 158.79 175.99 158.79 182.29"/><path class="cls-3" d="M159.08,19.84,121.69.5l-5,2.26-71.54,32L.5,54.64V244.43l15,13.57"/><line class="cls-3" x1="20.14" y1="262.15" x2="32.74" y2="273.52"/><line class="cls-3" x1="140.26" y1="57.2" x2="158.12" y2="66.44"/><polyline class="cls-3" points="97.75 90.99 95.78 91.74 90.99 93.58 87.44 94.95 86.19 95.42 32.73 115.92"/><polyline class="cls-3" points="159.08 67.47 158.79 67.58 130.58 78.4 97.75 90.98"/><polyline class="cls-3" points="159.08 73.16 158.79 73.27 124.95 86.25 120.62 87.91 117.39 89.14 113.05 90.81 106.01 93.51 58.95 111.55 54.62 113.21 51.39 114.44 47.06 116.11 40.01 118.81 33.5 121.31"/><polyline class="cls-3" points="137.99 109.25 138.07 109.3 158.12 119.7"/><polyline class="cls-3" points="137.99 159.45 138.07 159.49 158.12 169.91"/><polyline class="cls-3" points="159.08 119.7 158.79 119.81 158.25 120.03 137 128.18 129.46 131.06 70.99 153.48 63.47 156.38 32.73 168.16"/><polyline class="cls-3" points="159.08 125.4 158.79 125.5 124.9 138.5 120.56 140.16 117.34 141.4 113 143.06 110.35 144.08 106.02 145.75 102.69 147.03 98.35 148.69 94.92 150 90.58 151.66 87.92 152.68 83.59 154.34 80.3 155.61 75.93 157.28 68.93 159.97 66.64 160.84 33.12 173.7"/><polyline class="cls-3" points="149.84 215.35 149.85 215.35 158.13 219.64"/><polyline class="cls-3" points="98.4 193.5 98.36 193.51 91.73 196.05 84.71 198.74 53.7 210.64"/><polyline class="cls-3" points="159.08 170.22 158.79 170.34 158.35 170.5 144.08 175.97"/><line class="cls-3" x1="40.4" y1="131.96" x2="32.74" y2="134.9"/><line class="cls-3" x1="106.38" y1="106.66" x2="102.45" y2="108.17"/><line class="cls-3" x1="79.78" y1="117.2" x2="72.19" y2="120.11"/><line class="cls-3" x1="60.94" y1="76.36" x2="33.04" y2="87.07"/><polyline class="cls-3" points="66.83 74.1 62.13 75.9 60.94 76.36"/><line class="cls-3" x1="107.84" y1="58.37" x2="98.85" y2="61.82"/><polyline class="cls-3" points="100.17 198.47 96.34 199.94 94.55 200.62 92.24 201.51 90.21 202.29 86.89 203.56 82.56 205.23 79.1 206.55 74.72 208.24 71.65 209.41 67.17 211.13 64.21 212.26 59.71 213.98 53.5 216.37"/><polyline class="cls-3" points="159.08 175.88 158.79 175.99 152.39 178.44"/><line class="cls-3" x1="89.59" y1="246.06" x2="88.82" y2="246.35"/><polyline class="cls-3" points="123.81 232.93 107.11 239.34 103.88 240.57 99.14 242.4 96.59 243.37 90.41 245.74 89.85 245.96 89.62 246.05"/><polyline class="cls-3" points="158.47 219.64 158.17 219.76 150.22 222.8 132.85 229.46"/><polyline class="cls-3" points="42.12 269.94 32.73 273.51 32.73 267.7"/><polyline class="cls-3" points="127.02 237.56 89.85 251.74 88.25 252.35 85.97 253.22"/><polyline class="cls-3" points="159.08 225.34 158.79 225.45 158.12 225.71 132.85 235.34"/><path class="cls-3" d="M127.75,77.5V44.76l4.37-1.25V75.58a4.27,4.27,0,0,1-2,1.72A4.46,4.46,0,0,1,127.75,77.5Z"/><polyline class="cls-3" points="107.84 42.72 107.84 58.37 107.84 69.78 126.7 77.57"/><line class="cls-3" x1="127.75" y1="44.76" x2="114.77" y2="39.74"/><line class="cls-3" x1="119.05" y1="37.91" x2="132.12" y2="43.51"/><path class="cls-3" d="M135.16,74.29V41.55l4.37-1.24V72.38A4,4,0,0,1,135.16,74.29Z"/><line class="cls-3" x1="132.12" y1="73.55" x2="134.11" y2="74.37"/><line class="cls-3" x1="135.16" y1="41.55" x2="122.23" y2="36.55"/><line class="cls-3" x1="126.49" y1="34.72" x2="139.53" y2="40.31"/><path class="cls-3" d="M87.44,95l-.37,0V62.16l4.37-1.24V93a4.37,4.37,0,0,1-.45.59A3.9,3.9,0,0,1,87.44,95Z"/><polyline class="cls-3" points="67.15 60.12 67.15 74.1 67.15 87.18 86.02 94.98"/><line class="cls-3" x1="87.07" y1="62.16" x2="74.09" y2="57.14"/><line class="cls-3" x1="78.37" y1="55.31" x2="91.44" y2="60.92"/><path class="cls-3" d="M95.78,91.74a4.5,4.5,0,0,1-1.31,0V59l4.38-1.26V89.78A4.79,4.79,0,0,1,97.75,91h0A3.67,3.67,0,0,1,95.78,91.74Z"/><line class="cls-3" x1="91.44" y1="90.95" x2="93.43" y2="91.77"/><line class="cls-3" x1="94.47" y1="58.96" x2="81.54" y2="53.95"/><line class="cls-3" x1="85.81" y1="52.12" x2="98.85" y2="57.7"/><path class="cls-3" d="M126.29,129.26V96.52l4.37-1.25v32.07a4.22,4.22,0,0,1-2,1.71A4.34,4.34,0,0,1,126.29,129.26Z"/><polyline class="cls-3" points="106.38 94.47 106.38 106.67 106.38 121.54 125.24 129.33"/><line class="cls-3" x1="126.29" y1="96.52" x2="113.32" y2="91.49"/><line class="cls-3" x1="117.59" y1="89.66" x2="130.66" y2="95.27"/><path class="cls-3" d="M133.7,126V93.31l4.37-1.25v32.08a4.05,4.05,0,0,1-4.37,1.9Z"/><line class="cls-3" x1="130.66" y1="125.3" x2="132.65" y2="126.12"/><line class="cls-3" x1="133.7" y1="93.31" x2="120.77" y2="88.3"/><line class="cls-3" x1="125.03" y1="86.48" x2="138.07" y2="92.06"/><polyline class="cls-3" points="126.29 174.69 126.29 148.91 130.66 147.65 130.66 174.61"/><line class="cls-3" x1="126.29" y1="148.91" x2="113.32" y2="143.88"/><line class="cls-3" x1="117.59" y1="142.04" x2="130.66" y2="147.65"/><polyline class="cls-3" points="133.7 174.69 133.7 145.69 138.07 144.45 138.07 159.49 138.07 175.03"/><path class="cls-3" d="M132.85,217l.75-.32,17.28-7.45,0,0c1.36,1.88,2.78,2.92,1,5.24l-2,.88-9.15,4-7.85,3.39"/><polyline class="cls-3" points="125.37 220.25 125.4 220.24 127.02 219.53"/><path class="cls-3" d="M78.69,196.53l-.88,2.39a4.06,4.06,0,0,1-4.77.29l.07-.2,1.46-4,9.71-26.56h.16l3.86.28.53,0-8.1,22.13Z"/><line class="cls-3" x1="133.7" y1="145.69" x2="120.77" y2="140.69"/><line class="cls-3" x1="125.03" y1="138.86" x2="138.07" y2="144.45"/><line class="cls-3" x1="69.02" y1="160.19" x2="88.32" y2="168.46"/><polyline class="cls-3" points="73.04 198.99 56.25 191.79 57.29 188.68 66.64 160.84 84.44 168.46"/><polyline class="cls-3" points="117.22 205.98 117.47 206.42 120.08 210.97 120.63 211.94 123.92 217.67 125.4 220.24 127.02 223.08"/><polyline class="cls-3" points="127.02 231.89 114.24 209.59 112.79 207.06 112.84 207.01 114.41 205.4"/><polyline class="cls-3" points="96.3 199.92 96.34 199.94 112.84 207.01 112.93 207.05"/><polyline class="cls-3" points="108.11 226.2 123.81 232.93 127.02 234.31"/><polyline class="cls-3" points="119.3 175.35 119.3 151.7 123.68 150.45 123.68 174.85"/><line class="cls-3" x1="119.3" y1="151.7" x2="106.38" y2="146.69"/><line class="cls-3" x1="110.64" y1="144.86" x2="123.68" y2="150.45"/><polyline class="cls-3" points="111.44 177.05 111.44 154.08 115.81 152.83 115.81 175.97"/><line class="cls-3" x1="111.44" y1="154.08" x2="98.5" y2="149.07"/><line class="cls-3" x1="102.77" y1="147.25" x2="115.81" y2="152.83"/><path class="cls-3" d="M103.88,240.57a3.69,3.69,0,0,1-.55-.06V207.78l3.35-1,1-.3V238.6a4.36,4.36,0,0,1-.59.74A3.84,3.84,0,0,1,103.88,240.57Z"/><line class="cls-3" x1="100.77" y1="239.36" x2="102.76" y2="240.18"/><line class="cls-3" x1="103.33" y1="207.78" x2="90.4" y2="202.76"/><line class="cls-3" x1="94.67" y1="200.93" x2="107.7" y2="206.52"/><path class="cls-3" d="M96.59,243.37a4.19,4.19,0,0,1-1-.07V210.57l4.39-1.25V241.4a5,5,0,0,1-.86,1A3.78,3.78,0,0,1,96.59,243.37Z"/><line class="cls-3" x1="93.07" y1="242.16" x2="95.05" y2="242.97"/><line class="cls-3" x1="95.61" y1="210.57" x2="82.68" y2="205.56"/><line class="cls-3" x1="86.96" y1="203.73" x2="100" y2="209.32"/><path class="cls-3" d="M87.69,238.83V213.36l4.37-1.25v32.08a4.33,4.33,0,0,1-1.65,1.55,3,3,0,0,1-.56.24l-.23.07h0a3.38,3.38,0,0,1-.72.1"/><line class="cls-3" x1="87.69" y1="213.36" x2="74.76" y2="208.35"/><polyline class="cls-3" points="79.03 206.52 79.1 206.55 92.06 212.11"/><polyline class="cls-3" points="80.1 239.27 80.1 216.16 84.49 214.91 84.49 239.17"/><line class="cls-3" x1="80.1" y1="216.16" x2="67.18" y2="211.15"/><polyline class="cls-3" points="71.44 209.32 71.65 209.41 84.49 214.91"/><polyline class="cls-3" points="103.77 180.3 103.77 157.26 108.15 156 108.15 178.18"/><line class="cls-3" x1="103.77" y1="157.26" x2="90.8" y2="152.23"/><line class="cls-3" x1="95.07" y1="150.4" x2="108.15" y2="156"/><path class="cls-3" d="M98.53,192.77a.47.47,0,0,1-.17,0,4.62,4.62,0,0,1-1.57,0V160.05l4.38-1.25v23.4"/><line class="cls-3" x1="96.79" y1="160.05" x2="83.86" y2="155.04"/><line class="cls-3" x1="88.13" y1="153.21" x2="101.17" y2="158.8"/><path class="cls-3" d="M91.32,195a4.43,4.43,0,0,1-2.4.2V162.44l4.37-1.26v32.08A4.32,4.32,0,0,1,91.32,195Z"/><line class="cls-3" x1="88.92" y1="162.44" x2="75.99" y2="157.43"/><polyline class="cls-3" points="80.25 155.59 80.3 155.61 93.3 161.18"/><polyline class="cls-3" points="72.53 238.44 72.53 218.96 76.92 217.71 76.92 239.08"/><polyline class="cls-3" points="72.53 218.96 59.71 213.98 59.57 213.93"/><polyline class="cls-3" points="63.84 212.1 64.21 212.26 76.92 217.71"/><path class="cls-3" d="M60.31,154.6V121.86l4.37-1.24v32.07a4.24,4.24,0,0,1-2,1.7A4.34,4.34,0,0,1,60.31,154.6Z"/><polyline class="cls-3" points="40.4 119.81 40.4 131.96 40.4 146.88 59.26 154.68"/><line class="cls-3" x1="60.31" y1="121.86" x2="47.34" y2="116.84"/><line class="cls-3" x1="51.61" y1="115.01" x2="64.68" y2="120.62"/><path class="cls-3" d="M67.71,151.39V118.66l4.38-1.26v32.08a4.24,4.24,0,0,1-2,1.71A4.33,4.33,0,0,1,67.71,151.39Z"/><line class="cls-3" x1="64.68" y1="150.65" x2="66.67" y2="151.47"/><line class="cls-3" x1="67.71" y1="118.66" x2="54.79" y2="113.64"/><line class="cls-3" x1="59.05" y1="111.82" x2="72.09" y2="117.4"/><line class="cls-3" x1="147.57" y1="207.54" x2="150.88" y2="209.25"/><line class="cls-3" x1="127.02" y1="216.32" x2="123.96" y2="217.64"/><path class="cls-3" d="M149.25,204.37a2.71,2.71,0,0,1-.76,2.69l-1,.42-14.69,6.33"/><line class="cls-3" x1="132.85" y1="208.14" x2="135.86" y2="206.84"/><polyline class="cls-3" points="121.38 213.09 122.48 212.62 127.02 210.65"/><polyline class="cls-3" points="127.02 207.97 120.08 210.97 120.03 210.98"/><line class="cls-3" x1="129.11" y1="207.06" x2="128.83" y2="207.18"/><polyline class="cls-3" points="117.45 206.43 117.47 206.42 118.15 206.14"/><line class="cls-3" x1="80.73" y1="190.92" x2="88.62" y2="195.01"/><path class="cls-3" d="M148.7,257.61a5.87,5.87,0,0,1,1,1.2,3.87,3.87,0,0,1,.61,2c0,4.6-9.11,8.33-20.35,8.33s-20.27-3.7-20.36-8.27"/><path class="cls-3" d="M109.58,260.9v0a4,4,0,0,1,.65-2.11,6,6,0,0,1,.94-1.13"/><path class="cls-3" d="M160.47,190.84a6,6,0,0,1,1,3.29,7.26,7.26,0,0,1-2.72,5.26,25.59,25.59,0,0,1-9.54,5,60,60,0,0,1-13.39,2.47c-1.92.16-3.9.23-5.92.23h-.83a71.11,71.11,0,0,1-11-.92l-.93-.16c-1-.17-1.9-.37-2.81-.58-6.57-1.52-11.67-4-14.24-6.93a6.62,6.62,0,0,1-1.81-4.34,4.44,4.44,0,0,1,0-.63,6.21,6.21,0,0,1,.13-.73,6.65,6.65,0,0,1,.87-1.93"/><path class="cls-3" d="M148.59,255.2a2.43,2.43,0,0,1,.24.78,2.67,2.67,0,0,1,.06.56,3.1,3.1,0,0,1-.19,1.07c-1.26,3.78-9.18,6.7-18.76,6.7s-17.51-2.92-18.77-6.7a3.1,3.1,0,0,1-.19-1.07,2.13,2.13,0,0,1,0-.37"/><path class="cls-3" d="M132.85,248.87c8,.5,14.31,3,15.74,6.29"/><path class="cls-3" d="M111,256.14c.45-3.7,7.24-6.72,16-7.27"/><path class="cls-3" d="M161.51,187.54a6.05,6.05,0,0,1-1,3.3,10,10,0,0,1-1.68,2c-2.8,2.59-7.62,4.72-13.64,6.08a67.63,67.63,0,0,1-13.88,1.58c-.44,0-.88,0-1.33,0-9.41,0-17.86-1.69-23.65-4.36a19.69,19.69,0,0,1-5.47-3.56c-.21-.21-.4-.41-.59-.62a8.14,8.14,0,0,1-.83-1.1,6.05,6.05,0,0,1-1-3.3,7.3,7.3,0,0,1,2.81-5.34,17.13,17.13,0,0,1,2.6-1.9,28.82,28.82,0,0,1,4.38-2.12c1-.4,2.13-.78,3.29-1.13,1.38-.4,2.84-.77,4.37-1.08,1.13-.24,2.29-.44,3.49-.62,1.42-.2,2.88-.37,4.38-.5.86-.06,1.72-.12,2.61-.16,1.2-.06,2.41-.09,3.65-.09h.72c1,0,2,0,3,.08,1.49.07,3,.19,4.37.34,2.1.24,4.11.55,6,.94a47.07,47.07,0,0,1,8.31,2.47,21.91,21.91,0,0,1,6.4,3.85A7.23,7.23,0,0,1,161.51,187.54Z"/><line class="cls-3" x1="161.51" y1="187.54" x2="161.51" y2="194.13"/><polyline class="cls-3" points="98.36 187.54 98.36 192.8 98.36 193.51 98.36 194.13"/><path class="cls-3" d="M127,207.2v51a3.84,3.84,0,0,0,2.92.95,4.28,4.28,0,0,0,2.91-1v-51"/><polyline class="cls-3" points="150.29 260.85 149.68 258.81 148.83 255.98 148.59 255.2 148.59 255.16"/><polyline class="cls-3" points="109.58 260.91 109.58 260.9 110.23 258.74 111.01 256.17 111.01 256.14 111.28 255.23"/><polyline class="cls-3" points="89.86 261.81 89.85 251.74 89.85 247.18 89.85 245.97 89.85 245.96 89.84 239.15"/><path class="cls-3" d="M87.5,254.44v45.41a1.35,1.35,0,0,0,2.37,0v-38"/><path class="cls-3" d="M74.94,267.7v47.66a1.46,1.46,0,0,1-2.48,0V268.87"/><path class="cls-3" d="M18,261v35.53a1.47,1.47,0,0,1-2.49,0V258.92"/><path class="cls-3" d="M55,173.7l-2.63-1.43a50.73,50.73,0,0,0-19.94,6.84c-.45.26-.89.55-1.35.83a51.14,51.14,0,0,0-17,18.19L16.78,200"/><path class="cls-3" d="M14.09,198.13,15.55,258l0,1c.77.51,1.65,1.07,2.64,1.66q1,.58,2.07,1.2a71,71,0,0,0,12.57,5.45,68.73,68.73,0,0,0,9.31,2.35c1.26.23,2.54.42,3.86.58a71.25,71.25,0,0,0,25.37-1.5c1.32-.32,2.5-.65,3.55-1l.35-.1a32.29,32.29,0,0,0,9.9-9.55,31,31,0,0,0,2.16-3.79c.34-.69.63-1.36.9-2a34.32,34.32,0,0,0,1.6-5.17s0-.08,0-.12"/><path class="cls-3" d="M49,267.33a70.8,70.8,0,0,0,12.77.15c1.81-.1,15.21-1.1,23.09-12.47.42-.6.8-1.2,1.15-1.79a27.83,27.83,0,0,0,2.85-6.87c0-.06,0-.13.05-.19a30.1,30.1,0,0,0,1-7v0c0-.23,0-.45,0-.65h0c-.63.12-1.34.25-2.15.37s-2,.26-3.2.34c-1.34.09-2.8.15-4.39.1-1,0-2.08-.08-3.18-.19-1.4-.14-2.87-.34-4.39-.64s-3-.68-4.56-1.16A44.27,44.27,0,0,1,53,229.19l.46-12.82c.07-1.91.13-3.82.2-5.73q.4-11.5.81-23,.26-7,.5-14a51.62,51.62,0,0,0-19.62,6.94l-.53.32a52.19,52.19,0,0,0-18.08,19q1,28.49,2,57a71.08,71.08,0,0,0,22.43,9.15c1,.23,2.08.43,3.15.62,1.59.27,3.14.48,4.64.63"/><polyline class="cls-3" points="81.92 124.14 80.2 117.1 78.14 108.58 99.58 99.42 100.11 99.42 102.25 108.22 102.57 109.55 105.53 121.75 108.45 133.81 86.73 141.81"/><polyline class="cls-3" points="81.92 124.14 79.51 137.47 86.21 141.81 81.92 124.18"/><line class="cls-3" x1="81.92" y1="124.18" x2="81.91" y2="124.14"/><path id="Icon_material-location-on" data-name="Icon material-location-on" class="cls-4" d="M92.18,113c-3.05,1-4.83,4.65-4,8.12h0c1.18,4.73,8.46,9.85,8.46,9.85s3.8-8.81,2.62-13.53c-.86-3.48-4-5.47-7.1-4.46Zm2.13,8.54A2,2,0,0,1,91.77,120a2.45,2.45,0,0,1,1.42-2.91,2,2,0,0,1,2.54,1.59A2.44,2.44,0,0,1,94.31,121.55Z"/></g></g></svg>