<svg width="376" height="355" viewBox="0 0 376 355" fill="none" xmlns="http://www.w3.org/2000/svg">
<path d="M282.303 81.853V80.797C282.548 80.7864 282.751 80.7544 282.911 80.701C283.082 80.6477 283.21 80.525 283.295 80.333C283.391 80.141 283.439 79.8317 283.439 79.405V73.277C283.439 72.989 283.444 72.7117 283.455 72.445C283.476 72.1784 283.492 71.9757 283.503 71.837C283.332 71.8477 283.119 71.8584 282.863 71.869C282.607 71.869 282.42 71.8744 282.303 71.885V70.653H290.303L290.399 73.757H289.343C289.343 73.1704 289.242 72.7277 289.039 72.429C288.836 72.1304 288.586 71.933 288.287 71.837C287.988 71.7304 287.695 71.6824 287.407 71.693L286.831 71.709C286.607 71.709 286.415 71.741 286.255 71.805C286.095 71.8584 285.972 71.9864 285.887 72.189C285.802 72.381 285.759 72.685 285.759 73.101V75.885H287.407L287.343 74.509H288.575V78.397H287.519C287.519 77.949 287.45 77.6237 287.311 77.421C287.172 77.2184 286.98 77.0957 286.735 77.053C286.5 76.9997 286.239 76.9784 285.951 76.989H285.759V79.229C285.759 79.517 285.754 79.7944 285.743 80.061C285.732 80.3277 285.716 80.5304 285.695 80.669C285.812 80.6584 285.967 80.653 286.159 80.653C286.351 80.6424 286.538 80.637 286.719 80.637C286.911 80.6264 287.044 80.621 287.119 80.621V81.853H282.303ZM291.128 80.813C291.426 80.813 291.64 80.7544 291.768 80.637C291.896 80.5197 291.976 80.3544 292.008 80.141C292.05 79.917 292.072 79.6664 292.072 79.389V76.733C292.072 76.541 292.077 76.3224 292.088 76.077C292.098 75.821 292.114 75.5757 292.136 75.341C291.965 75.3517 291.762 75.3624 291.528 75.373C291.304 75.373 291.133 75.3784 291.016 75.389V74.173C291.506 74.173 291.922 74.1464 292.264 74.093C292.605 74.0397 292.872 73.9757 293.064 73.901C293.266 73.8264 293.405 73.757 293.48 73.693H294.344V79.277C294.344 79.4264 294.338 79.6397 294.328 79.917C294.317 80.1837 294.301 80.4397 294.28 80.685C294.45 80.6637 294.637 80.653 294.84 80.653C295.053 80.6424 295.213 80.637 295.32 80.637V81.853H291.128V80.813ZM293.128 72.429C292.765 72.429 292.466 72.301 292.232 72.045C291.997 71.789 291.88 71.4797 291.88 71.117C291.88 70.7544 292.002 70.445 292.248 70.189C292.493 69.933 292.781 69.805 293.112 69.805C293.453 69.805 293.736 69.933 293.96 70.189C294.194 70.445 294.312 70.7544 294.312 71.117C294.312 71.4797 294.205 71.789 293.992 72.045C293.778 72.301 293.49 72.429 293.128 72.429ZM296.362 81.853V80.813C296.661 80.813 296.874 80.7544 297.002 80.637C297.13 80.5197 297.21 80.3544 297.242 80.141C297.285 79.917 297.306 79.6664 297.306 79.389V76.701C297.306 76.509 297.311 76.2957 297.322 76.061C297.333 75.8157 297.349 75.5757 297.37 75.341C297.199 75.3517 296.997 75.3624 296.762 75.373C296.538 75.373 296.367 75.3784 296.25 75.389V74.173C296.741 74.173 297.157 74.1464 297.498 74.093C297.839 74.0397 298.106 73.9757 298.298 73.901C298.501 73.8264 298.639 73.757 298.714 73.693H299.498C299.519 73.8317 299.53 73.933 299.53 73.997C299.53 74.061 299.53 74.125 299.53 74.189C299.541 74.2424 299.562 74.3437 299.594 74.493C299.807 74.3224 300.053 74.173 300.33 74.045C300.607 73.9064 300.885 73.7997 301.162 73.725C301.439 73.6397 301.685 73.597 301.898 73.597C302.879 73.597 303.573 73.8797 303.978 74.445C304.394 74.9997 304.602 75.8957 304.602 77.133V79.277C304.602 79.4264 304.597 79.6397 304.586 79.917C304.575 80.1837 304.559 80.4397 304.538 80.685C304.719 80.6637 304.911 80.653 305.114 80.653C305.317 80.6424 305.471 80.637 305.578 80.637V81.853H301.386V80.813C301.685 80.813 301.898 80.7544 302.026 80.637C302.165 80.5197 302.25 80.3544 302.282 80.141C302.325 79.917 302.346 79.6664 302.346 79.389L302.33 77.117C302.33 76.4237 302.229 75.9117 302.026 75.581C301.834 75.2397 301.503 75.069 301.034 75.069C300.767 75.069 300.501 75.1277 300.234 75.245C299.978 75.3624 299.759 75.501 299.578 75.661C299.578 75.8104 299.578 75.965 299.578 76.125C299.578 76.2744 299.578 76.4237 299.578 76.573V79.277C299.578 79.4264 299.573 79.6397 299.562 79.917C299.551 80.1837 299.535 80.4397 299.514 80.685C299.685 80.6637 299.871 80.653 300.074 80.653C300.287 80.6424 300.447 80.637 300.554 80.637V81.853H296.362ZM309.622 82.109C308.982 82.109 308.417 81.9437 307.926 81.613C307.446 81.2824 307.067 80.813 306.79 80.205C306.523 79.597 306.39 78.8824 306.39 78.061C306.39 77.197 306.555 76.429 306.886 75.757C307.217 75.085 307.681 74.557 308.278 74.173C308.875 73.789 309.569 73.597 310.358 73.597C310.646 73.597 310.902 73.629 311.126 73.693C311.361 73.7464 311.579 73.8104 311.782 73.885V72.829C311.782 72.6797 311.787 72.4664 311.798 72.189C311.809 71.9117 311.825 71.6557 311.846 71.421C311.675 71.4317 311.473 71.4424 311.238 71.453C311.003 71.4637 310.827 71.469 310.71 71.469V70.253C311.211 70.253 311.627 70.2264 311.958 70.173C312.299 70.1197 312.566 70.0557 312.758 69.981C312.961 69.9064 313.099 69.837 313.174 69.773H314.038V79.277C314.038 79.4264 314.033 79.6397 314.022 79.917C314.011 80.1837 313.995 80.4397 313.974 80.685C314.155 80.6637 314.347 80.653 314.55 80.653C314.753 80.6424 314.907 80.637 315.014 80.637V81.853H311.974C311.963 81.7357 311.947 81.613 311.926 81.485C311.915 81.357 311.899 81.2344 311.878 81.117C311.526 81.4797 311.163 81.7357 310.79 81.885C310.417 82.0344 310.027 82.109 309.622 82.109ZM310.454 80.653C310.731 80.653 310.987 80.5837 311.222 80.445C311.457 80.2957 311.643 80.109 311.782 79.885C311.782 79.725 311.782 79.565 311.782 79.405C311.782 79.245 311.782 79.085 311.782 78.925V75.085C311.675 74.9997 311.515 74.9304 311.302 74.877C311.089 74.813 310.87 74.781 310.646 74.781C310.155 74.7917 309.771 74.9464 309.494 75.245C309.217 75.5437 309.019 75.9224 308.902 76.381C308.795 76.8397 308.742 77.3197 308.742 77.821C308.742 78.269 308.795 78.7117 308.902 79.149C309.019 79.5864 309.201 79.949 309.446 80.237C309.702 80.5144 310.038 80.653 310.454 80.653ZM320.268 80.813C320.567 80.813 320.78 80.7544 320.908 80.637C321.036 80.5197 321.116 80.3544 321.148 80.141C321.191 79.917 321.212 79.6664 321.212 79.389V76.733C321.212 76.541 321.218 76.3224 321.228 76.077C321.239 75.821 321.255 75.5757 321.276 75.341C321.106 75.3517 320.903 75.3624 320.668 75.373C320.444 75.373 320.274 75.3784 320.156 75.389V74.173C320.647 74.173 321.063 74.1464 321.404 74.093C321.746 74.0397 322.012 73.9757 322.204 73.901C322.407 73.8264 322.546 73.757 322.62 73.693H323.484V79.277C323.484 79.4264 323.479 79.6397 323.468 79.917C323.458 80.1837 323.442 80.4397 323.42 80.685C323.591 80.6637 323.778 80.653 323.98 80.653C324.194 80.6424 324.354 80.637 324.46 80.637V81.853H320.268V80.813ZM322.268 72.429C321.906 72.429 321.607 72.301 321.372 72.045C321.138 71.789 321.02 71.4797 321.02 71.117C321.02 70.7544 321.143 70.445 321.388 70.189C321.634 69.933 321.922 69.805 322.252 69.805C322.594 69.805 322.876 69.933 323.1 70.189C323.335 70.445 323.452 70.7544 323.452 71.117C323.452 71.4797 323.346 71.789 323.132 72.045C322.919 72.301 322.631 72.429 322.268 72.429ZM328.608 82.109C328.288 82.109 327.979 82.0717 327.68 81.997C327.392 81.9224 327.126 81.7837 326.88 81.581C326.646 81.3677 326.459 81.0584 326.32 80.653C326.182 80.2477 326.112 79.709 326.112 79.037L326.144 75.181H325.056V73.853C325.387 73.8424 325.707 73.7304 326.016 73.517C326.326 73.3037 326.587 73.0264 326.8 72.685C327.024 72.3437 327.174 71.9864 327.248 71.613H328.432L328.416 73.853H330.448V75.085L328.416 75.133L328.4 79.069C328.4 79.3144 328.422 79.5597 328.464 79.805C328.518 80.0397 328.614 80.237 328.752 80.397C328.891 80.5464 329.094 80.621 329.36 80.621C329.51 80.621 329.712 80.5677 329.968 80.461C330.235 80.3544 330.518 80.0877 330.816 79.661L331.584 80.381C331.296 80.8077 330.998 81.1384 330.688 81.373C330.379 81.6077 330.08 81.7784 329.792 81.885C329.515 81.9917 329.27 82.0557 329.056 82.077C328.843 82.0984 328.694 82.109 328.608 82.109ZM282.159 101.853V100.813C282.458 100.813 282.671 100.754 282.799 100.637C282.927 100.52 283.007 100.354 283.039 100.141C283.082 99.917 283.103 99.6664 283.103 99.389V96.701C283.103 96.509 283.108 96.2957 283.119 96.061C283.13 95.8157 283.146 95.5757 283.167 95.341C282.996 95.3517 282.794 95.3624 282.559 95.373C282.335 95.373 282.164 95.3784 282.047 95.389V94.173C282.538 94.173 282.954 94.1464 283.295 94.093C283.636 94.0397 283.903 93.9757 284.095 93.901C284.298 93.8264 284.436 93.757 284.511 93.693H285.295C285.316 93.8317 285.327 93.933 285.327 93.997C285.327 94.061 285.327 94.125 285.327 94.189C285.338 94.2424 285.359 94.3437 285.391 94.493C285.604 94.3224 285.85 94.173 286.127 94.045C286.404 93.9064 286.682 93.7997 286.959 93.725C287.236 93.6397 287.482 93.597 287.695 93.597C288.676 93.597 289.37 93.8797 289.775 94.445C290.191 94.9997 290.399 95.8957 290.399 97.133V99.277C290.399 99.4264 290.394 99.6397 290.383 99.917C290.372 100.184 290.356 100.44 290.335 100.685C290.516 100.664 290.708 100.653 290.911 100.653C291.114 100.642 291.268 100.637 291.375 100.637V101.853H287.183V100.813C287.482 100.813 287.695 100.754 287.823 100.637C287.962 100.52 288.047 100.354 288.079 100.141C288.122 99.917 288.143 99.6664 288.143 99.389L288.127 97.117C288.127 96.4237 288.026 95.9117 287.823 95.581C287.631 95.2397 287.3 95.069 286.831 95.069C286.564 95.069 286.298 95.1277 286.031 95.245C285.775 95.3624 285.556 95.501 285.375 95.661C285.375 95.8104 285.375 95.965 285.375 96.125C285.375 96.2744 285.375 96.4237 285.375 96.573V99.277C285.375 99.4264 285.37 99.6397 285.359 99.917C285.348 100.184 285.332 100.44 285.311 100.685C285.482 100.664 285.668 100.653 285.871 100.653C286.084 100.642 286.244 100.637 286.351 100.637V101.853H282.159ZM296.123 102.109C295.344 102.109 294.656 101.938 294.059 101.597C293.461 101.245 292.997 100.754 292.667 100.125C292.336 99.485 292.171 98.733 292.171 97.869C292.171 97.1224 292.336 96.4237 292.667 95.773C292.997 95.1224 293.461 94.5997 294.059 94.205C294.667 93.7997 295.371 93.597 296.171 93.597C296.619 93.597 297.056 93.661 297.483 93.789C297.909 93.9064 298.293 94.1144 298.635 94.413C298.987 94.7117 299.264 95.117 299.467 95.629C299.68 96.141 299.781 96.781 299.771 97.549L294.523 97.645C294.523 98.221 294.592 98.7384 294.731 99.197C294.88 99.6557 295.12 100.018 295.451 100.285C295.781 100.552 296.224 100.685 296.779 100.685C296.992 100.685 297.232 100.648 297.499 100.573C297.776 100.498 298.053 100.376 298.331 100.205C298.619 100.024 298.885 99.7837 299.131 99.485L299.851 100.157C299.467 100.701 299.056 101.117 298.619 101.405C298.181 101.682 297.744 101.869 297.307 101.965C296.88 102.061 296.485 102.109 296.123 102.109ZM294.619 96.525H297.563C297.552 96.077 297.488 95.725 297.371 95.469C297.264 95.2024 297.115 95.0104 296.923 94.893C296.731 94.7757 296.507 94.717 296.251 94.717C295.781 94.717 295.413 94.8877 295.147 95.229C294.88 95.5597 294.704 95.9917 294.619 96.525ZM305.388 101.853C305.367 101.704 305.351 101.581 305.34 101.485C305.34 101.378 305.335 101.256 305.324 101.117C304.962 101.48 304.578 101.736 304.172 101.885C303.767 102.034 303.356 102.109 302.94 102.109C302.258 102.109 301.724 101.906 301.34 101.501C300.956 101.096 300.764 100.589 300.764 99.981C300.764 99.469 300.892 99.0317 301.148 98.669C301.415 98.3064 301.762 98.013 302.188 97.789C302.626 97.5544 303.106 97.3784 303.628 97.261C304.162 97.133 304.695 97.0584 305.228 97.037V96.205C305.228 95.9277 305.191 95.677 305.116 95.453C305.052 95.229 304.935 95.053 304.764 94.925C304.604 94.797 304.375 94.7384 304.076 94.749C303.874 94.7597 303.676 94.8024 303.484 94.877C303.292 94.9517 303.127 95.0584 302.988 95.197C303.074 95.293 303.127 95.3997 303.148 95.517C303.17 95.6237 303.18 95.7197 303.18 95.805C303.18 96.0184 303.095 96.2424 302.924 96.477C302.754 96.701 302.482 96.8077 302.108 96.797C301.788 96.7864 301.543 96.6744 301.372 96.461C301.202 96.2477 301.116 95.997 301.116 95.709C301.116 95.2824 301.266 94.9144 301.564 94.605C301.874 94.285 302.284 94.0397 302.796 93.869C303.308 93.6877 303.874 93.597 304.492 93.597C305.431 93.597 306.156 93.8424 306.668 94.333C307.191 94.813 307.452 95.5864 307.452 96.653C307.452 97.0157 307.452 97.325 307.452 97.581C307.452 97.837 307.447 98.093 307.436 98.349C307.436 98.605 307.436 98.9144 307.436 99.277C307.436 99.4264 307.431 99.6397 307.42 99.917C307.41 100.184 307.394 100.44 307.372 100.685C307.554 100.664 307.746 100.653 307.948 100.653C308.151 100.642 308.306 100.637 308.412 100.637V101.853H305.388ZM305.212 98.173C304.914 98.205 304.631 98.2584 304.364 98.333C304.098 98.4077 303.863 98.509 303.66 98.637C303.468 98.765 303.314 98.9197 303.196 99.101C303.09 99.2824 303.036 99.485 303.036 99.709C303.047 100.008 303.143 100.221 303.324 100.349C303.506 100.477 303.714 100.541 303.948 100.541C304.194 100.541 304.423 100.488 304.636 100.381C304.85 100.274 305.042 100.136 305.212 99.965C305.212 99.8584 305.212 99.757 305.212 99.661C305.212 99.5544 305.212 99.4477 305.212 99.341C305.212 99.149 305.212 98.957 305.212 98.765C305.212 98.5624 305.212 98.365 305.212 98.173ZM309.331 100.813C309.629 100.813 309.843 100.754 309.971 100.637C310.099 100.52 310.179 100.354 310.211 100.141C310.253 99.917 310.275 99.6664 310.275 99.389V96.701C310.275 96.509 310.28 96.2957 310.291 96.061C310.301 95.8157 310.317 95.5757 310.339 95.341C310.168 95.3517 309.965 95.3624 309.731 95.373C309.507 95.373 309.336 95.3784 309.219 95.389V94.173H309.859C310.275 94.173 310.653 94.1197 310.995 94.013C311.347 93.9064 311.576 93.7997 311.683 93.693H312.467C312.488 93.7997 312.504 94.0024 312.515 94.301C312.525 94.589 312.531 94.845 312.531 95.069C312.819 94.717 313.091 94.4344 313.347 94.221C313.603 94.0077 313.853 93.853 314.099 93.757C314.355 93.6504 314.611 93.597 314.867 93.597C315.24 93.597 315.565 93.7037 315.843 93.917C316.12 94.1197 316.259 94.4557 316.259 94.925C316.259 95.085 316.221 95.2557 316.147 95.437C316.072 95.6077 315.955 95.7517 315.795 95.869C315.635 95.9864 315.416 96.045 315.139 96.045C314.925 96.045 314.707 95.981 314.483 95.853C314.259 95.725 314.131 95.4797 314.099 95.117C313.885 95.117 313.672 95.2077 313.459 95.389C313.245 95.5597 313.053 95.7677 312.883 96.013C312.723 96.2477 312.611 96.4664 312.547 96.669V99.277C312.547 99.4264 312.541 99.6397 312.531 99.917C312.52 100.184 312.504 100.44 312.483 100.685C312.653 100.664 312.84 100.653 313.043 100.653C313.256 100.642 313.416 100.637 313.523 100.637V101.853H309.331V100.813ZM317.308 92.813C317.308 92.621 317.308 92.4024 317.308 92.157C317.318 91.901 317.334 91.6557 317.356 91.421C317.185 91.4317 316.982 91.4424 316.748 91.453C316.524 91.453 316.353 91.4584 316.236 91.469V90.253C316.737 90.253 317.153 90.2264 317.484 90.173C317.825 90.1197 318.092 90.0557 318.284 89.981C318.486 89.9064 318.625 89.837 318.7 89.773H319.564V94.461C319.926 94.141 320.294 93.917 320.668 93.789C321.041 93.661 321.393 93.597 321.724 93.597C322.364 93.597 322.924 93.7624 323.404 94.093C323.894 94.4237 324.273 94.893 324.54 95.501C324.817 96.109 324.956 96.8237 324.956 97.645C324.956 98.4984 324.796 99.2664 324.476 99.949C324.166 100.621 323.724 101.149 323.148 101.533C322.572 101.917 321.878 102.109 321.068 102.109C320.78 102.109 320.412 102.045 319.964 101.917C319.526 101.8 319.121 101.544 318.748 101.149L318.268 101.853H317.308V92.813ZM319.564 99.453C319.564 99.8157 319.622 100.104 319.74 100.317C319.857 100.53 320.006 100.685 320.188 100.781C320.369 100.877 320.55 100.93 320.732 100.941C321.212 100.952 321.585 100.813 321.852 100.525C322.129 100.237 322.321 99.8584 322.428 99.389C322.545 98.909 322.604 98.4077 322.604 97.885C322.604 97.3944 322.545 96.9304 322.428 96.493C322.31 96.0557 322.124 95.7037 321.868 95.437C321.612 95.1597 321.276 95.0264 320.86 95.037C320.593 95.0477 320.348 95.117 320.124 95.245C319.9 95.3624 319.713 95.5224 319.564 95.725V99.453ZM327.746 106.189C327.341 106.189 326.994 106.066 326.706 105.821C326.429 105.586 326.29 105.272 326.29 104.877C326.29 104.589 326.381 104.333 326.562 104.109C326.754 103.896 326.999 103.784 327.298 103.773C327.533 103.762 327.73 103.837 327.89 103.997C328.061 104.168 328.146 104.397 328.146 104.685C328.146 104.717 328.146 104.749 328.146 104.781C328.146 104.813 328.141 104.85 328.13 104.893C328.151 104.893 328.178 104.888 328.21 104.877C328.306 104.845 328.407 104.754 328.514 104.605C328.631 104.466 328.743 104.28 328.85 104.045C328.967 103.8 329.079 103.522 329.186 103.213C329.303 102.914 329.405 102.6 329.49 102.269L326.962 97.197C326.663 96.5997 326.466 96.1517 326.37 95.853C326.285 95.5437 326.226 95.2717 326.194 95.037L325.458 95.069V93.853H329.442V94.877C329.047 94.9197 328.829 95.069 328.786 95.325C328.754 95.581 328.802 95.8477 328.93 96.125L330.498 99.709C330.605 99.4317 330.743 99.005 330.914 98.429C331.085 97.8424 331.287 97.2077 331.522 96.525C331.565 96.3864 331.618 96.2264 331.682 96.045C331.757 95.853 331.837 95.6664 331.922 95.485C332.007 95.293 332.098 95.1384 332.194 95.021L331.282 95.069V93.853H334.13V94.877C333.799 94.9517 333.522 95.1544 333.298 95.485C333.085 95.8157 332.893 96.221 332.722 96.701L330.722 102.413C330.423 103.277 330.141 103.986 329.874 104.541C329.607 105.106 329.309 105.522 328.978 105.789C328.647 106.056 328.237 106.189 327.746 106.189Z" fill="black"/>
<path d="M209.233 22.9628L243.761 40.742L213.439 53.7386L213.437 53.7393L209.288 55.5095L209.285 55.5107L206.207 56.835L206.204 56.8365L202.047 58.6059L202.043 58.6074L195.299 61.5095L195.297 61.5106L173.922 70.6411L173.913 70.6447L169.761 72.3733L169.761 72.3732L169.749 72.3785L166.661 73.7123L166.657 73.7139L162.559 75.4638L162.557 75.4649L155.814 78.3665L155.81 78.3681L122.16 92.6886L121.552 92.9475V93.6087V194.168C121.429 194.243 121.308 194.319 121.189 194.393C121.025 194.495 120.867 194.594 120.721 194.682L120.71 194.689L120.699 194.696C113.679 199.208 107.888 205.377 103.84 212.654L103.707 212.892L103.714 213.165L105.076 268.785L92.5029 257.499V74.9333L135.265 55.9205L135.265 55.9203L204.809 24.9536L204.812 24.952L209.233 22.9628Z" fill="#F2F2F2" stroke="black" stroke-width="2"/>
<path d="M174.017 271.417C171.508 275.137 168.22 278.278 164.375 280.626L164.035 280.723C163.061 281.031 161.863 281.35 160.577 281.687C152.488 283.624 144.112 284.104 135.851 283.105C134.566 282.95 133.319 282.767 132.092 282.545C129.02 282 125.991 281.243 123.025 280.279C118.783 278.922 114.684 277.162 110.784 275.023C110.063 274.631 109.391 274.245 108.768 273.866C107.794 273.297 106.947 272.757 106.197 272.265V271.301L104.775 213.564L107.395 215.338C108.044 233.655 108.694 251.978 109.343 270.308C116.06 274.465 123.449 277.45 131.186 279.132C132.16 279.353 133.212 279.546 134.254 279.729C135.802 279.99 137.312 280.192 138.773 280.337C142.905 280.756 147.068 280.805 151.209 280.482C152.972 280.385 166.021 279.421 173.695 268.456C174.104 267.877 174.474 267.299 174.815 266.73L177.036 265.891C176.773 266.518 176.49 267.164 176.159 267.819C175.531 269.067 174.815 270.268 174.017 271.417V271.417Z" fill="#F2F2F2"/>
<path d="M231.093 215.561L230.844 215.908L216.306 222.412C212.784 222.391 209.269 222.086 205.792 221.5L218.332 215.868C222.795 215.822 227.241 215.297 231.599 214.301C231.515 214.753 231.343 215.181 231.093 215.561V215.561Z" fill="#F2F2F2"/>
<path d="M199.156 192.918V199.852C198.116 200.209 197.139 200.598 196.207 201.029V194.105C197.13 193.685 198.116 193.286 199.156 192.918Z" fill="#F2F2F2"/>
<path d="M222.802 221.778C227.255 221.485 231.66 220.708 235.93 219.463C236.057 219.908 236.055 220.378 235.923 220.823C235.792 221.267 235.537 221.668 235.185 221.984L234.204 222.378L219.802 228.311V222.997L222.802 221.778Z" fill="#F2F2F2"/>
<path d="M214.098 222.618V223.351L207.526 226.099L205.055 221.931L205.699 221.675C209.143 222.216 212.625 222.498 216.115 222.517L215.85 222.627L214.098 222.618Z" fill="#F2F2F2"/>
<path d="M217.59 197.342L188.671 208.403C188.466 208.198 188.281 208.003 188.096 207.799C188.453 207.5 188.762 207.149 189.013 206.757V204.732C189.795 204.031 190.644 203.408 191.548 202.872V205.91C192.366 206.089 193.219 206.006 193.986 205.672C194.754 205.338 195.396 204.77 195.82 204.05V200.828C196.796 200.429 197.898 200.068 199.029 199.737V202.814C199.845 203.002 200.701 202.923 201.468 202.588C202.236 202.253 202.875 201.68 203.291 200.954V198.676C204.393 198.442 205.525 198.248 206.695 198.072V200.497C207.513 200.679 208.367 200.597 209.135 200.263C209.903 199.929 210.545 199.359 210.967 198.637V197.595C211.806 197.527 212.645 197.469 213.513 197.43V197.78C214.467 197.973 215.459 197.822 216.312 197.352H217.59V197.342Z" fill="#F2F2F2"/>
<path d="M230.487 210.614C231.494 212.177 232.551 213.218 232.299 214.724C227.709 215.861 223.027 216.461 218.327 216.513L230.407 210.637L230.487 210.614Z" fill="#F2F2F2"/>
<path d="M234.318 217.25C235.004 218.04 235.578 218.926 236.023 219.882C231.706 221.243 227.254 222.092 222.751 222.412L234.318 217.25Z" fill="#F2F2F2"/>
<path d="M176.298 259.956V252.998C177.132 252.883 177.862 252.758 178.51 252.644V253.304C178.452 255.567 178.106 257.816 177.482 260.003C177.086 260.032 176.689 260.016 176.298 259.956Z" fill="#F2F2F2"/>
<path d="M247.821 203.525C247.816 204.735 247.529 205.917 246.996 206.928C246.61 206.166 246.143 205.472 245.609 204.865V198.08C246.264 198.741 246.8 199.568 247.182 200.506C247.563 201.445 247.781 202.473 247.821 203.525V203.525Z" fill="#F2F2F2"/>
<path d="M247.008 206.928C247.534 207.853 247.817 208.938 247.821 210.049C247.774 211.015 247.552 211.959 247.171 212.819C246.79 213.678 246.257 214.435 245.609 215.039V208.787C246.143 208.241 246.613 207.616 247.008 206.928V206.928Z" fill="#F2F2F2"/>
<path d="M245.609 204.716C246.177 205.258 246.673 205.878 247.084 206.559C246.671 207.239 246.175 207.858 245.609 208.403V204.716Z" fill="#F2F2F2"/>
<path d="M245.609 240.108V240.846L244.872 240.492L245.609 240.108Z" fill="#F2F2F2"/>
<path d="M245.609 234.209V240.561L244.917 240.846L236.761 237.664L244.969 234.341L245.279 234.209H245.609Z" fill="#F2F2F2"/>
<path d="M245.609 215.039V234.097H245.272L244.957 234.21V234.097L236.243 230.059L238.347 229.231C240.242 227.048 238.747 226.069 237.295 224.299L233.812 222.69V222.634L234.864 222.238C235.242 221.921 235.516 221.518 235.657 221.072C235.798 220.626 235.8 220.154 235.664 219.707C239.309 218.793 242.698 217.202 245.609 215.039V215.039Z" fill="#F2F2F2"/>
<path d="M245.609 208.402V214.691C242.855 216.909 239.644 218.536 236.19 219.463C235.747 218.571 235.175 217.746 234.492 217.01V217.01L231.599 215.426C231.872 215.064 232.063 214.651 232.162 214.214C238.086 212.907 242.854 210.874 245.609 208.402Z" fill="#F2F2F2"/>
<path d="M245.609 204.549V208.378C242.839 210.901 238.072 212.976 232.118 214.301C232.365 213.005 231.336 212.109 230.338 210.765L216.303 203.613L216.115 203.136L229.487 198.08C236.638 199.356 242.434 201.665 245.609 204.549Z" fill="#F2F2F2"/>
<path d="M245.609 198.203V204.715C242.42 201.746 236.599 199.44 229.387 198.163L239.251 194.393C241.574 195.291 243.724 196.58 245.609 198.203V198.203Z" fill="#F2F2F2"/>
<path d="M245.609 192.181V198.079C243.642 196.544 241.397 195.324 238.973 194.475L245.609 192.181Z" fill="#F2F2F2"/>
<path d="M245.609 186.282V191.945L239.193 194.393C236.498 193.317 233.709 192.491 230.862 191.925L245.168 186.462L245.609 186.282Z" fill="#F2F2F2"/>
<path d="M245.609 142.778V186.862L245.178 187.019L244.953 186.439L225.323 176.195V161.409L212.555 155.913L212.428 155.559L245.609 142.778Z" fill="#F2F2F2"/>
<path d="M169.115 172.395L164.856 174.017L158.034 176.63L155.802 177.476L123.134 189.969H122.472V184.587H122.754L152.713 173.143L160.041 170.326L217.025 148.546L224.373 145.748L245.083 137.83L245.609 137.617V143.144L212.581 155.773L208.351 157.386L205.213 158.59L200.983 160.203L198.401 161.194L194.181 162.816L190.935 164.06L186.706 165.672L183.363 166.945L179.133 168.558L176.541 169.548L172.321 171.161L169.115 172.395Z" fill="#F2F2F2"/>
<path d="M245.609 92.6387V137.405L245.079 137.617L244.952 137.3L225.293 127.296V110.713L212.507 105.336L212.428 105.124L245.609 92.6387Z" fill="#F2F2F2"/>
<path d="M245.609 87.4771V92.943L212.678 105.412L208.458 107.007L205.31 108.188L201.081 109.792L194.259 112.386L148.356 129.716L144.136 131.31L140.989 132.502L136.769 134.096L129.839 136.69L123.495 139.092H122.472V133.914H122.764L174.855 114.221L176.073 113.817C176.722 113.904 177.382 113.823 177.99 113.584C178.598 113.345 179.132 112.956 179.543 112.453L184.211 110.686C184.919 110.641 185.597 110.391 186.16 109.965L218.116 97.871L245.609 87.4771Z" fill="#F2F2F2"/>
<path d="M245.609 85.8314V86.9019L218.001 97.0627L217.59 96.0297C218.404 95.7031 219.089 95.1377 219.547 94.4145V92.5364L221.505 93.3064L222.483 93.2313C223.302 93.4125 224.16 93.336 224.931 93.013C225.701 92.6899 226.342 92.1376 226.76 91.4377V77.1543H227.474L244.953 85.8314H245.609Z" fill="#F2F2F2"/>
<path d="M245.609 41.7612V86.0022H244.954L227.504 77.1136H226.79V60.8563L214.049 55.4885L213.903 55.1422L245.609 41.7612Z" fill="#F2F2F2"/>
<path d="M244.646 186.469L244.872 187.022L230.856 192.181C228.99 191.815 227.016 191.524 224.963 191.299V176.696L244.646 186.469Z" fill="#F2F2F2"/>
<path d="M244.746 137.462L244.871 137.775L224.348 145.728L223.488 143.444C224.29 143.112 224.966 142.531 225.42 141.785V127.294L244.746 137.462Z" fill="#F2F2F2"/>
<path d="M244.833 234.769L244.872 234.888L237.154 237.896L227.913 234.432L236.795 230.523L244.833 234.769Z" fill="#F2F2F2"/>
<path d="M237.034 237.896L244.872 240.632L219.802 249.694V244.157L237.034 237.896Z" fill="#F2F2F2"/>
<path d="M238.973 194.484L229.291 198.079C225.426 197.435 221.512 197.104 217.59 197.088L230.87 192.181C233.639 192.706 236.351 193.477 238.973 194.484V194.484Z" fill="#F2F2F2"/>
<path d="M236.948 230.394L228.124 234.21L221.276 231.73L237.941 224.624C239.253 226.417 240.622 227.409 238.906 229.622L236.948 230.394Z" fill="#F2F2F2"/>
<path d="M237.498 224.111L220.538 231.26L219.802 231.001V228.487L234.22 222.412V222.47L237.498 224.111Z" fill="#F2F2F2"/>
<path d="M236.164 272.332L236.761 274.374C236.761 279.068 227.851 282.875 216.857 282.875C205.864 282.875 197.032 279.099 196.944 274.435L197.58 272.23C197.84 271.808 198.148 271.421 198.499 271.077C199.731 274.935 207.478 277.915 216.857 277.915C226.237 277.915 233.973 274.935 235.206 271.077C235.578 271.449 235.9 271.871 236.164 272.332V272.332Z" fill="#F2F2F2"/>
<path d="M236.761 237.512L219.802 243.795V237.408L227.466 234.209L236.761 237.512Z" fill="#F2F2F2"/>
<path d="M235.963 269.559C236.003 269.731 236.023 269.905 236.023 270.081C236.024 270.421 235.959 270.758 235.831 271.077C233.091 268.609 227.053 266.794 219.802 266.421V262.966C227.892 263.432 234.274 265.76 235.72 268.824L235.963 269.559Z" fill="#F2F2F2"/>
<path d="M233.811 217.389L222.607 222.191C220.76 222.345 218.856 222.412 216.913 222.412H216.115L230.743 216.112L230.993 215.776L233.811 217.389Z" fill="#F2F2F2"/>
<path d="M220.027 266.653C226.93 267.059 232.677 268.903 235.286 271.379C234.073 274.953 226.448 277.713 217.226 277.713C208.003 277.713 200.369 274.953 199.156 271.379C201.765 268.874 207.512 267.031 214.415 266.653V271.966C214.795 272.297 215.241 272.548 215.725 272.702C216.208 272.857 216.719 272.912 217.226 272.864C218.247 272.9 219.245 272.563 220.027 271.918V266.653Z" fill="#F2F2F2"/>
<path d="M217.647 193.822V190.706C218.635 190.706 219.624 190.706 220.612 190.787V194.57C221.439 194.766 222.306 194.683 223.084 194.335C223.862 193.987 224.509 193.392 224.931 192.638V191.101C227.007 191.343 228.994 191.657 230.862 192.051L217.41 197.342H216.115C216.715 196.971 217.223 196.462 217.597 195.855L217.647 193.822Z" fill="#F2F2F2"/>
<path d="M216.261 203.76L230.125 211.231L218.401 216.514C217.971 216.514 217.541 216.514 217.101 216.514C207.907 216.514 199.652 214.793 193.995 212.076L216.124 203.241L216.261 203.76Z" fill="#F2F2F2"/>
<path d="M229.387 198.328L216.22 203.202L194.16 211.352C192.204 210.531 190.404 209.401 188.833 208.009L217.71 197.342C221.624 197.358 225.53 197.688 229.387 198.328V198.328Z" fill="#F2F2F2"/>
<path d="M227.913 234.153L219.802 237.896V231.614L220.577 231.26L227.913 234.153Z" fill="#F2F2F2"/>
<path d="M226.438 77.0039V92.1108C226.006 92.8525 225.342 93.4379 224.545 93.7802C223.749 94.1225 222.861 94.2037 222.014 94.0116V61.4293L226.438 60.1953V77.0039Z" fill="#F2F2F2"/>
<path d="M226.438 60.388L222.193 61.6699L209.634 56.5423L209.479 56.1731L213.626 54.2964L213.772 54.6656L226.438 60.388Z" fill="#F2F2F2"/>
<path d="M224.963 191.032V192.462C224.603 193.177 224.05 193.742 223.386 194.072C222.722 194.402 221.982 194.48 221.276 194.295V190.706C222.533 190.802 223.774 190.917 224.963 191.032Z" fill="#F2F2F2"/>
<path d="M224.963 176.11V191.443C223.774 191.295 222.533 191.176 221.276 191.107V162.438L224.963 161.212V176.11Z" fill="#F2F2F2"/>
<path d="M224.963 127.476V141.615C224.597 142.317 224.043 142.871 223.38 143.196C222.718 143.521 221.981 143.601 221.276 143.424V112.262L224.963 111.072V127.476Z" fill="#F2F2F2"/>
<path d="M224.963 110.635L220.716 111.809L208.15 107.11L208.004 106.734L212.212 105.173L212.29 105.38L224.963 110.635Z" fill="#F2F2F2"/>
<path d="M224.963 161.415L220.73 162.687L208.207 157.559L208.004 157.016L212.207 155.313L212.333 155.683L224.963 161.415Z" fill="#F2F2F2"/>
<path d="M223.356 143.285L224.226 145.702L216.867 148.677L216.115 146.611C216.928 146.257 217.612 145.638 218.069 144.844V142.778L220.024 143.625L221.001 143.543C221.793 143.7 222.611 143.61 223.356 143.285Z" fill="#F2F2F2"/>
<path d="M222.751 222.412L219.907 223.149V222.582H216.115L216.38 222.514H217.167C219.092 222.543 220.931 222.503 222.751 222.412Z" fill="#F2F2F2"/>
<path d="M222.014 61.7876V94.0343L221.014 94.1131L219.119 93.3055V63.718L206.672 58.2024L206.529 57.8577L209.548 56.5083L209.7 56.8629L222.014 61.7876Z" fill="#BF505A"/>
<path d="M221.276 162.872V190.706C220.284 190.658 219.292 190.639 218.3 190.629V164.714L205.293 159.33L205.055 158.716L208.249 157.525L208.448 158.034L221.276 162.872Z" fill="#F2F2F2"/>
<path d="M221.276 111.859V143.448L220.232 143.516L218.253 142.725V113.75L205.254 108.337L205.055 107.835L208.267 106.648L208.416 107.034L221.276 111.859Z" fill="#F2F2F2"/>
<path d="M219.802 265.995V271.539C219.082 272.218 218.164 272.573 217.225 272.534C216.76 272.585 216.29 272.527 215.845 272.364C215.4 272.202 214.99 271.937 214.64 271.588V265.995C215.525 265.945 216.349 265.916 217.225 265.916C218.102 265.916 218.952 265.945 219.802 265.995Z" fill="#F2F2F2"/>
<path d="M219.802 262.345V266.653C218.916 266.595 218.102 266.56 217.225 266.56C216.349 266.56 215.455 266.56 214.64 266.653V262.345C215.525 262.275 216.34 262.229 217.225 262.229C218.111 262.229 218.961 262.275 219.802 262.345Z" fill="#F2F2F2"/>
<path d="M219.802 249.694V262.966C218.961 262.907 218.102 262.868 217.225 262.868C216.349 262.868 215.455 262.868 214.64 262.966V251.863L219.802 249.694Z" fill="#F2F2F2"/>
<path d="M216.758 249.673C217.412 249.378 217.973 248.867 218.369 248.207C218.765 247.547 218.978 246.767 218.981 245.968L218.231 244.476L219.802 243.795V249.693L214.64 251.906V248.652L216.264 249.433L216.449 249.803L216.758 249.673Z" fill="#F2F2F2"/>
<path d="M219.802 237.896V243.927L218.178 244.533L215.377 239.758L219.802 237.896Z" fill="#F2F2F2"/>
<path d="M219.802 231.998V237.371L215.522 239.371L214.64 237.76V234.395L219.802 231.998Z" fill="#F2F2F2"/>
<path d="M219.802 231.558V232.046L214.64 234.21V231.464L216.899 230.523L219.802 231.558Z" fill="#F2F2F2"/>
<path d="M219.802 228.311V231.26L216.853 229.898L219.802 228.311Z" fill="#F2F2F2"/>
<path d="M219.802 223.149V229.054L216.907 230.523L214.64 229.554V225.763L219.802 223.149Z" fill="#F2F2F2"/>
<path d="M219.802 222.412V223.255L214.64 225.362V223.128L216.237 222.463L219.802 222.412Z" fill="#F2F2F2"/>
<path d="M219.064 93.0754V95.0681C218.673 95.8354 218.087 96.4353 217.392 96.7819C216.749 97.0682 216.052 97.1371 215.377 96.9812V64.39L219.031 63.1445L219.064 93.0754Z" fill="#F2F2F2"/>
<path d="M219.064 63.4593L215.014 64.6191L202.982 59.9894L202.843 59.6673L206.81 57.9829L206.949 58.3051L219.064 63.4593Z" fill="#F2F2F2"/>
<path d="M215.525 239.534L218.297 244.696L219.064 246.131C219.061 246.899 218.843 247.649 218.438 248.284C218.032 248.919 217.458 249.41 216.789 249.694L216.301 249.463L214.64 246.381V237.896L215.525 239.534Z" fill="#F2F2F2"/>
<path d="M218.327 215.823L205.768 221.675L204.877 221.51L203.709 219.264L203.642 219.347L203.566 219.264L190.308 213.155V213.073L194.472 211.352C200.014 214.103 208.103 215.844 217.111 215.844C217.484 215.844 217.906 215.844 218.327 215.823Z" fill="#F2F2F2"/>
<path d="M218.327 193.816V195.802C217.943 196.398 217.423 196.899 216.808 197.263C215.796 197.263 214.854 197.263 213.903 197.342V190.795C215.118 190.736 216.343 190.706 217.598 190.706H218.327V193.816Z" fill="#F2F2F2"/>
<path d="M218.327 164.162V191.353H217.598C216.343 191.353 215.118 191.353 213.903 191.444V165.431L218.327 164.162Z" fill="#F2F2F2"/>
<path d="M218.327 142.65V144.557C217.857 145.29 217.152 145.861 216.316 146.187C215.548 146.468 214.711 146.538 213.903 146.387V115.213L218.297 114.021L218.327 142.65Z" fill="#F2F2F2"/>
<path d="M218.327 114.248L213.936 115.497L200.902 110.471L200.631 109.792L204.992 108.123L205.193 108.643L218.327 114.248Z" fill="#F2F2F2"/>
<path d="M218.327 164.399L213.948 165.636L200.952 160.698L200.631 159.893L204.98 158.263L205.23 158.891L218.327 164.399Z" fill="#F2F2F2"/>
<path d="M217.912 96.2978L218.327 97.3657L185.884 109.598C186.312 109.27 186.68 108.873 186.971 108.423V81.2408L195.865 77.8916V88.9974L214.503 96.5599L215.491 96.492C216.301 96.6513 217.14 96.584 217.912 96.2978Z" fill="#F2F2F2"/>
<path d="M216.852 230.062L214.64 231.26V229.048L216.852 230.062Z" fill="#F2F2F2"/>
<path d="M216.852 148.249L160.192 170.06L159.339 167.832C160.144 167.498 160.823 166.916 161.277 166.169V137.596H161.374L168.731 134.765L169.138 134.667L170.795 141.478L168.469 154.456L174.963 158.668L170.805 141.516L175.467 158.668L196.518 150.885L193.688 139.152L194.512 138.948L212.791 146.527L213.809 146.459C214.588 146.612 215.394 146.541 216.135 146.254L216.852 148.249Z" fill="#F2F2F2"/>
<path d="M216.115 249.694L214.64 248.975V246.745L216.115 249.694Z" fill="#F2F2F2"/>
<path d="M216.115 222.412L214.64 223.149V222.431L216.115 222.412Z" fill="#F2F2F2"/>
<path d="M215.378 65.3904V96.9952L214.336 97.0628L195.618 89.5406V78.5228V63.4108L195.469 63.0632L202.347 60.1953L202.496 60.5333L215.378 65.3904Z" fill="#F2F2F2"/>
<path d="M216.115 197.342C215.441 198.021 214.657 198.241 213.903 197.962V197.455C214.627 197.385 215.367 197.356 216.115 197.342Z" fill="#F2F2F2"/>
<path d="M199.202 269.736C199.636 266.291 206.188 263.478 214.64 262.966V266.421C207.722 266.822 201.962 268.637 199.347 271.077C199.225 270.758 199.163 270.421 199.164 270.081C199.153 269.966 199.153 269.851 199.164 269.736H199.202Z" fill="#F2F2F2"/>
<path d="M178.51 260.891V259.781C178.699 259.724 178.882 259.648 179.055 259.555L185.062 257.327C185.98 257.324 186.865 256.989 187.54 256.387L192.148 254.666C192.728 254.724 193.314 254.649 193.86 254.449C194.405 254.248 194.894 253.926 195.287 253.509L211.52 247.482L214.64 248.78V251.836L178.51 265.178V260.891Z" fill="#F2F2F2"/>
<path d="M214.64 246.588V248.957L211.455 247.606L195.876 241.019H195.469V222.412L201.959 224.761L214.64 246.588Z" fill="#F2F2F2"/>
<path d="M213.051 235.188L214.64 238.005V246.745L202.105 224.624L208.373 226.955L211.6 232.639L213.051 235.188Z" fill="#F2F2F2"/>
<path d="M214.64 234.209V237.896L212.428 234.947L214.64 234.209Z" fill="#F2F2F2"/>
<path d="M214.64 231.26V234.279L213.099 234.947L211.691 232.53L211.729 232.502L214.64 231.26Z" fill="#F2F2F2"/>
<path d="M209.925 227.536L214.64 229.255V231.345L211.462 232.704L211.421 232.735L208.004 226.836L209.925 227.536Z" fill="#F2F2F2"/>
<path d="M214.64 225.361V229.048L209.479 227.357L214.64 225.361Z" fill="#F2F2F2"/>
<path d="M214.64 223.149V225.699L209.817 227.574L207.851 226.927L207.267 226.004L214.64 223.149Z" fill="#F2F2F2"/>
<path d="M213.903 190.706V197.175C212.897 197.175 211.925 197.273 210.954 197.342V190.863C211.925 190.804 212.897 190.745 213.903 190.706Z" fill="#F2F2F2"/>
<path d="M213.903 166.158V191.287C213.036 191.287 212.199 191.385 211.361 191.443V167.659L198.701 162.21L198.418 161.449L200.999 160.475L201.311 161.274L213.903 166.158Z" fill="#F2F2F2"/>
<path d="M213.903 115.063V146.398L212.872 146.465L194.358 139.009V124.777V113.101L193.995 112.182L200.906 109.598L201.171 110.248L213.903 115.063Z" fill="#F2F2F2"/>
<path d="M195.747 240.846L211.691 247.266L194.732 253.381C194.958 253.166 195.159 252.93 195.331 252.675V240.846H195.747Z" fill="#F2F2F2"/>
<path d="M210.953 197.342V198.624C210.516 199.513 209.851 200.213 209.056 200.625C208.261 201.036 207.376 201.137 206.529 200.912V197.929C207.964 197.69 209.438 197.486 210.953 197.342Z" fill="#F2F2F2"/>
<path d="M210.953 191.443V197.621C209.438 197.733 207.923 197.892 206.529 198.08V191.911C207.964 191.724 209.438 191.584 210.953 191.443Z" fill="#F2F2F2"/>
<path d="M210.953 167.111V190.955C209.438 191.082 207.923 191.248 206.529 191.443V168.332L210.953 167.111Z" fill="#F2F2F2"/>
<path d="M210.954 167.376L206.748 168.585L194.34 163.737L193.995 162.828L198.153 161.212L198.431 161.967L210.954 167.376Z" fill="#F2F2F2"/>
<path d="M207.487 225.934L208.004 226.836L201.995 224.717L200.631 222.435V222.39L202.107 220.938C202.963 221.127 203.847 221.307 204.75 221.461L204.985 221.857L207.487 225.934Z" fill="#F2F2F2"/>
<path d="M206.529 191.443V197.509C205.515 197.675 204.535 197.859 203.58 198.08V192.042C204.535 191.793 205.515 191.609 206.529 191.443Z" fill="#F2F2F2"/>
<path d="M206.529 168.494V191.575C205.408 191.751 204.324 191.946 203.268 192.18V169.596L191.12 164.15L191.045 163.936L194.157 162.687L194.493 163.604L206.529 168.494Z" fill="#F2F2F2"/>
<path d="M203.743 219.463L205.055 221.675C204.005 221.502 203.061 221.299 202.105 221.086L203.669 219.544L203.743 219.463Z" fill="#F2F2F2"/>
<path d="M203.58 219.317L202.113 220.938C195.646 219.317 190.626 216.674 188.096 213.551L189.838 212.827V212.912L203.472 219.232L203.58 219.317Z" fill="#F2F2F2"/>
<path d="M203.58 198.08V200.458C203.148 201.216 202.484 201.814 201.688 202.163C200.891 202.513 200.003 202.596 199.156 202.4V199.188C200.553 198.761 202.031 198.395 203.58 198.08Z" fill="#F2F2F2"/>
<path d="M203.58 192.181V198.508C202.031 198.805 200.543 199.151 199.156 199.554V193.218C200.553 192.805 202.031 192.449 203.58 192.181Z" fill="#F2F2F2"/>
<path d="M203.58 170.06V191.9C202.031 192.192 200.543 192.541 199.156 192.918V171.238L203.58 170.06Z" fill="#F2F2F2"/>
<path d="M203.58 169.621L199.336 170.798L186.767 166.082L186.621 165.724L190.837 164.162L190.914 164.369L203.58 169.621Z" fill="#F2F2F2"/>
<path d="M202.106 220.754L200.632 222.412L185.146 215.087L188.741 213.564C191.153 216.631 195.939 219.18 202.106 220.754Z" fill="#F2F2F2"/>
<path d="M200.693 222.304L202.105 224.624L195.738 222.423V221.809L183.051 216.693L182.934 216.399L184.677 215.776L200.742 222.258L200.693 222.304Z" fill="#F2F2F2"/>
<path d="M199.156 170.887V193.292C198.017 193.633 196.937 194.003 195.925 194.393V172.757L183.081 167.302L182.934 166.912L186.302 165.636L186.449 166.006L199.156 170.887Z" fill="#F2F2F2"/>
<path d="M197.681 272.552L196.944 274.026C196.949 273.502 197.205 272.991 197.681 272.552V272.552Z" fill="#F2F2F2"/>
<path d="M193.365 139.809L196.206 151.346L175.071 159L170.391 142.134V142.095L168.717 135.36L166.712 127.209L187.575 118.446H188.091L190.173 126.865L190.485 128.137L193.365 139.809Z" fill="#C0505A"/>
<path d="M196.206 201.029V204.243C195.766 204.962 195.102 205.528 194.307 205.861C193.513 206.194 192.629 206.277 191.782 206.098V203.078C193.196 202.28 194.676 201.595 196.206 201.029V201.029Z" fill="#F2F2F2"/>
<path d="M196.206 194.393V200.536C194.676 201.08 193.196 201.738 191.782 202.503V196.369C193.194 195.596 194.674 194.935 196.206 194.393V194.393Z" fill="#F2F2F2"/>
<path d="M196.206 173.01V194.546C194.674 195.111 193.194 195.8 191.782 196.605V174.272L196.206 173.01Z" fill="#F2F2F2"/>
<path d="M196.207 172.595L191.795 173.747L178.732 169.149L178.51 168.628L182.881 167.111L183.033 167.476L196.207 172.595Z" fill="#F2F2F2"/>
<path d="M195.469 62.7619V78.1795L186.798 81.5783V77.5195L174.221 72.0223L174.086 71.7071L195.324 62.4072L195.469 62.7619Z" fill="#F2F2F2"/>
<path d="M195.469 241.058V252.964C195.298 253.221 195.097 253.459 194.872 253.674L191.602 254.855C191.415 254.85 191.229 254.83 191.045 254.798V223.372L194.436 222.412L195.449 222.767L195.469 241.058Z" fill="#F2F2F2"/>
<path d="M195.469 221.675V222.412L194.732 222.005L195.469 221.675Z" fill="#F2F2F2"/>
<path d="M195.469 222.127L194.496 222.412L180.722 217.36L182.926 216.513L183.04 216.818L195.469 222.127Z" fill="#F2F2F2"/>
<path d="M180.51 216.513L194.732 221.509L191.432 222.412L178.688 217.689L178.51 217.247L180.51 216.513Z" fill="#F2F2F2"/>
<path d="M193.994 124.345V139.613L193.236 139.829L190.593 127.302L190.308 125.936L190.486 125.885L193.994 124.345Z" fill="#F2F2F2"/>
<path d="M193.994 112.741V124.577L190.207 126.033L190.014 126.081L187.951 117.543H187.44L166.775 126.43L168.761 134.697L168.356 134.794L161.04 137.617H160.944V134.988L148.375 129.564L148.279 129.312L193.638 111.81L193.994 112.741Z" fill="#F2F2F2"/>
<path d="M193.995 211.511L189.956 212.97L188.312 213.564C187.278 212.536 186.68 211.188 186.631 209.773C186.618 209.59 186.618 209.406 186.631 209.223L188.878 208.402C190.387 209.701 192.116 210.751 193.995 211.511V211.511Z" fill="#F2F2F2"/>
<path d="M191.782 254.581L187.246 256.33C187.561 256.049 187.838 255.728 188.069 255.374V224.708L175.628 219.364L175.561 219.202L178.738 217.988L178.92 218.437L191.294 223.217V254.504C191.455 254.541 191.618 254.567 191.782 254.581V254.581Z" fill="#F2F2F2"/>
<path d="M191.782 196.605V202.32C190.994 202.798 190.253 203.353 189.57 203.978V198.255C190.255 197.635 190.996 197.083 191.782 196.605V196.605Z" fill="#F2F2F2"/>
<path d="M191.783 173.985V196.241C190.877 196.773 190.024 197.389 189.235 198.079V175.475L176.494 170.066L176.298 169.553L178.895 168.585L179.111 169.137L191.783 173.985Z" fill="#F2F2F2"/>
<path d="M189.57 203.979V206.413C189.356 206.884 189.092 207.306 188.787 207.665C188.531 207.264 188.3 206.834 188.096 206.378C188.503 205.483 189 204.675 189.57 203.979V203.979Z" fill="#F2F2F2"/>
<path d="M189.57 198.08V204.828C188.841 205.438 188.206 206.145 187.686 206.928C186.998 205.924 186.628 204.75 186.621 203.548C186.681 202.488 186.974 201.451 187.483 200.508C187.991 199.565 188.703 198.737 189.57 198.08Z" fill="#F2F2F2"/>
<path d="M189.571 175.959V198.244C188.74 198.852 188.058 199.62 187.568 200.497C187.079 201.374 186.794 202.34 186.732 203.329V208.338C186.208 208.424 185.671 208.424 185.146 208.338V177.149L189.571 175.959Z" fill="#F2F2F2"/>
<path d="M189.57 175.571L185.345 176.696L172.872 172.185L172.611 171.555L176.788 170.06L176.991 170.537L189.57 175.571Z" fill="#F2F2F2"/>
<path d="M188.833 208.251L186.621 209.14C186.647 208.907 186.687 208.677 186.74 208.45C187.318 208.342 187.856 208.07 188.294 207.665C188.468 207.864 188.641 208.053 188.833 208.251Z" fill="#F2F2F2"/>
<path d="M184.464 215.066L182.753 215.693L180.545 216.513L173.349 213.96L180.039 211.481L186.366 209.14V209.711C186.415 211.204 187.031 212.627 188.096 213.711L184.464 215.066Z" fill="#F2F2F2"/>
<path d="M188.095 224.624V255.853C187.853 256.213 187.563 256.54 187.233 256.826L184.675 257.8C184.339 257.816 184.002 257.793 183.671 257.732V225.841L188.095 224.624Z" fill="#F2F2F2"/>
<path d="M188.096 224.31L183.827 225.362L171.253 221.146L171.137 220.868L175.347 219.463L175.415 219.606L188.096 224.31Z" fill="#F2F2F2"/>
<path d="M187.376 206.928C187.588 207.225 187.829 207.507 188.096 207.768C187.68 208.096 187.17 208.315 186.621 208.402C186.782 207.879 187.036 207.381 187.376 206.928V206.928Z" fill="#F2F2F2"/>
<path d="M187.358 81.7782V108.451C187.06 108.882 186.687 109.262 186.255 109.575V109.575L184.248 110.289C183.813 110.35 183.37 110.35 182.934 110.289V79.0919L187.328 77.8916L187.358 81.7782Z" fill="#F2F2F2"/>
<path d="M187.358 77.461L182.917 78.6288L169.804 73.9854L169.662 73.6795L173.992 71.9927L174.134 72.2893L187.358 77.461Z" fill="#F2F2F2"/>
<path d="M188.096 206.504C187.541 207.085 187.125 207.723 186.862 208.395C186.782 208.405 186.701 208.405 186.621 208.395V203.241C186.638 204.405 187.151 205.54 188.096 206.504V206.504Z" fill="#F2F2F2"/>
<path d="M186.621 208.192V208.882L180.127 211.352L179.715 210.331C180.528 209.993 181.214 209.411 181.677 208.669V177.448L168.925 172.033L172.152 170.798L172.417 171.478L185.101 176.34V208.163C185.602 208.258 186.116 208.267 186.621 208.192Z" fill="#F2F2F2"/>
<path d="M184.409 110.335L185.884 109.598C185.458 110.033 184.945 110.29 184.409 110.335V110.335Z" fill="#F2F2F2"/>
<path d="M185.146 256.993L178.907 259.28C179.592 258.931 180.166 258.415 180.573 257.784V226.837L167.45 221.474L170.943 220.2L171.064 220.519L184.116 225.342V256.926C184.455 256.988 184.801 257.011 185.146 256.993V256.993Z" fill="#F2F2F2"/>
<path d="M180.035 109.333V80.5328L166.864 75.0705L166.712 74.7729L169.917 73.4673L170.058 73.7841L183.089 78.5841V109.995C183.526 110.056 183.971 110.056 184.409 109.995L179.592 111.809C179.759 111.633 179.911 111.444 180.045 111.243L180.035 109.333Z" fill="#F2F2F2"/>
<path d="M181.46 177.434V208.675C180.985 209.419 180.282 210.001 179.449 210.34C178.678 210.62 177.843 210.687 177.036 210.535V178.661L181.46 177.434Z" fill="#F2F2F2"/>
<path d="M181.46 177.684L177.183 178.909L164.559 174.041L164.5 173.895L168.767 172.272L181.46 177.684Z" fill="#F2F2F2"/>
<path d="M160.74 224.546L156.39 226.2L153.477 227.287L149.147 228.961L143.117 231.26C143.185 229.423 143.243 227.586 143.311 225.748L173.411 214.301L180.722 216.966L178.78 217.716L175.557 218.938L171.352 220.544L167.993 221.814L163.74 223.43L160.74 224.546Z" fill="#F2F2F2"/>
<path d="M180.722 227.574V258.321C180.314 258.947 179.736 259.46 179.048 259.806L178.48 260.017V253.452C178.48 253.231 178.48 253.02 178.48 252.829C177.841 252.944 177.12 253.068 176.298 253.183V228.772L180.722 227.574Z" fill="#F2F2F2"/>
<path d="M180.722 227.093L176.448 228.311L163.802 223.429L163.763 223.322L168.047 221.675L180.722 227.093Z" fill="#F2F2F2"/>
<path d="M179.58 210.746L179.985 211.765L173.235 214.301L167.45 212.217L169.378 206.928L176.976 210.746H177.266V210.897C178.036 211.057 178.837 211.005 179.58 210.746V210.746Z" fill="#F2F2F2"/>
<path d="M179.985 109.476V111.38C179.85 111.579 179.698 111.767 179.529 111.942L175.935 113.284H175.561V82.0213L179.985 80.8408V109.476Z" fill="#F2F2F2"/>
<path d="M179.985 80.4325L175.738 81.5785L163.162 76.9388L163.026 76.643V76.6338L167.166 74.9424L167.312 75.2474L179.985 80.4325Z" fill="#F2F2F2"/>
<path d="M175.561 113.249L179.247 111.81C178.811 112.34 178.243 112.751 177.597 113.003C176.951 113.255 176.25 113.34 175.561 113.249V113.249Z" fill="#F2F2F2"/>
<path d="M178.51 275.089V312.415C178.374 312.624 178.173 312.799 177.929 312.92C177.685 313.042 177.407 313.106 177.123 313.106C176.839 313.106 176.561 313.042 176.317 312.92C176.073 312.799 175.872 312.624 175.736 312.415V267.821L175.561 267.742C175.958 267.064 176.298 266.406 176.614 265.777L178.487 265.178V275.099L178.51 275.089Z" fill="#F2F2F2"/>
<path d="M178.51 261.492V265.394L176.298 265.916C177.223 264.479 177.962 263 178.51 261.492V261.492Z" fill="#F2F2F2"/>
<path d="M178.51 260.017V261.239C178.133 263.034 177.625 264.795 176.99 266.505L174.823 267.391C176.014 265.199 176.925 262.845 177.531 260.394L178.263 260.099L178.51 260.017Z" fill="#F2F2F2"/>
<path d="M177.773 185.544V210.614H177.486L169.662 206.704L177.684 185.544H177.773Z" fill="#F2F2F2"/>
<path d="M177.773 179.036V185.545H177.683L177.165 185.504L177.175 185.206L157.954 176.73L157.864 176.504L164.836 173.747L164.895 173.901L177.773 179.036Z" fill="#F2F2F2"/>
<path d="M177.036 259.719C177.036 259.777 177.036 259.845 176.989 259.903L171.137 262.229V262.162C171.908 261.824 172.559 261.248 173 260.511V252.972C174.1 252.895 175.097 252.769 175.982 252.644V259.661C176.33 259.724 176.684 259.743 177.036 259.719V259.719Z" fill="#F2F2F2"/>
<path d="M177.035 185.128L169.497 206.637L167.598 212.089L163.763 210.621L172.801 184.807L172.95 184.817L176.551 185.089L177.035 185.128Z" fill="#F2F2F2"/>
<path d="M171.005 262.389L177.035 260.017C176.432 262.384 175.521 264.658 174.328 266.778L138.8 280.663C137.36 280.515 135.871 280.309 134.344 280.043C133.317 279.856 132.299 279.659 131.32 279.433L131.646 277.878L163.765 265.243L171.005 262.389Z" fill="#F2F2F2"/>
<path d="M177.035 185.252L177.026 185.544L173.209 185.262V185.252L155.652 177.573L157.911 176.696L158 176.918L177.035 185.252Z" fill="#F2F2F2"/>
<path d="M176.298 228.162V253.049C175.287 253.176 174.276 253.303 173.062 253.381V229.676L160.077 224.302L163.181 223.149V223.267L176.298 228.162Z" fill="#F2F2F2"/>
<path d="M175.561 113.565L174.388 114.022L174.21 113.565L156.512 105.982V79.6544L156.39 79.3336L162.899 76.417L163.03 76.7281L175.223 81.5891V113.468L175.561 113.565Z" fill="#F2F2F2"/>
<path d="M170.575 142.079L174.824 159L168.188 154.835L170.575 142.041V142.079Z" fill="#F2F2F2"/>
<path d="M174.658 113.256L174.823 113.675L122.754 133.193H122.472V105.715H123.056L150.23 95.5277L151.389 95.0898L155.967 93.376H156.279V105.829L174.658 113.256Z" fill="#F2F2F2"/>
<path d="M138.693 280.326L174.823 267.391C174.482 267.931 174.111 268.482 173.701 269.032C166.006 279.455 152.921 280.371 151.153 280.463C147.004 280.769 142.834 280.723 138.693 280.326V280.326Z" fill="#F2F2F2"/>
<path d="M173.349 214.298L143.117 225.362C143.377 218.234 143.641 211.106 143.907 203.979L146.618 204.908L145.643 207.8L161.929 214.54H161.997L161.929 214.726C162.635 215.156 163.465 215.361 164.301 215.313C165.137 215.264 165.935 214.964 166.581 214.456L167.439 212.234L173.349 214.298Z" fill="#F2F2F2"/>
<path d="M172.612 253.381V261.011C172.245 261.733 171.691 262.303 171.029 262.637C170.367 262.971 169.63 263.054 168.925 262.872V253.498C170.26 253.527 171.486 253.469 172.612 253.381Z" fill="#F2F2F2"/>
<path d="M172.612 229.786V253.266C171.486 253.354 170.26 253.412 168.925 253.363V230.995L172.612 229.786Z" fill="#F2F2F2"/>
<path d="M172.611 230.031L168.5 231.26L156.399 226.335L156.39 226.315L160.586 224.624L172.611 230.031Z" fill="#F2F2F2"/>
<path d="M172.611 184.831V184.841L172.459 184.831L163.23 210.614L146.804 204.46L155.692 177.434L172.611 184.831Z" fill="#F2F2F2"/>
<path d="M171.137 262.459L163.821 265.178L163.763 265.028C164.563 264.696 165.24 264.137 165.704 263.425V253.381C166.771 253.484 167.799 253.54 168.789 253.559V262.581C169.571 262.733 170.381 262.668 171.127 262.393L171.137 262.459Z" fill="#F2F2F2"/>
<path d="M168.925 230.975V253.381C167.95 253.381 166.898 253.303 165.826 253.196V232.478L153.44 227.194L156.364 226.099L168.925 230.975Z" fill="#F2F2F2"/>
<path d="M167.45 212.236L166.646 214.785C166.041 215.368 165.293 215.712 164.51 215.768C163.727 215.823 162.95 215.588 162.289 215.094L162.353 214.881L163.686 210.614L167.45 212.236Z" fill="#F2F2F2"/>
<path d="M165.975 253.244V263.296C165.535 263.991 164.87 264.539 164.075 264.861C163.281 265.182 162.397 265.262 161.551 265.089V252.644C163.083 252.925 164.564 253.113 165.975 253.244Z" fill="#F2F2F2"/>
<path d="M165.975 232.735V253.381C164.564 253.245 163.083 253.052 161.551 252.762V233.981L165.975 232.735Z" fill="#F2F2F2"/>
<path d="M165.975 232.972L161.649 234.21L149.016 229.277L153.45 227.574L165.975 232.972Z" fill="#F2F2F2"/>
<path d="M143.33 225.86C143.263 227.722 143.205 229.585 143.138 231.448L142.174 231.799L142.242 231.974V258.393L160.43 265.99L161.393 265.921C162.167 266.075 162.967 266.007 163.705 265.726L163.763 265.882L131.587 278.385L131.259 279.925C123.605 278.224 116.297 275.206 109.651 271.002C109.009 252.493 108.367 233.964 107.725 215.415L131.674 198.817L144.111 203.449C143.854 210.919 143.594 218.389 143.33 225.86Z" fill="#F2F2F2"/>
<path d="M163.763 280.663V327.179C163.627 327.385 163.438 327.555 163.212 327.673C162.987 327.791 162.733 327.853 162.476 327.853C162.218 327.853 161.964 327.791 161.739 327.673C161.514 327.555 161.324 327.385 161.188 327.179V281.709L160.077 281.611C161.448 281.298 162.673 280.976 163.763 280.663Z" fill="#F2F2F2"/>
<path d="M163.763 210.314L162.294 214.301L162.224 214.281L145.33 207.086L146.376 203.979L163.763 210.314Z" fill="#F2F2F2"/>
<path d="M161.551 252.406V265.111L160.555 265.178L141.712 257.734V231.778L141.643 231.605L142.639 231.26L142.091 243.544C146.504 247.034 151.58 249.666 157.037 251.295C158.562 251.755 160.086 252.119 161.551 252.406Z" fill="#F2F2F2"/>
<path d="M161.551 233.868V252.644C160.108 252.354 158.606 251.988 157.075 251.525C151.706 249.872 146.715 247.211 142.38 243.689L142.831 231.333L148.967 229.048L161.551 233.868Z" fill="#F2F2F2"/>
<path d="M160.814 138.044V166.643C160.421 167.39 159.834 167.973 159.138 168.308C158.497 168.592 157.8 168.66 157.127 168.503V136.632L160.797 135.405L160.814 138.044Z" fill="#F2F2F2"/>
<path d="M160.814 135.573L156.562 136.879L144.02 131.673L143.854 131.227L148.058 129.506L148.155 129.775L160.814 135.573Z" fill="#F2F2F2"/>
<path d="M160.077 170.019L152.71 173.01L151.966 170.94C152.779 170.587 153.465 169.971 153.925 169.181V167.111L155.884 167.959L156.864 167.877C157.65 168.044 158.465 167.972 159.215 167.67L160.077 170.019Z" fill="#F2F2F2"/>
<path d="M157.127 136.338V168.507L156.093 168.586L154.115 167.78V138.264L141.124 132.75L140.905 132.19L144.116 130.981L144.285 131.404L157.127 136.338Z" fill="#F2F2F2"/>
<path d="M156.39 79.6874V93.2955H156.077L151.484 95.0477L150.321 95.4954L123.058 105.911H122.472V93.792L156.253 79.3662L156.39 79.6874Z" fill="#F2F2F2"/>
<path d="M155.652 177.434L146.581 203.978L143.884 203.025C144.052 198.575 144.214 194.126 144.369 189.676L141.817 188.313C134.975 189.131 128.384 191.353 122.472 194.834V189.695H123.131L155.652 177.434Z" fill="#F2F2F2"/>
<path d="M154.178 167.642V169.593C153.705 170.338 153.001 170.918 152.167 171.251C151.398 171.538 150.562 171.609 149.753 171.455V139.563L154.147 138.354L154.178 167.642Z" fill="#F2F2F2"/>
<path d="M154.178 138.597L149.789 139.829L136.763 134.841L136.481 134.115L140.83 132.456L141.051 133.022L154.178 138.597Z" fill="#F2F2F2"/>
<path d="M151.963 171.329L152.703 173.287L122.764 184.807H122.472V152.253H122.764L130.227 149.415V164.018L148.601 171.652L149.624 171.574C150.411 171.716 151.222 171.631 151.963 171.329V171.329Z" fill="#F2F2F2"/>
<path d="M149.754 139.536V171.457L148.724 171.535L130.228 163.93V149.384V137.538L129.845 136.563L136.759 133.93L137.034 134.642L149.754 139.536Z" fill="#F2F2F2"/>
<path d="M144.592 189.969C144.427 194.639 144.262 199.309 144.097 203.978L131.32 199.185L144.592 189.969Z" fill="#F2F2F2"/>
<path d="M144.592 189.969L131.492 198.817L125.421 196.636C131.285 193.158 137.807 190.89 144.592 189.969V189.969Z" fill="#F2F2F2"/>
<path d="M142.03 188.494L144.592 189.88C137.802 190.808 131.274 193.096 125.405 196.605L122.472 195.549V195.122C128.449 191.577 135.113 189.318 142.03 188.494V188.494Z" fill="#F2F2F2"/>
<path d="M132.057 282.906V283.144L123.209 286.561V281.006L123.313 280.663C126.173 281.615 129.094 282.364 132.057 282.906V282.906Z" fill="#F2F2F2"/>
<path d="M131.32 198.818L107.725 215.776C111.823 208.067 117.739 201.577 124.912 196.923L125.416 196.605L131.32 198.818Z" fill="#F2F2F2"/>
<path d="M129.845 137.796V148.932L122.74 151.626H122.472V139.171H123.454L129.484 136.879L129.845 137.796Z" fill="#F2F2F2"/>
<path d="M122.513 195.576L125.421 196.655L124.907 196.971C117.593 201.614 111.561 208.087 107.383 215.776L104.775 213.955C108.732 206.66 114.392 200.475 121.253 195.952C121.699 195.675 122.126 195.388 122.562 195.13L122.513 195.576Z" fill="#F2F2F2"/>
<path d="M123.209 280.684L123.1 281.026V286.561L110.674 275.748L110.812 275.501C114.761 277.61 118.913 279.346 123.209 280.684V280.684Z" fill="#F2F2F2"/>
<path d="M108.462 274.182L108.29 274.481V308.755C108.182 308.958 108.031 309.126 107.853 309.242C107.674 309.358 107.474 309.419 107.27 309.419C107.066 309.419 106.866 309.358 106.687 309.242C106.509 309.126 106.358 308.958 106.25 308.755V272.552C106.93 273.073 107.651 273.613 108.462 274.182Z" fill="#F2F2F2"/>
<path d="M122.472 195.301V190.065V184.704V152.517V139.366V134.15V106.221V94.1732L156.163 79.8316L162.926 76.9574V76.9477L167.088 75.1768L170.187 73.8607L174.348 72.0994L195.808 62.9641L202.562 60.09L206.733 58.319L209.823 56.9932L213.984 55.2223L245.609 41.7612V86.2669V87.3701V92.8765V137.914V143.421V186.814V192.281V198.079" stroke="#222323" stroke-width="3" stroke-linecap="round" stroke-linejoin="round"/>
<path d="M245.609 40.5714L209.274 21.853L204.415 24.0404L134.893 55.0119L91.5029 74.253V257.943L106.08 271.077" stroke="#222323" stroke-width="2" stroke-linecap="round" stroke-linejoin="round"/>
<path d="M110.674 275.501L123.209 286.561" stroke="#222323" stroke-width="2" stroke-linecap="round" stroke-linejoin="round"/>
<path d="M227.175 77.1543L244.872 86.0025" stroke="#222323" stroke-width="2" stroke-linecap="round" stroke-linejoin="round"/>
<path d="M185.884 109.598L183.985 110.33L179.368 112.126L175.946 113.463L174.741 113.921L123.209 133.93" stroke="#222323" stroke-width="2" stroke-linecap="round" stroke-linejoin="round"/>
<path d="M245.609 86.7397L245.327 86.8467L217.855 97.3665L185.884 109.598" stroke="#222323" stroke-width="2" stroke-linecap="round" stroke-linejoin="round"/>
<path d="M245.609 92.6387L245.328 92.7448L212.544 105.267L208.349 106.869L205.219 108.055L201.015 109.667L194.194 112.271L148.602 129.676L144.407 131.277L141.278 132.464L137.083 134.075L130.253 136.68L123.946 139.092" stroke="#222323" stroke-width="2" stroke-linecap="round" stroke-linejoin="round"/>
<path d="M224.963 127.294L225.043 127.343L244.872 137.617" stroke="#222323" stroke-width="2" stroke-linecap="round" stroke-linejoin="round"/>
<path d="M224.963 176.696L225.043 176.733L244.872 186.282" stroke="#222323" stroke-width="2" stroke-linecap="round" stroke-linejoin="round"/>
<path d="M245.609 137.617L245.328 137.724L244.805 137.938L224.219 145.875L216.915 148.679L160.273 170.512L152.988 173.336L123.209 184.807" stroke="#222323" stroke-width="2" stroke-linecap="round" stroke-linejoin="round"/>
<path d="M245.609 142.778L245.327 142.876L212.395 155.577L208.178 157.199L205.049 158.411L200.831 160.033L198.256 161.029L194.049 162.661L190.813 163.911L186.595 165.533L183.262 166.813L179.045 168.435L176.46 169.432L172.253 171.053L169.056 172.294L164.809 173.926L158.007 176.554L155.782 177.404L123.209 189.969" stroke="#222323" stroke-width="2" stroke-linecap="round" stroke-linejoin="round"/>
<path d="M236.761 230.523H236.771L244.872 234.21" stroke="#222323" stroke-width="2" stroke-linecap="round" stroke-linejoin="round"/>
<path d="M186.621 209.14L186.582 209.149L180.129 211.553L173.297 214.099L143.117 225.361" stroke="#222323" stroke-width="2" stroke-linecap="round" stroke-linejoin="round"/>
<path d="M245.609 186.282L245.324 186.405L244.891 186.569L230.862 192.181" stroke="#222323" stroke-width="2" stroke-linecap="round" stroke-linejoin="round"/>
<path d="M129.845 149.415L123.209 151.627" stroke="#222323" stroke-width="2" stroke-linecap="round" stroke-linejoin="round"/>
<path d="M193.994 124.345L191.045 126.557" stroke="#222323" stroke-width="2" stroke-linecap="round" stroke-linejoin="round"/>
<path d="M168.925 135.405L160.814 137.617" stroke="#222323" stroke-width="2" stroke-linecap="round" stroke-linejoin="round"/>
<path d="M150.491 95.5879L123.209 105.911" stroke="#222323" stroke-width="2" stroke-linecap="round" stroke-linejoin="round"/>
<path d="M155.652 93.376L151.534 95.1378L150.491 95.588" stroke="#222323" stroke-width="2" stroke-linecap="round" stroke-linejoin="round"/>
<path d="M195.469 78.6289L187.358 81.5783" stroke="#222323" stroke-width="2" stroke-linecap="round" stroke-linejoin="round"/>
<path d="M188.096 213.564L184.404 215.017L182.679 215.69L180.453 216.569L178.497 217.341L175.297 218.596L171.124 220.247L167.789 221.552L163.568 223.223L160.609 224.38L156.292 226.08L153.439 227.197L149.102 228.898L143.117 231.26" stroke="#222323" stroke-width="2" stroke-linecap="round" stroke-linejoin="round"/>
<path d="M245.609 191.443L245.321 191.57L238.973 194.393" stroke="#222323" stroke-width="2" stroke-linecap="round" stroke-linejoin="round"/>
<path d="M178.51 260.017H177.036" stroke="#222323" stroke-width="2" stroke-linecap="round" stroke-linejoin="round"/>
<path d="M211.691 247.482L195.484 253.606L192.349 254.781L187.749 256.53L185.274 257.456L179.277 259.721L178.733 259.931L178.51 260.017" stroke="#222323" stroke-width="2" stroke-linecap="round" stroke-linejoin="round"/>
<path d="M244.872 234.209L244.578 234.327L236.799 237.294L219.802 243.795" stroke="#222323" stroke-width="2" stroke-linecap="round" stroke-linejoin="round"/>
<path d="M132.057 282.937L123.209 286.561V280.663" stroke="#222323" stroke-width="2" stroke-linecap="round" stroke-linejoin="round"/>
<path d="M214.64 251.906L178.587 265.927L177.035 266.53L174.823 267.391" stroke="#222323" stroke-width="2" stroke-linecap="round" stroke-linejoin="round"/>
<path d="M245.609 240.108L245.324 240.214L244.664 240.463L219.802 249.694" stroke="#222323" stroke-width="2" stroke-linecap="round" stroke-linejoin="round"/>
<path d="M215.377 96.9862V64.3891L219.064 63.1445V95.0746C218.669 95.8413 218.078 96.4408 217.377 96.7871C216.738 97.0659 216.047 97.1347 215.377 96.9862V96.9862Z" stroke="#222323" stroke-width="2" stroke-linecap="round" stroke-linejoin="round"/>
<path d="M195.469 63.1445V78.376V89.4809L213.903 97.0626" stroke="#222323" stroke-width="2" stroke-linecap="round" stroke-linejoin="round"/>
<path d="M215.378 64.6194L202.843 60.1953" stroke="#222323" stroke-width="2" stroke-linecap="round" stroke-linejoin="round"/>
<path d="M206.529 57.9829L219.064 63.1444" stroke="#222323" stroke-width="2" stroke-linecap="round" stroke-linejoin="round"/>
<path d="M222.014 94.0116V61.4293L226.438 60.1953V92.1108C226.006 92.8525 225.342 93.4379 224.545 93.7802C223.749 94.1225 222.861 94.2037 222.014 94.0116V94.0116Z" fill="#BF505A" stroke="#222323" stroke-width="2" stroke-linecap="round" stroke-linejoin="round"/>
<path d="M219.064 92.6387L221.277 94.1134" stroke="#222323" stroke-width="2" stroke-linecap="round" stroke-linejoin="round"/>
<path d="M222.014 61.6697L209.479 57.2456" stroke="#222323" stroke-width="2" stroke-linecap="round" stroke-linejoin="round"/>
<path d="M213.903 55.0337L226.438 60.1951" stroke="#222323" stroke-width="2" stroke-linecap="round" stroke-linejoin="round"/>
<path d="M175.935 113.251H175.561V82.0201L179.985 80.8408V111.349C179.85 111.548 179.698 111.736 179.529 111.91C179.103 112.404 178.548 112.787 177.919 113.022C177.289 113.257 176.606 113.336 175.935 113.251V113.251Z" stroke="#222323" stroke-width="2" stroke-linecap="round" stroke-linejoin="round"/>
<path d="M156.39 79.3662V92.9685V105.695L174.823 113.284" stroke="#222323" stroke-width="2" stroke-linecap="round" stroke-linejoin="round"/>
<path d="M175.561 81.5784L163.026 77.1543" stroke="#222323" stroke-width="2" stroke-linecap="round" stroke-linejoin="round"/>
<path d="M166.712 75.6797L179.985 80.8411" stroke="#222323" stroke-width="2" stroke-linecap="round" stroke-linejoin="round"/>
<path d="M184.257 110.289C183.819 110.35 183.373 110.35 182.934 110.289V79.0922L187.358 77.8916V108.422C187.062 108.867 186.686 109.26 186.247 109.584V109.584C185.671 109.997 184.979 110.243 184.257 110.289V110.289Z" stroke="#222323" stroke-width="2" stroke-linecap="round" stroke-linejoin="round"/>
<path d="M179.985 109.598L181.46 110.335" stroke="#222323" stroke-width="2" stroke-linecap="round" stroke-linejoin="round"/>
<path d="M182.934 78.6287L169.662 73.4673" stroke="#222323" stroke-width="2" stroke-linecap="round" stroke-linejoin="round"/>
<path d="M174.086 71.9927L187.358 77.1541" stroke="#222323" stroke-width="2" stroke-linecap="round" stroke-linejoin="round"/>
<path d="M213.903 146.391V115.212L218.327 114.021V144.563C217.854 145.295 217.144 145.865 216.302 146.191C215.538 146.467 214.707 146.536 213.903 146.391Z" stroke="#222323" stroke-width="2" stroke-linecap="round" stroke-linejoin="round"/>
<path d="M193.995 112.547V124.417V138.885L212.428 146.465" stroke="#222323" stroke-width="2" stroke-linecap="round" stroke-linejoin="round"/>
<path d="M213.903 115.496L200.631 110.335" stroke="#222323" stroke-width="2" stroke-linecap="round" stroke-linejoin="round"/>
<path d="M205.055 108.86L218.327 114.022" stroke="#222323" stroke-width="2" stroke-linecap="round" stroke-linejoin="round"/>
<path d="M221.276 143.386V112.262L224.963 111.072V141.615C224.597 142.317 224.043 142.871 223.38 143.196C222.718 143.521 221.981 143.601 221.276 143.424V143.386Z" stroke="#222323" stroke-width="2" stroke-linecap="round" stroke-linejoin="round"/>
<path d="M218.327 142.778L219.802 143.516" stroke="#222323" stroke-width="2" stroke-linecap="round" stroke-linejoin="round"/>
<path d="M221.277 111.81L208.742 106.648" stroke="#222323" stroke-width="2" stroke-linecap="round" stroke-linejoin="round"/>
<path d="M212.428 105.173L224.963 111.072" stroke="#222323" stroke-width="2" stroke-linecap="round" stroke-linejoin="round"/>
<path d="M213.903 190.706V165.399L218.327 164.162V190.628" stroke="#222323" stroke-width="2" stroke-linecap="round" stroke-linejoin="round"/>
<path d="M213.903 165.636L200.631 161.212" stroke="#222323" stroke-width="2" stroke-linecap="round" stroke-linejoin="round"/>
<path d="M205.055 159L218.327 164.161" stroke="#222323" stroke-width="2" stroke-linecap="round" stroke-linejoin="round"/>
<path d="M221.276 191.107V162.438L224.963 161.212V176.08V191.443" stroke="#222323" stroke-width="2" stroke-linecap="round" stroke-linejoin="round"/>
<path d="M219.802 232.257L220.553 231.943L237.872 224.624C239.235 226.471 240.658 227.493 238.874 229.772L236.87 230.636L227.699 234.566L219.832 237.896" stroke="#222323" stroke-width="2" stroke-linecap="round" stroke-linejoin="round"/>
<path d="M212.428 234.947L212.468 234.937L214.64 234.209" stroke="#222323" stroke-width="2" stroke-linecap="round" stroke-linejoin="round"/>
<path d="M167.565 212.503L166.743 214.86C166.125 215.399 165.361 215.717 164.56 215.768C163.76 215.82 162.964 215.602 162.289 215.146L162.354 214.949L163.718 211.003L172.786 184.807H172.936L176.541 185.083H177.036L169.471 206.91L167.565 212.503Z" stroke="#222323" stroke-width="2" stroke-linecap="round" stroke-linejoin="round"/>
<path d="M221.277 162.687L208.742 158.263" stroke="#222323" stroke-width="2" stroke-linecap="round" stroke-linejoin="round"/>
<path d="M212.428 156.051L224.963 161.212" stroke="#222323" stroke-width="2" stroke-linecap="round" stroke-linejoin="round"/>
<path d="M157.864 176.696L177.035 184.807" stroke="#222323" stroke-width="2" stroke-linecap="round" stroke-linejoin="round"/>
<path d="M161.579 214.301L145.33 207.343L146.336 204.338L155.385 177.434L172.612 184.797" stroke="#222323" stroke-width="2" stroke-linecap="round" stroke-linejoin="round"/>
<path d="M205.055 221.675L205.299 222.092L207.852 226.409L208.39 227.329L211.608 232.764L213.056 235.202L214.64 237.896" stroke="#222323" stroke-width="2" stroke-linecap="round" stroke-linejoin="round"/>
<path d="M214.64 246.745L202.058 225.02L200.631 222.555L200.68 222.506L202.226 220.938" stroke="#222323" stroke-width="2" stroke-linecap="round" stroke-linejoin="round"/>
<path d="M185.146 215.776L185.184 215.794L200.547 222.375L200.631 222.412" stroke="#222323" stroke-width="2" stroke-linecap="round" stroke-linejoin="round"/>
<path d="M196.207 240.846L211.511 247.576L214.64 248.957" stroke="#222323" stroke-width="2" stroke-linecap="round" stroke-linejoin="round"/>
<path d="M206.529 191.443V168.332L210.953 167.111V190.955" stroke="#222323" stroke-width="2" stroke-linecap="round" stroke-linejoin="round"/>
<path d="M206.53 168.586L193.995 164.162" stroke="#222323" stroke-width="2" stroke-linecap="round" stroke-linejoin="round"/>
<path d="M198.418 161.949L210.953 167.111" stroke="#222323" stroke-width="2" stroke-linecap="round" stroke-linejoin="round"/>
<path d="M199.156 192.918V171.24L203.58 170.06V191.899" stroke="#222323" stroke-width="2" stroke-linecap="round" stroke-linejoin="round"/>
<path d="M199.156 170.798L186.621 166.374" stroke="#222323" stroke-width="2" stroke-linecap="round" stroke-linejoin="round"/>
<path d="M191.045 164.162L203.58 170.06" stroke="#222323" stroke-width="2" stroke-linecap="round" stroke-linejoin="round"/>
<path d="M191.604 254.838C191.417 254.832 191.23 254.812 191.045 254.779V222.939L194.452 221.967L195.469 221.675V252.921C195.297 253.181 195.096 253.423 194.869 253.641C194.459 254.069 193.951 254.401 193.384 254.608C192.818 254.816 192.208 254.894 191.604 254.838V254.838Z" stroke="#222323" stroke-width="2" stroke-linecap="round" stroke-linejoin="round"/>
<path d="M188.833 253.381L191.045 254.118" stroke="#222323" stroke-width="2" stroke-linecap="round" stroke-linejoin="round"/>
<path d="M191.045 222.412L178.51 217.988" stroke="#222323" stroke-width="2" stroke-linecap="round" stroke-linejoin="round"/>
<path d="M182.934 216.513L195.469 221.675" stroke="#222323" stroke-width="2" stroke-linecap="round" stroke-linejoin="round"/>
<path d="M184.679 257.8C184.342 257.816 184.003 257.793 183.671 257.731V225.842L188.095 224.624V255.88C187.852 256.241 187.561 256.568 187.229 256.855C186.529 257.463 185.621 257.8 184.679 257.8V257.8Z" stroke="#222323" stroke-width="2" stroke-linecap="round" stroke-linejoin="round"/>
<path d="M181.459 256.33L183.672 257.067" stroke="#222323" stroke-width="2" stroke-linecap="round" stroke-linejoin="round"/>
<path d="M183.672 225.362L171.137 220.938" stroke="#222323" stroke-width="2" stroke-linecap="round" stroke-linejoin="round"/>
<path d="M175.561 219.463L188.095 224.624" stroke="#222323" stroke-width="2" stroke-linecap="round" stroke-linejoin="round"/>
<path d="M176.298 253.04V228.765L180.722 227.574V258.149C180.315 258.772 179.738 259.282 179.052 259.626C178.872 259.721 178.682 259.797 178.485 259.855L178.252 259.922C178.014 259.978 177.769 260.01 177.523 260.017" stroke="#222323" stroke-width="2" stroke-linecap="round" stroke-linejoin="round"/>
<path d="M176.298 228.311L163.763 223.149" stroke="#222323" stroke-width="2" stroke-linecap="round" stroke-linejoin="round"/>
<path d="M167.45 221.675L167.521 221.706L180.722 227.574" stroke="#222323" stroke-width="2" stroke-linecap="round" stroke-linejoin="round"/>
<path d="M168.925 253.381V230.996L172.612 229.786V253.284" stroke="#222323" stroke-width="2" stroke-linecap="round" stroke-linejoin="round"/>
<path d="M168.925 231.26L156.39 226.099" stroke="#222323" stroke-width="2" stroke-linecap="round" stroke-linejoin="round"/>
<path d="M160.077 224.624L160.278 224.707L172.612 229.785" stroke="#222323" stroke-width="2" stroke-linecap="round" stroke-linejoin="round"/>
<path d="M191.782 196.605V174.233L196.206 173.01V194.546" stroke="#222323" stroke-width="2" stroke-linecap="round" stroke-linejoin="round"/>
<path d="M191.782 173.747L179.248 169.323" stroke="#222323" stroke-width="2" stroke-linecap="round" stroke-linejoin="round"/>
<path d="M183.671 167.111L196.206 173.01" stroke="#222323" stroke-width="2" stroke-linecap="round" stroke-linejoin="round"/>
<path d="M186.904 208.338C186.847 208.348 186.789 208.348 186.732 208.338C186.208 208.424 185.671 208.424 185.146 208.338V177.15L189.571 175.959V198.263" stroke="#222323" stroke-width="2" stroke-linecap="round" stroke-linejoin="round"/>
<path d="M185.146 176.697L172.611 171.535" stroke="#222323" stroke-width="2" stroke-linecap="round" stroke-linejoin="round"/>
<path d="M176.298 170.06L189.571 175.959" stroke="#222323" stroke-width="2" stroke-linecap="round" stroke-linejoin="round"/>
<path d="M179.798 210.34C179.151 210.62 178.45 210.687 177.773 210.535V178.66L181.46 177.434V208.647C181.072 209.397 180.491 209.989 179.798 210.34Z" stroke="#222323" stroke-width="2" stroke-linecap="round" stroke-linejoin="round"/>
<path d="M177.773 178.909L164.5 173.747" stroke="#222323" stroke-width="2" stroke-linecap="round" stroke-linejoin="round"/>
<path d="M168.925 172.272L168.973 172.291L181.46 177.434" stroke="#222323" stroke-width="2" stroke-linecap="round" stroke-linejoin="round"/>
<path d="M161.551 252.762V233.943L165.975 232.735V253.381" stroke="#222323" stroke-width="2" stroke-linecap="round" stroke-linejoin="round"/>
<path d="M161.551 234.21L149.152 229.1L149.016 229.048" stroke="#222323" stroke-width="2" stroke-linecap="round" stroke-linejoin="round"/>
<path d="M153.44 227.574L153.795 227.721L165.975 232.735" stroke="#222323" stroke-width="2" stroke-linecap="round" stroke-linejoin="round"/>
<path d="M149.753 171.459V139.562L154.178 138.354V169.598C153.702 170.343 152.993 170.923 152.153 171.255C151.388 171.537 150.557 171.607 149.753 171.459V171.459Z" stroke="#222323" stroke-width="2" stroke-linecap="round" stroke-linejoin="round"/>
<path d="M129.845 137.617V149.435V163.948L148.279 171.535" stroke="#222323" stroke-width="2" stroke-linecap="round" stroke-linejoin="round"/>
<path d="M149.754 139.829L137.219 134.667" stroke="#222323" stroke-width="2" stroke-linecap="round" stroke-linejoin="round"/>
<path d="M141.643 133.193L154.178 138.354" stroke="#222323" stroke-width="2" stroke-linecap="round" stroke-linejoin="round"/>
<path d="M157.127 168.505V136.632L160.814 135.405V166.645C160.419 167.393 159.83 167.976 159.13 168.31C158.491 168.591 157.797 168.659 157.127 168.505V168.505Z" stroke="#222323" stroke-width="2" stroke-linecap="round" stroke-linejoin="round"/>
<path d="M154.178 167.111L155.652 168.586" stroke="#222323" stroke-width="2" stroke-linecap="round" stroke-linejoin="round"/>
<path d="M157.127 136.88L144.592 131.718" stroke="#222323" stroke-width="2" stroke-linecap="round" stroke-linejoin="round"/>
<path d="M148.279 130.243L160.814 135.405" stroke="#222323" stroke-width="2" stroke-linecap="round" stroke-linejoin="round"/>
<path d="M233.812 222.412L237.498 224.624" stroke="#222323" stroke-width="2" stroke-linecap="round" stroke-linejoin="round"/>
<path d="M214.64 231.26L211.691 232.735" stroke="#222323" stroke-width="2" stroke-linecap="round" stroke-linejoin="round"/>
<path d="M235.93 219.463C236.057 219.908 236.055 220.378 235.923 220.823C235.792 221.267 235.537 221.668 235.185 221.984L234.204 222.378L219.802 228.311" stroke="#222323" stroke-width="2" stroke-linecap="round" stroke-linejoin="round"/>
<path d="M219.802 223.149L222.751 222.412" stroke="#222323" stroke-width="2" stroke-linecap="round" stroke-linejoin="round"/>
<path d="M209.479 228.311L210.486 227.743L214.64 225.361" stroke="#222323" stroke-width="2" stroke-linecap="round" stroke-linejoin="round"/>
<path d="M214.64 223.149L207.319 226.089L207.267 226.099" stroke="#222323" stroke-width="2" stroke-linecap="round" stroke-linejoin="round"/>
<path d="M205.055 221.675H205.076H205.792" stroke="#222323" stroke-width="2" stroke-linecap="round" stroke-linejoin="round"/>
<path d="M169.662 206.928L177.036 210.614" stroke="#222323" stroke-width="2" stroke-linecap="round" stroke-linejoin="round"/>
<path d="M235.186 271.077C235.563 271.439 235.892 271.852 236.164 272.305C236.539 272.917 236.745 273.625 236.761 274.351C236.761 279.058 227.851 282.875 216.857 282.875C205.864 282.875 197.032 279.089 196.944 274.413" stroke="#222323" stroke-width="2" stroke-linecap="round" stroke-linejoin="round"/>
<path d="M196.944 274.027C196.964 273.343 197.277 272.678 197.848 272.106C198.218 271.729 198.657 271.384 199.156 271.077" stroke="#222323" stroke-width="2" stroke-linecap="round" stroke-linejoin="round"/>
<path d="M235.732 268.865C235.852 269.103 235.93 269.359 235.965 269.623C236.003 269.802 236.023 269.984 236.023 270.167C236.023 270.521 235.961 270.873 235.838 271.206C234.613 274.877 226.913 277.713 217.598 277.713C208.284 277.713 200.573 274.877 199.348 271.206C199.226 270.873 199.163 270.521 199.164 270.167C199.153 270.047 199.153 269.927 199.164 269.807" stroke="#222323" stroke-width="2" stroke-linecap="round" stroke-linejoin="round"/>
<path d="M219.802 262.966C227.672 263.435 233.879 265.78 235.286 268.865" stroke="#222323" stroke-width="2" stroke-linecap="round" stroke-linejoin="round"/>
<path d="M199.156 269.602C199.591 266.225 206.162 263.468 214.64 262.966" stroke="#222323" stroke-width="2" stroke-linecap="round" stroke-linejoin="round"/>
<path d="M247.821 203.59C247.815 204.76 247.478 205.903 246.851 206.88C246.395 207.616 245.846 208.286 245.221 208.875C242.504 211.458 237.826 213.582 231.985 214.938C227.56 215.939 223.047 216.467 218.517 216.513C218.09 216.513 217.663 216.513 217.226 216.513C208.095 216.513 199.895 214.828 194.277 212.166C192.328 211.294 190.534 210.094 188.969 208.616C188.766 208.406 188.581 208.207 188.397 207.997C188.099 207.656 187.829 207.289 187.591 206.9C186.964 205.923 186.627 204.78 186.621 203.61C186.68 202.574 186.954 201.563 187.424 200.644C187.894 199.726 188.55 198.921 189.348 198.285C190.129 197.573 190.974 196.939 191.871 196.39C193.227 195.563 194.649 194.856 196.121 194.276C197.091 193.877 198.188 193.498 199.313 193.149C200.652 192.75 202.069 192.381 203.554 192.072C204.65 191.833 205.776 191.633 206.94 191.454C208.318 191.255 209.735 191.085 211.19 190.955C212.025 190.896 212.859 190.836 213.723 190.796C214.887 190.736 216.062 190.706 217.265 190.706H217.963C218.934 190.706 219.904 190.706 220.874 190.786C222.32 190.856 223.786 190.975 225.115 191.125C227.153 191.364 229.103 191.673 230.937 192.062C233.693 192.627 236.392 193.451 239.001 194.525C241.269 195.43 243.37 196.729 245.211 198.364C245.978 198.998 246.608 199.791 247.057 200.692C247.507 201.592 247.767 202.579 247.821 203.59V203.59Z" stroke="#222323" stroke-width="2" stroke-linecap="round" stroke-linejoin="round"/>
<path d="M247.821 203.241V209.877" stroke="#222323" stroke-width="2" stroke-linecap="round" stroke-linejoin="round"/>
<path d="M186.621 203.241V208.538V209.253V209.877" stroke="#222323" stroke-width="2" stroke-linecap="round" stroke-linejoin="round"/>
<path d="M214.64 222.46V271.619C214.99 271.957 215.4 272.213 215.845 272.37C216.29 272.528 216.76 272.584 217.225 272.535C218.164 272.572 219.082 272.229 219.802 271.571V222.412" stroke="#222323" stroke-width="2" stroke-linecap="round" stroke-linejoin="round"/>
<path d="M236.761 274.027L236.232 272.176L235.494 269.609L235.286 268.902V268.865" stroke="#222323" stroke-width="2" stroke-linecap="round" stroke-linejoin="round"/>
<path d="M196.944 274.027V274.018L197.79 272.055L198.805 269.719V269.692L199.156 268.865" stroke="#222323" stroke-width="2" stroke-linecap="round" stroke-linejoin="round"/>
<path d="M178.51 275.501V265.671V261.22V260.038V260.029V253.381" stroke="#222323" stroke-width="2" stroke-linecap="round" stroke-linejoin="round"/>
<path d="M245.609 215.776L245.609 234.328L245.609 239.65L245.609 240.108" stroke="#222323" stroke-width="3" stroke-linecap="round" stroke-linejoin="round"/>
<path d="M175.561 268.128V312.42C175.705 312.628 175.918 312.801 176.178 312.922C176.437 313.043 176.733 313.106 177.035 313.106C177.337 313.106 177.633 313.043 177.893 312.922C178.152 312.801 178.365 312.628 178.51 312.42V275.356" stroke="#222323" stroke-width="2" stroke-linecap="round" stroke-linejoin="round"/>
<path d="M163.763 280.663V327.18C163.646 327.386 163.484 327.556 163.29 327.673C163.096 327.791 162.879 327.853 162.657 327.853C162.436 327.853 162.218 327.791 162.025 327.673C161.831 327.556 161.668 327.386 161.551 327.18V281.805" stroke="#222323" stroke-width="2" stroke-linecap="round" stroke-linejoin="round"/>
<path d="M108.462 274.554V308.757C108.345 308.959 108.181 309.127 107.988 309.243C107.795 309.358 107.577 309.419 107.356 309.419C107.135 309.419 106.918 309.358 106.724 309.243C106.531 309.127 106.368 308.959 106.25 308.757V272.552" stroke="#222323" stroke-width="2" stroke-linecap="round" stroke-linejoin="round"/>
<path d="M144.592 189.901L142.033 188.494C135.171 189.339 128.561 191.632 122.631 195.224C122.193 195.479 121.765 195.765 121.317 196.04C114.429 200.537 108.747 206.684 104.775 213.936L107.403 215.776" stroke="#222323" stroke-width="2" stroke-linecap="round" stroke-linejoin="round"/>
<path d="M104.775 213.564L106.197 271.31V272.275C106.946 272.767 107.803 273.307 108.767 273.876C109.416 274.249 110.088 274.634 110.782 275.033C114.681 277.172 118.779 278.933 123.019 280.29C125.983 281.254 129.012 282.011 132.083 282.556C133.309 282.778 134.556 282.962 135.841 283.116C144.094 284.104 152.46 283.614 160.539 281.669C161.824 281.36 162.973 281.042 163.995 280.705L164.336 280.608C168.179 278.259 171.466 275.118 173.974 271.397C174.76 270.229 175.463 269.007 176.077 267.741C176.408 267.076 176.69 266.43 176.953 265.812C177.604 264.193 178.124 262.526 178.51 260.826C178.51 260.826 178.51 260.749 178.51 260.71" stroke="#222323" stroke-width="2" stroke-linecap="round" stroke-linejoin="round"/>
<path d="M138.933 280.307C143.038 280.727 147.173 280.775 151.287 280.452C153.038 280.356 166.002 279.391 173.625 268.428C174.031 267.85 174.399 267.271 174.737 266.702C175.95 264.627 176.877 262.399 177.494 260.078C177.494 260.02 177.494 259.953 177.543 259.895C178.13 257.691 178.455 255.425 178.51 253.145V253.145C178.51 252.923 178.51 252.711 178.51 252.518C177.901 252.634 177.214 252.759 176.43 252.875C175.647 252.991 174.495 253.126 173.334 253.203C172.038 253.29 170.626 253.348 169.088 253.299C168.12 253.299 167.075 253.222 166.011 253.116C164.657 252.981 163.235 252.788 161.764 252.499C160.294 252.21 158.862 251.843 157.353 251.381C152.037 249.732 147.095 247.066 142.803 243.532L143.248 231.17C143.316 229.329 143.374 227.487 143.441 225.645C143.699 218.253 143.961 210.86 144.225 203.468C144.393 198.968 144.554 194.468 144.709 189.969C137.992 190.892 131.534 193.169 125.728 196.661L125.215 196.969C117.916 201.492 111.895 207.798 107.725 215.289C108.37 233.603 109.014 251.924 109.659 270.251C116.333 274.407 123.672 277.392 131.358 279.073C132.326 279.295 133.371 279.488 134.406 279.671C135.944 279.931 137.444 280.134 138.895 280.279" stroke="#222323" stroke-width="2" stroke-linecap="round" stroke-linejoin="round"/>
<path d="M170.391 142.095L168.717 135.36L166.712 127.209L187.575 118.446H188.091L190.173 126.865L190.485 128.137L193.365 139.809L196.206 151.346L175.071 159" stroke="#222323" stroke-width="2" stroke-linecap="round" stroke-linejoin="round"/>
<path d="M170.575 142.041L168.188 154.835L174.824 159L170.575 142.079" stroke="#222323" stroke-width="2" stroke-linecap="round" stroke-linejoin="round"/>
<path d="M180.607 130.529C177.481 131.539 175.656 135.225 176.507 138.729C177.717 143.506 185.178 148.677 185.178 148.677C185.178 148.677 189.072 139.78 187.863 135.013C186.982 131.498 183.763 129.488 180.586 130.508L180.607 130.529ZM182.79 139.153C182.515 139.235 182.226 139.258 181.941 139.223C181.656 139.187 181.383 139.093 181.137 138.946C180.892 138.8 180.68 138.604 180.517 138.372C180.353 138.139 180.24 137.876 180.187 137.598C180.025 137.018 180.083 136.399 180.351 135.858C180.619 135.317 181.078 134.891 181.642 134.659C181.92 134.578 182.213 134.556 182.501 134.595C182.789 134.634 183.065 134.732 183.311 134.884C183.557 135.036 183.767 135.238 183.929 135.476C184.09 135.714 184.198 135.983 184.245 136.265C184.398 136.84 184.335 137.45 184.067 137.982C183.8 138.515 183.346 138.934 182.79 139.163V139.153Z" fill="white"/>
<path d="M246.853 206.928C247.479 207.857 247.816 208.947 247.821 210.063C247.765 211.033 247.501 211.981 247.047 212.845C246.593 213.709 245.96 214.468 245.187 215.075C242.486 217.29 239.337 218.914 235.949 219.839C231.732 221.105 227.382 221.895 222.983 222.193C221.124 222.345 219.207 222.412 217.251 222.412H216.447C212.879 222.392 209.317 222.099 205.795 221.535L204.895 221.383C203.926 221.221 203.055 221.03 202.174 220.83C195.812 219.382 190.873 217.019 188.385 214.227C187.306 213.106 186.682 211.634 186.632 210.091C186.617 209.891 186.617 209.691 186.632 209.491C186.66 209.257 186.702 209.025 186.758 208.795C186.937 208.142 187.221 207.521 187.6 206.956" stroke="#222323" stroke-width="2" stroke-linecap="round" stroke-linejoin="round"/>
</svg>
