<svg xmlns="http://www.w3.org/2000/svg" width="468.124" height="448.979" viewBox="0 0 468.124 448.979">
  <g id="Group_12" data-name="Group 12" transform="translate(-709.916 -2533.319)">
    <path id="Path_725" data-name="Path 725" d="M-968.071,9167.427c-2.925,222.276,478.186,183.962,467.95,59.81s-118.815-107.7-149.159-195.808S-965.146,8945.15-968.071,9167.427Z" transform="translate(1678 -6346)" fill="#024a59"/>
    <g id="Layer_2" data-name="Layer 2" transform="translate(831.867 2533.5)">
      <g id="Layer_4" data-name="Layer 4" transform="translate(0.5 0.5)">
        <path id="Path_1056" data-name="Path 1056" d="M46.826,242.615l-9.006,4.541a5.506,5.506,0,0,0,1.892-4.654V225.17l6.376,17.577a3.329,3.329,0,0,0,.738-.132Z" transform="translate(32.792 199.92)" fill="#222323"/>
        <path id="Path_1057" data-name="Path 1057" d="M10.649,136.558l3.519,9.706L5.6,141.572a5.071,5.071,0,0,0-3.387-.7h0l8.609-4.352Z" transform="translate(1.025 120.839)" fill="#222323"/>
        <path id="Path_1058" data-name="Path 1058" d="M136,38.72V237.709c-3.235,6.849-11.088,9.9-21.967,10.406V49.126C131,47.234,133.045,43.166,136,38.72Z" transform="translate(100.776 33.595)" fill="#c0505a"/>
        <path id="Path_1059" data-name="Path 1059" d="M68.136.5,196.55,72.815,174.583,83.221,68.136,23.3,46.15,10.906Z" transform="translate(40.223 -0.5)" fill="#f2f2f2"/>
        <path id="Path_1060" data-name="Path 1060" d="M114,49.126,135.967,38.72C133.072,43.166,131.029,47.234,114,49.126Z" transform="translate(100.75 33.595)" fill="#f2f2f2"/>
        <path id="Path_1061" data-name="Path 1061" d="M174.583,78.315V277.3l-6.206-13.112V82.723L51.259,16.8,46.15,6,68.136,18.393Z" transform="translate(40.223 4.406)" fill="#f2f2f2"/>
        <path id="Path_1062" data-name="Path 1062" d="M110.75,142.46l6.206,13.112-6.206-3.33Z" transform="translate(97.85 126.138)" fill="#f2f2f2"/>
        <path id="Path_1063" data-name="Path 1063" d="M121.116,153.188v7.757c-3.254,6.849-11.106,9.9-21.986,10.406V141.4Z" transform="translate(87.484 125.192)" fill="#c0505a"/>
        <path id="Path_1064" data-name="Path 1064" d="M121.116,164.351v9.782L99.13,162.346V117.92Z" transform="translate(87.484 104.246)" fill="#c0505a"/>
        <path id="Path_1065" data-name="Path 1065" d="M121.116,46.55V228.018L99.13,181.587V56.975C116.159,55.083,118.164,51.015,121.116,46.55Z" transform="translate(87.484 40.58)" fill="#c0505a"/>
        <path id="Path_1066" data-name="Path 1066" d="M165.969,77.63,143.983,88.055l-80.432-45.3L48.85,11.71Z" transform="translate(42.631 9.5)" fill="#f2f2f2"/>
        <path id="Path_1067" data-name="Path 1067" d="M99.13,56.975,121.116,46.55C118.164,51.015,116.159,55.083,99.13,56.975Z" transform="translate(87.484 40.58)" fill="#f2f2f2"/>
        <path id="Path_1068" data-name="Path 1068" d="M102.752,143.336v29.951L95.07,157.053V139.23Z" transform="translate(83.863 123.256)" fill="#f2f2f2"/>
        <path id="Path_1069" data-name="Path 1069" d="M102.752,125.574V170l-7.682-4.106V109.34Z" transform="translate(83.863 96.592)" fill="#f2f2f2"/>
        <path id="Path_1070" data-name="Path 1070" d="M137.052,73.416V198.028l-7.682-16.234V78.619l-66.6-37.5-6.149-13Z" transform="translate(49.563 24.139)" fill="#f2f2f2"/>
        <path id="Path_1071" data-name="Path 1071" d="M95.07,148.65l7.682,16.234-7.682-4.125Z" transform="translate(83.863 131.66)" fill="#f2f2f2"/>
        <path id="Path_1072" data-name="Path 1072" d="M105.436,160.6v9.366c-3.235,6.868-11.088,9.9-21.986,10.406V148.83Z" transform="translate(73.497 131.82)" fill="#c0505a"/>
        <path id="Path_1073" data-name="Path 1073" d="M105.436,162.611V174.72L83.45,162.951V133l10.671,5.733Z" transform="translate(73.497 117.699)" fill="#c0505a"/>
        <path id="Path_1074" data-name="Path 1074" d="M100.4,142.085v17.823L89.09,136.03Z" transform="translate(78.528 120.402)" fill="#c0505a"/>
        <path id="Path_1075" data-name="Path 1075" d="M105.436,131.24v56.554l-11.315-6.055L83.45,159.167V84.79Z" transform="translate(73.497 74.692)" fill="#c0505a"/>
        <path id="Path_1076" data-name="Path 1076" d="M105.436,54.81V157.984L83.45,111.534V65.216C100.479,63.324,102.484,59.256,105.436,54.81Z" transform="translate(73.497 47.948)" fill="#c0505a"/>
        <path id="Path_1077" data-name="Path 1077" d="M126.471,72.491,104.485,82.9,74.59,66.058,59.87,34.99Z" transform="translate(52.462 30.267)" fill="#f2f2f2"/>
        <path id="Path_1078" data-name="Path 1078" d="M83.45,65.216,105.436,54.81C102.484,59.256,100.479,63.324,83.45,65.216Z" transform="translate(73.497 47.948)" fill="#f2f2f2"/>
        <path id="Path_1079" data-name="Path 1079" d="M94.121,146.672,83.45,140.939V124.1Z" transform="translate(73.497 109.759)" fill="#c0505a"/>
        <path id="Path_1080" data-name="Path 1080" d="M92.87,153.888v31.5L72.89,143.16Z" transform="translate(64.077 126.762)" fill="#f2f2f2"/>
        <path id="Path_1081" data-name="Path 1081" d="M77.835,153.6,62.85,121.96l38.977,20.888V172.8l-19.98-10.728Z" transform="translate(55.12 107.85)" fill="#f2f2f2"/>
        <path id="Path_1082" data-name="Path 1082" d="M116.724,194.395v16.839L77.747,190.346l-31.6-66.752V45.3Z" transform="translate(40.223 39.465)" fill="#f2f2f2"/>
        <path id="Path_1083" data-name="Path 1083" d="M116.724,125.361v74.377L46.15,50.643V39.31L86.829,62.2Z" transform="translate(40.223 34.121)" fill="#f2f2f2"/>
        <path id="Path_1084" data-name="Path 1084" d="M97.545,68.249v46.318L67.65,51.41Z" transform="translate(59.402 44.915)" fill="#f2f2f2"/>
        <path id="Path_1085" data-name="Path 1085" d="M72.19,143.648l2.308-.719,7.379-2.27,2.308-.719h.189l2.27,1.211,9.233,4.938,19.98,42.231L79.909,169.1c6.887.851,11.788,1.438,12.317,1.438l-12.582-1.589L47.12,151.406,57,148.36l2.46-.776,2.46-.757,2.327-.719,5.487-1.7Z" transform="translate(41.088 123.89)" fill="#f2f2f2"/>
        <path id="Path_1086" data-name="Path 1086" d="M77.243,147.156l-9.233-4.938v-1.911l5.222-1.627Z" transform="translate(59.723 122.766)" fill="#f2f2f2"/>
        <path id="Path_1087" data-name="Path 1087" d="M64.35,155.24l12.582,1.589c-.53,0-5.43-.587-12.317-1.438Z" transform="translate(56.458 137.538)" fill="#222323"/>
        <path id="Path_1088" data-name="Path 1088" d="M98.334,215.337l-2.308-1.23-7.379-3.954L86.338,208.9l-2.46-1.306-5.487-2.952L76.064,203.4l-2.46-1.306-2.46-1.324L68.7,199.462l-4.787-2.573-9.933-5.317L31.26,179.387V55.23l28.173,59.505v49.818l31.6,16.934,14.985,31.635-5.222,1.627-2.27.7Z" transform="translate(26.94 48.323)" fill="#f2f2f2"/>
        <path id="Path_1089" data-name="Path 1089" d="M69.08,139.54v1.911l-2.27-1.211Z" transform="translate(58.653 123.533)" fill="#f2f2f2"/>
        <path id="Path_1090" data-name="Path 1090" d="M86.829,72.953,46.15,50.059V27.26L72.109,41.886Z" transform="translate(40.223 23.372)" fill="#f2f2f2"/>
        <path id="Path_1091" data-name="Path 1091" d="M66.71,139.85l.189.114-.189.057Z" transform="translate(58.564 123.809)" fill="#f2f2f2"/>
        <path id="Path_1092" data-name="Path 1092" d="M67.8,140.43v.17l-2.308.719V139.2Z" transform="translate(57.475 123.23)" fill="#f2f2f2"/>
        <path id="Path_1093" data-name="Path 1093" d="M68.969,141.064v2.119l-7.379,2.27V137.11Z" transform="translate(53.996 121.365)" fill="#f2f2f2"/>
        <path id="Path_1094" data-name="Path 1094" d="M86.277,158l.265.151c-14.228-1.779-36.9-4.711-46.772-6Z" transform="translate(34.531 134.782)" fill="#222323"/>
        <path id="Path_1095" data-name="Path 1095" d="M46.15,86.68l31.6,66.752L46.15,136.5Z" transform="translate(40.223 76.378)" fill="#f2f2f2"/>
        <path id="Path_1096" data-name="Path 1096" d="M62.678,137.7v8.344l-2.308.719V136.45Z" transform="translate(52.908 120.776)" fill="#f2f2f2"/>
        <path id="Path_1097" data-name="Path 1097" d="M61.53,137.066v10.312l-2.46.757V135.76Z" transform="translate(51.748 120.161)" fill="#f2f2f2"/>
        <path id="Path_1098" data-name="Path 1098" d="M65.96,33.374l6.149,13L46.15,31.747V22.23Z" transform="translate(40.223 18.885)" fill="#f2f2f2"/>
        <path id="Path_1099" data-name="Path 1099" d="M61.657,137.152v12.374l-5.487,1.7V134.2Z" transform="translate(49.161 118.769)" fill="#f2f2f2"/>
        <path id="Path_1100" data-name="Path 1100" d="M51.259,13.066l14.7,31.049L46.15,32.97V10.19Z" transform="translate(40.223 8.144)" fill="#f2f2f2"/>
        <path id="Path_1101" data-name="Path 1101" d="M57.267,134.789v17.029l-2.327.719v-19Z" transform="translate(48.064 118.18)" fill="#f2f2f2"/>
        <path id="Path_1102" data-name="Path 1102" d="M56.1,134.156v19l-2.46.757V132.85Z" transform="translate(46.904 117.565)" fill="#f2f2f2"/>
        <path id="Path_1103" data-name="Path 1103" d="M54.8,133.474v21.059l-2.46.776V132.15Z" transform="translate(45.745 116.941)" fill="#f2f2f2"/>
        <path id="Path_1104" data-name="Path 1104" d="M58.645,132.607l4.787,2.573,2.441,1.306v23.159L56,162.691,37.17,152.606l10.709-23.764.833-1.551Z" transform="translate(32.212 112.605)" fill="#f2f2f2"/>
        <path id="Path_1105" data-name="Path 1105" d="M46.15,6l5.109,10.8L46.15,13.928Z" transform="translate(40.223 4.406)" fill="#f2f2f2"/>
        <path id="Path_1106" data-name="Path 1106" d="M59.433,58.119v78.294L31.26,76.907V30.93L52.129,42.661Z" transform="translate(26.94 26.646)" fill="#f2f2f2"/>
        <path id="Path_1107" data-name="Path 1107" d="M49.593,41.255V52.588L42.29,37.13Z" transform="translate(36.779 32.176)" fill="#f2f2f2"/>
        <path id="Path_1108" data-name="Path 1108" d="M56.534,33.1V55.9l-7.3-4.125L34.51,20.71Z" transform="translate(29.839 17.529)" fill="#f2f2f2"/>
        <path id="Path_1109" data-name="Path 1109" d="M59.433,29.714v9.517L37.409,26.838l-6.149-13L53.227,26.214Z" transform="translate(26.94 11.4)" fill="#f2f2f2"/>
        <path id="Path_1110" data-name="Path 1110" d="M53.227,8.34l6.206,3.5v22.78l-6.206-3.5L31.26,18.746Z" transform="translate(26.94 6.494)" fill="#f2f2f2"/>
        <path id="Path_1111" data-name="Path 1111" d="M74.671,322.031h0a3.333,3.333,0,0,1-.757.132l-6.376-17.577V186.181a14.645,14.645,0,0,0-6.622-11.788L10.189,146.618,6.67,136.911l.151-.114,1.078-.53a4.9,4.9,0,0,1,3.784.605l49.364,27.075,3.406,1.892h0l6.452,3.538a14.607,14.607,0,0,1,6.622,11.788V316.922C77.509,319.666,76.393,321.52,74.671,322.031Z" transform="translate(5.004 120.485)" fill="#222323"/>
        <path id="Path_1112" data-name="Path 1112" d="M45.248,208.942l22.724,12.185-.833,1.551L56.43,246.442,15.58,224.551V22.1L45.248,84.784Z" transform="translate(12.952 18.769)" fill="#f2f2f2"/>
        <path id="Path_1113" data-name="Path 1113" d="M52.129,53.41,31.26,41.679V18.88l6.149,3.462Z" transform="translate(26.94 15.896)" fill="#f2f2f2"/>
        <path id="Path_1114" data-name="Path 1114" d="M38.6,152l2.214.284Z" transform="translate(33.488 134.648)" fill="#222323"/>
        <path id="Path_1115" data-name="Path 1115" d="M41.62,251.7a4.333,4.333,0,0,1-4.749-.132l-3.311-1.892.492-.889c3.311,1.892,6,0,6-4.106v-24.6l3.444,9.46v17.331A5.506,5.506,0,0,1,41.62,251.7Z" transform="translate(28.992 195.38)" fill="#f2f2f2"/>
        <path id="Path_1116" data-name="Path 1116" d="M65.822,181.233V299.658l-3.444-9.46V191.9a13.244,13.244,0,0,0-6-10.652L14.566,158.32,8.53,141.67,59.2,169.446A14.645,14.645,0,0,1,65.822,181.233Z" transform="translate(6.663 125.433)" fill="#f2f2f2"/>
        <path id="Path_1117" data-name="Path 1117" d="M47.4,229.133l2.308,6.357,2.46,6.774,15.742,43.518v24.6c0,4.087-2.687,5.922-6,4.106l-53.6-29.535A13.244,13.244,0,0,1,2.33,274.277v-122.8c0-4.087,2.668-5.9,5.979-4.106L20.1,153.848Zm-9.593,63.025a5.26,5.26,0,0,0,0-7.4,5.26,5.26,0,0,0-7.322-1.079,5.26,5.26,0,0,0,0,7.4,5.26,5.26,0,0,0,7.322,1.078Z" transform="translate(1.132 129.906)" fill="#f2f2f2"/>
        <path id="Path_1118" data-name="Path 1118" d="M41.331,232.113l-2.308-6.357L11.72,150.47,53.535,173.4a13.245,13.245,0,0,1,6.017,10.652v98.255L43.809,238.792Z" transform="translate(9.509 133.283)" fill="#f2f2f2"/>
        <path id="Path_1119" data-name="Path 1119" d="M31.26,13.84l6.149,13L31.26,23.376Z" transform="translate(26.94 11.4)" fill="#f2f2f2"/>
        <path id="Path_1120" data-name="Path 1120" d="M63.544,321.372l-.492.889L7.122,291.591A14.645,14.645,0,0,1,.5,279.8V144.048c0-2.971,1.287-4.863,3.235-5.2a5.071,5.071,0,0,1,3.387.7l8.571,4.692,6.036,16.65L9.941,154.417c-3.311-1.892-5.979,0-5.979,4.106v122.8a13.244,13.244,0,0,0,5.979,10.671Z" transform="translate(-0.5 122.866)" fill="#f2f2f2"/>
        <path id="Path_1121" data-name="Path 1121" d="M45.248,38.807V84.784L15.58,22.1,37.566,34.474Z" transform="translate(12.952 18.769)" fill="#f2f2f2"/>
        <path id="Path_1122" data-name="Path 1122" d="M37.566,16.59l7.682,4.333v22.8l-7.682-4.333L15.58,27.015Z" transform="translate(12.952 13.853)" fill="#f2f2f2"/>
        <path id="Path_1123" data-name="Path 1123" d="M25.258,220.655a5.26,5.26,0,0,1,0,7.4,5.26,5.26,0,0,1-7.341-1.078,5.26,5.26,0,0,1,0-7.4,5.26,5.26,0,0,1,7.341,1.078Z" transform="translate(13.681 194.01)" fill="#f2f2f2"/>
        <path id="Path_1124" data-name="Path 1124" d="M7.828,136.2l-1.078.53a2.876,2.876,0,0,1,1.078-.53Z" transform="translate(5.075 120.553)" fill="#f2f2f2"/>
        <path id="Path_1125" data-name="Path 1125" d="M68.136.614V.5L46.15,10.906" transform="translate(40.223 -0.5)" fill="none" stroke="#222323" stroke-linecap="round" stroke-linejoin="round" stroke-width="1"/>
        <path id="Path_1126" data-name="Path 1126" d="M164.161,282.21c10.879-.511,18.731-3.557,21.967-10.406V72.815L57.77.5" transform="translate(50.589 -0.5)" fill="none" stroke="#222323" stroke-linecap="round" stroke-linejoin="round" stroke-width="1"/>
        <path id="Path_1127" data-name="Path 1127" d="M158.012,268.13l6.206,3.33V72.472L57.77,12.55" transform="translate(50.589 10.249)" fill="none" stroke="#222323" stroke-linecap="round" stroke-linejoin="round" stroke-width="1"/>
        <path id="Path_1128" data-name="Path 1128" d="M68.136,18.393,46.15,6v7.928" transform="translate(40.223 4.406)" fill="none" stroke="#222323" stroke-linecap="round" stroke-linejoin="round" stroke-width="1"/>
        <path id="Path_1129" data-name="Path 1129" d="M136,38.72c-2.952,4.446-4.938,8.514-21.967,10.406" transform="translate(100.776 33.595)" fill="none" stroke="#222323" stroke-linecap="round" stroke-linejoin="round" stroke-width="1"/>
        <path id="Path_1130" data-name="Path 1130" d="M53.227,8.454V8.34L31.26,18.746" transform="translate(26.94 6.494)" fill="none" stroke="#222323" stroke-linecap="round" stroke-linejoin="round" stroke-width="1"/>
        <path id="Path_1131" data-name="Path 1131" d="M149.318,290.05c10.879-.511,18.731-3.557,21.986-10.406V80.636L54.185,14.716,49.076,11.84,42.87,8.34" transform="translate(37.297 6.494)" fill="none" stroke="#222323" stroke-linecap="round" stroke-linejoin="round" stroke-width="1"/>
        <path id="Path_1132" data-name="Path 1132" d="M141.636,275.185l7.682,4.125V80.321l-80.432-45.3L49.076,23.88l-6.206-3.5" transform="translate(37.297 17.234)" fill="none" stroke="#222323" stroke-linecap="round" stroke-linejoin="round" stroke-width="1"/>
        <path id="Path_1133" data-name="Path 1133" d="M53.227,26.214,31.26,13.84v9.536" transform="translate(26.94 11.4)" fill="none" stroke="#222323" stroke-linecap="round" stroke-linejoin="round" stroke-width="1"/>
        <path id="Path_1134" data-name="Path 1134" d="M121.116,46.55c-2.952,4.465-4.957,8.533-21.986,10.425" transform="translate(87.484 40.58)" fill="none" stroke="#222323" stroke-linecap="round" stroke-linejoin="round" stroke-width="1"/>
        <path id="Path_1135" data-name="Path 1135" d="M37.566,16.722V16.59L15.58,27.015" transform="translate(12.952 13.853)" fill="none" stroke="#222323" stroke-linecap="round" stroke-linejoin="round" stroke-width="1"/>
        <path id="Path_1136" data-name="Path 1136" d="M133.629,298.3c10.9-.511,18.75-3.538,21.986-10.406V88.9l-66.6-37.482L63.055,36.778,41.031,24.385l-6.149-3.462L27.2,16.59" transform="translate(23.318 13.853)" fill="none" stroke="#222323" stroke-linecap="round" stroke-linejoin="round" stroke-width="1"/>
        <path id="Path_1137" data-name="Path 1137" d="M97.755,268.327l35.874,19.223V88.562L103.734,71.722,63.055,48.828l-7.3-4.125L34.882,32.973,27.2,28.64" transform="translate(23.318 24.603)" fill="none" stroke="#222323" stroke-linecap="round" stroke-linejoin="round" stroke-width="1"/>
        <path id="Path_1138" data-name="Path 1138" d="M37.566,34.474,15.58,22.1V224.551l40.85,21.891,18.826,10.085,32.6,17.483" transform="translate(12.952 18.769)" fill="none" stroke="#222323" stroke-linecap="round" stroke-linejoin="round" stroke-width="1"/>
        <path id="Path_1139" data-name="Path 1139" d="M105.436,54.81c-2.952,4.446-4.957,8.514-21.986,10.406" transform="translate(73.497 47.948)" fill="none" stroke="#222323" stroke-linecap="round" stroke-linejoin="round" stroke-width="1"/>
        <path id="Path_1140" data-name="Path 1140" d="M59.07,134.74v25.448" transform="translate(51.748 119.251)" fill="none" stroke="#222323" stroke-linecap="round" stroke-linejoin="round" stroke-width="1"/>
        <path id="Path_1141" data-name="Path 1141" d="M60.37,135.43v25.448" transform="translate(52.908 119.866)" fill="none" stroke="#222323" stroke-linecap="round" stroke-linejoin="round" stroke-width="1"/>
        <path id="Path_1142" data-name="Path 1142" d="M61.59,136.12v25.448" transform="translate(53.996 120.482)" fill="none" stroke="#222323" stroke-linecap="round" stroke-linejoin="round" stroke-width="1"/>
        <path id="Path_1143" data-name="Path 1143" d="M65.49,138.09v25.467" transform="translate(57.475 122.239)" fill="none" stroke="#222323" stroke-linecap="round" stroke-linejoin="round" stroke-width="1"/>
        <path id="Path_1144" data-name="Path 1144" d="M66.71,138.81v25.448" transform="translate(58.564 122.882)" fill="none" stroke="#222323" stroke-linecap="round" stroke-linejoin="round" stroke-width="1"/>
        <path id="Path_1145" data-name="Path 1145" d="M68.01,139.47v25.448" transform="translate(59.723 123.47)" fill="none" stroke="#222323" stroke-linecap="round" stroke-linejoin="round" stroke-width="1"/>
        <path id="Path_1146" data-name="Path 1146" d="M48.52,129.1v25.448" transform="translate(42.337 114.22)" fill="none" stroke="#222323" stroke-linecap="round" stroke-linejoin="round" stroke-width="1"/>
        <path id="Path_1147" data-name="Path 1147" d="M51.05,130.45V155.9" transform="translate(44.594 115.424)" fill="none" stroke="#222323" stroke-linecap="round" stroke-linejoin="round" stroke-width="1"/>
        <path id="Path_1148" data-name="Path 1148" d="M52.34,131.14v25.448" transform="translate(45.745 116.04)" fill="none" stroke="#222323" stroke-linecap="round" stroke-linejoin="round" stroke-width="1"/>
        <path id="Path_1149" data-name="Path 1149" d="M53.64,131.88v25.467" transform="translate(46.904 116.7)" fill="none" stroke="#222323" stroke-linecap="round" stroke-linejoin="round" stroke-width="1"/>
        <path id="Path_1150" data-name="Path 1150" d="M54.94,132.57v25.448" transform="translate(48.064 117.315)" fill="none" stroke="#222323" stroke-linecap="round" stroke-linejoin="round" stroke-width="1"/>
        <path id="Path_1151" data-name="Path 1151" d="M56.17,133.17v25.448" transform="translate(49.161 117.85)" fill="none" stroke="#222323" stroke-linecap="round" stroke-linejoin="round" stroke-width="1"/>
        <line id="Line_60" data-name="Line 60" y1="0.151" x2="0.284" transform="translate(12.904 256.602)" fill="none" stroke="#222323" stroke-linecap="round" stroke-linejoin="round" stroke-width="1"/>
        <line id="Line_61" data-name="Line 61" y1="4.352" x2="8.609" transform="translate(3.217 257.283)" fill="none" stroke="#222323" stroke-linecap="round" stroke-linejoin="round" stroke-width="1"/>
        <path id="Path_1152" data-name="Path 1152" d="M50.707,128.11,40,151.874l-6,13.32" transform="translate(29.384 113.337)" fill="none" stroke="#c0505a" stroke-linecap="round" stroke-linejoin="round" stroke-width="1"/>
        <path id="Path_1153" data-name="Path 1153" d="M102.062,138.61l-.435.132L96.4,140.37l-2.27.7-.189.057-2.308.719-7.379,2.27-2.308.719-2.46.757L74,147.295l-2.327.719-2.46.757-2.46.776-9.877,3.046-20.7,6.414" transform="translate(31.329 122.703)" fill="none" stroke="#c0505a" stroke-linecap="round" stroke-linejoin="round" stroke-width="1"/>
        <path id="Path_1154" data-name="Path 1154" d="M99.9,159.72c-.53,0-5.43-.587-12.317-1.438-14.228-1.779-36.9-4.711-46.772-6L38.6,152" transform="translate(33.488 134.648)" fill="none" stroke="#c0505a" stroke-linecap="round" stroke-linejoin="round" stroke-width="1"/>
        <line id="Line_62" data-name="Line 62" x2="2.649" y2="0.341" transform="translate(69.439 286.307)" fill="none" stroke="#c0505a" stroke-linecap="round" stroke-linejoin="round" stroke-width="1"/>
        <path id="Path_1155" data-name="Path 1155" d="M42.937,234.39a3.333,3.333,0,0,1-.757.132" transform="translate(36.681 208.145)" fill="none" stroke="#222323" stroke-linecap="round" stroke-linejoin="round" stroke-width="1"/>
        <path id="Path_1156" data-name="Path 1156" d="M6.67,136.911l.151-.114a2.876,2.876,0,0,1,1.078-.53,4.9,4.9,0,0,1,3.784.605l49.364,27.075,3.406,1.892h0l6.452,3.538a14.607,14.607,0,0,1,6.622,11.788V316.922c0,2.762-1.116,4.617-2.838,5.128" transform="translate(5.004 120.485)" fill="none" stroke="#222323" stroke-linecap="round" stroke-linejoin="round" stroke-width="1"/>
        <path id="Path_1157" data-name="Path 1157" d="M71.112,324.211a4.333,4.333,0,0,1-4.749-.132l-3.311-1.892L7.122,291.591A14.645,14.645,0,0,1,.5,279.8V144.048c0-2.971,1.287-4.863,3.235-5.2a5.071,5.071,0,0,1,3.387.7l8.571,4.692,50.67,27.776A14.645,14.645,0,0,1,72.985,183.8V319.556a5.506,5.506,0,0,1-1.873,4.654Z" transform="translate(-0.5 122.866)" fill="none" stroke="#222323" stroke-linecap="round" stroke-linejoin="round" stroke-width="1"/>
        <path id="Path_1158" data-name="Path 1158" d="M61.911,314.333l-53.6-29.384A13.244,13.244,0,0,1,2.33,274.277v-122.8c0-4.087,2.668-5.9,5.979-4.106L20.1,153.848l41.815,22.932a13.245,13.245,0,0,1,6.017,10.652v122.8C67.928,314.314,65.222,316.149,61.911,314.333Z" transform="translate(1.132 129.906)" fill="none" stroke="#222323" stroke-linecap="round" stroke-linejoin="round" stroke-width="1"/>
        <line id="Line_63" data-name="Line 63" y1="0.208" x2="0.416" transform="translate(79.675 442.308)" fill="none" stroke="#222323" stroke-linecap="round" stroke-linejoin="round" stroke-width="1"/>
        <path id="Path_1159" data-name="Path 1159" d="M37.55,239.2l.511-.265,9.006-4.541.057-.019" transform="translate(32.551 208.136)" fill="none" stroke="#222323" stroke-linecap="round" stroke-linejoin="round" stroke-width="1"/>
        <path id="Path_1160" data-name="Path 1160" d="M21.76,177.5l15.288,7.852a5.676,5.676,0,0,1,2.687,5v30.538" transform="translate(18.465 157.396)" fill="none" stroke="#c0505a" stroke-linecap="round" stroke-linejoin="round" stroke-width="1"/>
        <path id="Path_1161" data-name="Path 1161" d="M25.229,214.145,9.941,206.274a5.525,5.525,0,0,1-2.668-5V170.76" transform="translate(5.536 151.383)" fill="none" stroke="#c0505a" stroke-linecap="round" stroke-linejoin="round" stroke-width="1"/>
        <line id="Line_64" data-name="Line 64" y2="25.448" transform="translate(36.384 337.772)" fill="none" stroke="#222323" stroke-linecap="round" stroke-linejoin="round" stroke-width="1"/>
        <line id="Line_65" data-name="Line 65" y2="25.467" transform="translate(38.825 339.058)" fill="none" stroke="#222323" stroke-linecap="round" stroke-linejoin="round" stroke-width="1"/>
        <line id="Line_66" data-name="Line 66" y2="25.448" transform="translate(41.152 340.364)" fill="none" stroke="#222323" stroke-linecap="round" stroke-linejoin="round" stroke-width="1"/>
        <path id="Path_1162" data-name="Path 1162" d="M26.15,182.37v25.448" transform="translate(22.381 161.74)" fill="none" stroke="#222323" stroke-linecap="round" stroke-linejoin="round" stroke-width="1"/>
        <path id="Path_1163" data-name="Path 1163" d="M27.37,183.09v25.448" transform="translate(23.47 162.382)" fill="none" stroke="#222323" stroke-linecap="round" stroke-linejoin="round" stroke-width="1"/>
        <line id="Line_67" data-name="Line 67" y2="25.448" transform="translate(53.3 346.721)" fill="none" stroke="#222323" stroke-linecap="round" stroke-linejoin="round" stroke-width="1"/>
        <line id="Line_68" data-name="Line 68" y2="25.448" transform="translate(16.423 327.1)" fill="none" stroke="#222323" stroke-linecap="round" stroke-linejoin="round" stroke-width="1"/>
        <line id="Line_69" data-name="Line 69" y2="25.448" transform="translate(21.191 329.655)" fill="none" stroke="#222323" stroke-linecap="round" stroke-linejoin="round" stroke-width="1"/>
        <line id="Line_70" data-name="Line 70" y2="25.467" transform="translate(23.651 330.941)" fill="none" stroke="#222323" stroke-linecap="round" stroke-linejoin="round" stroke-width="1"/>
        <line id="Line_71" data-name="Line 71" y2="25.448" transform="translate(26.111 332.36)" fill="none" stroke="#222323" stroke-linecap="round" stroke-linejoin="round" stroke-width="1"/>
        <line id="Line_72" data-name="Line 72" y2="25.448" transform="translate(28.57 333.666)" fill="none" stroke="#222323" stroke-linecap="round" stroke-linejoin="round" stroke-width="1"/>
        <line id="Line_73" data-name="Line 73" y2="25.448" transform="translate(30.879 334.801)" fill="none" stroke="#222323" stroke-linecap="round" stroke-linejoin="round" stroke-width="1"/>
        <path id="Path_1164" data-name="Path 1164" d="M17.917,226.97a5.26,5.26,0,0,1,0-7.4,5.26,5.26,0,0,1,7.322,1.078,5.26,5.26,0,0,1,0,7.4,5.26,5.26,0,0,1-7.322-1.078Z" transform="translate(13.681 194.014)" fill="none" stroke="#222323" stroke-linecap="round" stroke-linejoin="round" stroke-width="1"/>
      </g>
    </g>
    <g id="Layer_2-2" data-name="Layer 2" transform="translate(831.867 2533.5)">
      <g id="Layer_4-2" data-name="Layer 4" transform="translate(0.5 0.5)">
        <path id="Path_1056-2" data-name="Path 1056" d="M46.826,242.615l-9.006,4.541a5.506,5.506,0,0,0,1.892-4.654V225.17l6.376,17.577a3.329,3.329,0,0,0,.738-.132Z" transform="translate(32.792 199.92)" fill="#222323"/>
        <path id="Path_1057-2" data-name="Path 1057" d="M10.649,136.558l3.519,9.706L5.6,141.572a5.071,5.071,0,0,0-3.387-.7h0l8.609-4.352Z" transform="translate(1.025 120.839)" fill="#222323"/>
        <path id="Path_1058-2" data-name="Path 1058" d="M136,38.72V237.709c-3.235,6.849-11.088,9.9-21.967,10.406V49.126C131,47.234,133.045,43.166,136,38.72Z" transform="translate(100.776 33.595)" fill="#c0505a"/>
        <path id="Path_1059-2" data-name="Path 1059" d="M68.136.5,196.55,72.815,174.583,83.221,68.136,23.3,46.15,10.906Z" transform="translate(40.223 -0.5)" fill="#f2f2f2"/>
        <path id="Path_1060-2" data-name="Path 1060" d="M114,49.126,135.967,38.72C133.072,43.166,131.029,47.234,114,49.126Z" transform="translate(100.75 33.595)" fill="#f2f2f2"/>
        <path id="Path_1061-2" data-name="Path 1061" d="M174.583,78.315V277.3l-6.206-13.112V82.723L51.259,16.8,46.15,6,68.136,18.393Z" transform="translate(40.223 4.406)" fill="#f2f2f2"/>
        <path id="Path_1062-2" data-name="Path 1062" d="M110.75,142.46l6.206,13.112-6.206-3.33Z" transform="translate(97.85 126.138)" fill="#f2f2f2"/>
        <path id="Path_1063-2" data-name="Path 1063" d="M121.116,153.188v7.757c-3.254,6.849-11.106,9.9-21.986,10.406V141.4Z" transform="translate(87.484 125.192)" fill="#c0505a"/>
        <path id="Path_1064-2" data-name="Path 1064" d="M121.116,164.351v9.782L99.13,162.346V117.92Z" transform="translate(87.484 104.246)" fill="#c0505a"/>
        <path id="Path_1065-2" data-name="Path 1065" d="M121.116,46.55V228.018L99.13,181.587V56.975C116.159,55.083,118.164,51.015,121.116,46.55Z" transform="translate(87.484 40.58)" fill="#c0505a"/>
        <path id="Path_1066-2" data-name="Path 1066" d="M165.969,77.63,143.983,88.055l-80.432-45.3L48.85,11.71Z" transform="translate(42.631 9.5)" fill="#f2f2f2"/>
        <path id="Path_1067-2" data-name="Path 1067" d="M99.13,56.975,121.116,46.55C118.164,51.015,116.159,55.083,99.13,56.975Z" transform="translate(87.484 40.58)" fill="#f2f2f2"/>
        <path id="Path_1068-2" data-name="Path 1068" d="M102.752,143.336v29.951L95.07,157.053V139.23Z" transform="translate(83.863 123.256)" fill="#f2f2f2"/>
        <path id="Path_1069-2" data-name="Path 1069" d="M102.752,125.574V170l-7.682-4.106V109.34Z" transform="translate(83.863 96.592)" fill="#f2f2f2"/>
        <path id="Path_1070-2" data-name="Path 1070" d="M137.052,73.416V198.028l-7.682-16.234V78.619l-66.6-37.5-6.149-13Z" transform="translate(49.563 24.139)" fill="#f2f2f2"/>
        <path id="Path_1071-2" data-name="Path 1071" d="M95.07,148.65l7.682,16.234-7.682-4.125Z" transform="translate(83.863 131.66)" fill="#f2f2f2"/>
        <path id="Path_1072-2" data-name="Path 1072" d="M105.436,160.6v9.366c-3.235,6.868-11.088,9.9-21.986,10.406V148.83Z" transform="translate(73.497 131.82)" fill="#c0505a"/>
        <path id="Path_1073-2" data-name="Path 1073" d="M105.436,162.611V174.72L83.45,162.951V133l10.671,5.733Z" transform="translate(73.497 117.699)" fill="#c0505a"/>
        <path id="Path_1074-2" data-name="Path 1074" d="M100.4,142.085v17.823L89.09,136.03Z" transform="translate(78.528 120.402)" fill="#c0505a"/>
        <path id="Path_1075-2" data-name="Path 1075" d="M105.436,131.24v56.554l-11.315-6.055L83.45,159.167V84.79Z" transform="translate(73.497 74.692)" fill="#c0505a"/>
        <path id="Path_1076-2" data-name="Path 1076" d="M105.436,54.81V157.984L83.45,111.534V65.216C100.479,63.324,102.484,59.256,105.436,54.81Z" transform="translate(73.497 47.948)" fill="#c0505a"/>
        <path id="Path_1077-2" data-name="Path 1077" d="M126.471,72.491,104.485,82.9,74.59,66.058,59.87,34.99Z" transform="translate(52.462 30.267)" fill="#f2f2f2"/>
        <path id="Path_1078-2" data-name="Path 1078" d="M83.45,65.216,105.436,54.81C102.484,59.256,100.479,63.324,83.45,65.216Z" transform="translate(73.497 47.948)" fill="#f2f2f2"/>
        <path id="Path_1079-2" data-name="Path 1079" d="M94.121,146.672,83.45,140.939V124.1Z" transform="translate(73.497 109.759)" fill="#c0505a"/>
        <path id="Path_1080-2" data-name="Path 1080" d="M92.87,153.888v31.5L72.89,143.16Z" transform="translate(64.077 126.762)" fill="#f2f2f2"/>
        <path id="Path_1081-2" data-name="Path 1081" d="M77.835,153.6,62.85,121.96l38.977,20.888V172.8l-19.98-10.728Z" transform="translate(55.12 107.85)" fill="#f2f2f2"/>
        <path id="Path_1082-2" data-name="Path 1082" d="M116.724,194.395v16.839L77.747,190.346l-31.6-66.752V45.3Z" transform="translate(40.223 39.465)" fill="#f2f2f2"/>
        <path id="Path_1083-2" data-name="Path 1083" d="M116.724,125.361v74.377L46.15,50.643V39.31L86.829,62.2Z" transform="translate(40.223 34.121)" fill="#f2f2f2"/>
        <path id="Path_1084-2" data-name="Path 1084" d="M97.545,68.249v46.318L67.65,51.41Z" transform="translate(59.402 44.915)" fill="#f2f2f2"/>
        <path id="Path_1085-2" data-name="Path 1085" d="M72.19,143.648l2.308-.719,7.379-2.27,2.308-.719h.189l2.27,1.211,9.233,4.938,19.98,42.231L79.909,169.1c6.887.851,11.788,1.438,12.317,1.438l-12.582-1.589L47.12,151.406,57,148.36l2.46-.776,2.46-.757,2.327-.719,5.487-1.7Z" transform="translate(41.088 123.89)" fill="#f2f2f2"/>
        <path id="Path_1086-2" data-name="Path 1086" d="M77.243,147.156l-9.233-4.938v-1.911l5.222-1.627Z" transform="translate(59.723 122.766)" fill="#f2f2f2"/>
        <path id="Path_1087-2" data-name="Path 1087" d="M64.35,155.24l12.582,1.589c-.53,0-5.43-.587-12.317-1.438Z" transform="translate(56.458 137.538)" fill="#222323"/>
        <path id="Path_1088-2" data-name="Path 1088" d="M98.334,215.337l-2.308-1.23-7.379-3.954L86.338,208.9l-2.46-1.306-5.487-2.952L76.064,203.4l-2.46-1.306-2.46-1.324L68.7,199.462l-4.787-2.573-9.933-5.317L31.26,179.387V55.23l28.173,59.505v49.818l31.6,16.934,14.985,31.635-5.222,1.627-2.27.7Z" transform="translate(26.94 48.323)" fill="#f2f2f2"/>
        <path id="Path_1089-2" data-name="Path 1089" d="M69.08,139.54v1.911l-2.27-1.211Z" transform="translate(58.653 123.533)" fill="#f2f2f2"/>
        <path id="Path_1090-2" data-name="Path 1090" d="M86.829,72.953,46.15,50.059V27.26L72.109,41.886Z" transform="translate(40.223 23.372)" fill="#f2f2f2"/>
        <path id="Path_1091-2" data-name="Path 1091" d="M66.71,139.85l.189.114-.189.057Z" transform="translate(58.564 123.809)" fill="#f2f2f2"/>
        <path id="Path_1092-2" data-name="Path 1092" d="M67.8,140.43v.17l-2.308.719V139.2Z" transform="translate(57.475 123.23)" fill="#f2f2f2"/>
        <path id="Path_1093-2" data-name="Path 1093" d="M68.969,141.064v2.119l-7.379,2.27V137.11Z" transform="translate(53.996 121.365)" fill="#f2f2f2"/>
        <path id="Path_1094-2" data-name="Path 1094" d="M86.277,158l.265.151c-14.228-1.779-36.9-4.711-46.772-6Z" transform="translate(34.531 134.782)" fill="#222323"/>
        <path id="Path_1095-2" data-name="Path 1095" d="M46.15,86.68l31.6,66.752L46.15,136.5Z" transform="translate(40.223 76.378)" fill="#f2f2f2"/>
        <path id="Path_1096-2" data-name="Path 1096" d="M62.678,137.7v8.344l-2.308.719V136.45Z" transform="translate(52.908 120.776)" fill="#f2f2f2"/>
        <path id="Path_1097-2" data-name="Path 1097" d="M61.53,137.066v10.312l-2.46.757V135.76Z" transform="translate(51.748 120.161)" fill="#f2f2f2"/>
        <path id="Path_1098-2" data-name="Path 1098" d="M65.96,33.374l6.149,13L46.15,31.747V22.23Z" transform="translate(40.223 18.885)" fill="#f2f2f2"/>
        <path id="Path_1099-2" data-name="Path 1099" d="M61.657,137.152v12.374l-5.487,1.7V134.2Z" transform="translate(49.161 118.769)" fill="#f2f2f2"/>
        <path id="Path_1100-2" data-name="Path 1100" d="M51.259,13.066l14.7,31.049L46.15,32.97V10.19Z" transform="translate(40.223 8.144)" fill="#f2f2f2"/>
        <path id="Path_1101-2" data-name="Path 1101" d="M57.267,134.789v17.029l-2.327.719v-19Z" transform="translate(48.064 118.18)" fill="#f2f2f2"/>
        <path id="Path_1102-2" data-name="Path 1102" d="M56.1,134.156v19l-2.46.757V132.85Z" transform="translate(46.904 117.565)" fill="#f2f2f2"/>
        <path id="Path_1103-2" data-name="Path 1103" d="M54.8,133.474v21.059l-2.46.776V132.15Z" transform="translate(45.745 116.941)" fill="#f2f2f2"/>
        <path id="Path_1104-2" data-name="Path 1104" d="M58.645,132.607l4.787,2.573,2.441,1.306v23.159L56,162.691,37.17,152.606l10.709-23.764.833-1.551Z" transform="translate(32.212 112.605)" fill="#f2f2f2"/>
        <path id="Path_1105-2" data-name="Path 1105" d="M46.15,6l5.109,10.8L46.15,13.928Z" transform="translate(40.223 4.406)" fill="#f2f2f2"/>
        <path id="Path_1106-2" data-name="Path 1106" d="M59.433,58.119v78.294L31.26,76.907V30.93L52.129,42.661Z" transform="translate(26.94 26.646)" fill="#f2f2f2"/>
        <path id="Path_1107-2" data-name="Path 1107" d="M49.593,41.255V52.588L42.29,37.13Z" transform="translate(36.779 32.176)" fill="#f2f2f2"/>
        <path id="Path_1108-2" data-name="Path 1108" d="M56.534,33.1V55.9l-7.3-4.125L34.51,20.71Z" transform="translate(29.839 17.529)" fill="#f2f2f2"/>
        <path id="Path_1109-2" data-name="Path 1109" d="M59.433,29.714v9.517L37.409,26.838l-6.149-13L53.227,26.214Z" transform="translate(26.94 11.4)" fill="#f2f2f2"/>
        <path id="Path_1110-2" data-name="Path 1110" d="M53.227,8.34l6.206,3.5v22.78l-6.206-3.5L31.26,18.746Z" transform="translate(26.94 6.494)" fill="#f2f2f2"/>
        <path id="Path_1111-2" data-name="Path 1111" d="M74.671,322.031h0a3.333,3.333,0,0,1-.757.132l-6.376-17.577V186.181a14.645,14.645,0,0,0-6.622-11.788L10.189,146.618,6.67,136.911l.151-.114,1.078-.53a4.9,4.9,0,0,1,3.784.605l49.364,27.075,3.406,1.892h0l6.452,3.538a14.607,14.607,0,0,1,6.622,11.788V316.922C77.509,319.666,76.393,321.52,74.671,322.031Z" transform="translate(5.004 120.485)" fill="#222323"/>
        <path id="Path_1112-2" data-name="Path 1112" d="M45.248,208.942l22.724,12.185-.833,1.551L56.43,246.442,15.58,224.551V22.1L45.248,84.784Z" transform="translate(12.952 18.769)" fill="#f2f2f2"/>
        <path id="Path_1113-2" data-name="Path 1113" d="M52.129,53.41,31.26,41.679V18.88l6.149,3.462Z" transform="translate(26.94 15.896)" fill="#f2f2f2"/>
        <path id="Path_1114-2" data-name="Path 1114" d="M38.6,152l2.214.284Z" transform="translate(33.488 134.648)" fill="#222323"/>
        <path id="Path_1115-2" data-name="Path 1115" d="M41.62,251.7a4.333,4.333,0,0,1-4.749-.132l-3.311-1.892.492-.889c3.311,1.892,6,0,6-4.106v-24.6l3.444,9.46v17.331A5.506,5.506,0,0,1,41.62,251.7Z" transform="translate(28.992 195.38)" fill="#f2f2f2"/>
        <path id="Path_1116-2" data-name="Path 1116" d="M65.822,181.233V299.658l-3.444-9.46V191.9a13.244,13.244,0,0,0-6-10.652L14.566,158.32,8.53,141.67,59.2,169.446A14.645,14.645,0,0,1,65.822,181.233Z" transform="translate(6.663 125.433)" fill="#f2f2f2"/>
        <path id="Path_1117-2" data-name="Path 1117" d="M47.4,229.133l2.308,6.357,2.46,6.774,15.742,43.518v24.6c0,4.087-2.687,5.922-6,4.106l-53.6-29.535A13.244,13.244,0,0,1,2.33,274.277v-122.8c0-4.087,2.668-5.9,5.979-4.106L20.1,153.848Zm-9.593,63.025a5.26,5.26,0,0,0,0-7.4,5.26,5.26,0,0,0-7.322-1.079,5.26,5.26,0,0,0,0,7.4,5.26,5.26,0,0,0,7.322,1.078Z" transform="translate(1.132 129.906)" fill="#f2f2f2"/>
        <path id="Path_1118-2" data-name="Path 1118" d="M41.331,232.113l-2.308-6.357L11.72,150.47,53.535,173.4a13.245,13.245,0,0,1,6.017,10.652v98.255L43.809,238.792Z" transform="translate(9.509 133.283)" fill="#f2f2f2"/>
        <path id="Path_1119-2" data-name="Path 1119" d="M31.26,13.84l6.149,13L31.26,23.376Z" transform="translate(26.94 11.4)" fill="#f2f2f2"/>
        <path id="Path_1120-2" data-name="Path 1120" d="M63.544,321.372l-.492.889L7.122,291.591A14.645,14.645,0,0,1,.5,279.8V144.048c0-2.971,1.287-4.863,3.235-5.2a5.071,5.071,0,0,1,3.387.7l8.571,4.692,6.036,16.65L9.941,154.417c-3.311-1.892-5.979,0-5.979,4.106v122.8a13.244,13.244,0,0,0,5.979,10.671Z" transform="translate(-0.5 122.866)" fill="#f2f2f2"/>
        <path id="Path_1121-2" data-name="Path 1121" d="M45.248,38.807V84.784L15.58,22.1,37.566,34.474Z" transform="translate(12.952 18.769)" fill="#f2f2f2"/>
        <path id="Path_1122-2" data-name="Path 1122" d="M37.566,16.59l7.682,4.333v22.8l-7.682-4.333L15.58,27.015Z" transform="translate(12.952 13.853)" fill="#f2f2f2"/>
        <path id="Path_1123-2" data-name="Path 1123" d="M25.258,220.655a5.26,5.26,0,0,1,0,7.4,5.26,5.26,0,0,1-7.341-1.078,5.26,5.26,0,0,1,0-7.4,5.26,5.26,0,0,1,7.341,1.078Z" transform="translate(13.681 194.01)" fill="#f2f2f2"/>
        <path id="Path_1124-2" data-name="Path 1124" d="M7.828,136.2l-1.078.53a2.876,2.876,0,0,1,1.078-.53Z" transform="translate(5.075 120.553)" fill="#f2f2f2"/>
        <path id="Path_1125-2" data-name="Path 1125" d="M68.136.614V.5L46.15,10.906" transform="translate(40.223 -0.5)" fill="none" stroke="#222323" stroke-linecap="round" stroke-linejoin="round" stroke-width="1"/>
        <path id="Path_1126-2" data-name="Path 1126" d="M164.161,282.21c10.879-.511,18.731-3.557,21.967-10.406V72.815L57.77.5" transform="translate(50.589 -0.5)" fill="none" stroke="#222323" stroke-linecap="round" stroke-linejoin="round" stroke-width="1"/>
        <path id="Path_1127-2" data-name="Path 1127" d="M158.012,268.13l6.206,3.33V72.472L57.77,12.55" transform="translate(50.589 10.249)" fill="none" stroke="#222323" stroke-linecap="round" stroke-linejoin="round" stroke-width="1"/>
        <path id="Path_1128-2" data-name="Path 1128" d="M68.136,18.393,46.15,6v7.928" transform="translate(40.223 4.406)" fill="none" stroke="#222323" stroke-linecap="round" stroke-linejoin="round" stroke-width="1"/>
        <path id="Path_1129-2" data-name="Path 1129" d="M136,38.72c-2.952,4.446-4.938,8.514-21.967,10.406" transform="translate(100.776 33.595)" fill="none" stroke="#222323" stroke-linecap="round" stroke-linejoin="round" stroke-width="1"/>
        <path id="Path_1130-2" data-name="Path 1130" d="M53.227,8.454V8.34L31.26,18.746" transform="translate(26.94 6.494)" fill="none" stroke="#222323" stroke-linecap="round" stroke-linejoin="round" stroke-width="1"/>
        <path id="Path_1131-2" data-name="Path 1131" d="M149.318,290.05c10.879-.511,18.731-3.557,21.986-10.406V80.636L54.185,14.716,49.076,11.84,42.87,8.34" transform="translate(37.297 6.494)" fill="none" stroke="#222323" stroke-linecap="round" stroke-linejoin="round" stroke-width="1"/>
        <path id="Path_1132-2" data-name="Path 1132" d="M141.636,275.185l7.682,4.125V80.321l-80.432-45.3L49.076,23.88l-6.206-3.5" transform="translate(37.297 17.234)" fill="none" stroke="#222323" stroke-linecap="round" stroke-linejoin="round" stroke-width="1"/>
        <path id="Path_1133-2" data-name="Path 1133" d="M53.227,26.214,31.26,13.84v9.536" transform="translate(26.94 11.4)" fill="none" stroke="#222323" stroke-linecap="round" stroke-linejoin="round" stroke-width="1"/>
        <path id="Path_1134-2" data-name="Path 1134" d="M121.116,46.55c-2.952,4.465-4.957,8.533-21.986,10.425" transform="translate(87.484 40.58)" fill="none" stroke="#222323" stroke-linecap="round" stroke-linejoin="round" stroke-width="1"/>
        <path id="Path_1135-2" data-name="Path 1135" d="M37.566,16.722V16.59L15.58,27.015" transform="translate(12.952 13.853)" fill="none" stroke="#222323" stroke-linecap="round" stroke-linejoin="round" stroke-width="1"/>
        <path id="Path_1136-2" data-name="Path 1136" d="M133.629,298.3c10.9-.511,18.75-3.538,21.986-10.406V88.9l-66.6-37.482L63.055,36.778,41.031,24.385l-6.149-3.462L27.2,16.59" transform="translate(23.318 13.853)" fill="none" stroke="#222323" stroke-linecap="round" stroke-linejoin="round" stroke-width="1"/>
        <path id="Path_1137-2" data-name="Path 1137" d="M97.755,268.327l35.874,19.223V88.562L103.734,71.722,63.055,48.828l-7.3-4.125L34.882,32.973,27.2,28.64" transform="translate(23.318 24.603)" fill="none" stroke="#222323" stroke-linecap="round" stroke-linejoin="round" stroke-width="1"/>
        <path id="Path_1138-2" data-name="Path 1138" d="M37.566,34.474,15.58,22.1V224.551l40.85,21.891,18.826,10.085,32.6,17.483" transform="translate(12.952 18.769)" fill="none" stroke="#222323" stroke-linecap="round" stroke-linejoin="round" stroke-width="1"/>
        <path id="Path_1139-2" data-name="Path 1139" d="M105.436,54.81c-2.952,4.446-4.957,8.514-21.986,10.406" transform="translate(73.497 47.948)" fill="none" stroke="#222323" stroke-linecap="round" stroke-linejoin="round" stroke-width="1"/>
        <path id="Path_1140-2" data-name="Path 1140" d="M59.07,134.74v25.448" transform="translate(51.748 119.251)" fill="none" stroke="#222323" stroke-linecap="round" stroke-linejoin="round" stroke-width="1"/>
        <path id="Path_1141-2" data-name="Path 1141" d="M60.37,135.43v25.448" transform="translate(52.908 119.866)" fill="none" stroke="#222323" stroke-linecap="round" stroke-linejoin="round" stroke-width="1"/>
        <path id="Path_1142-2" data-name="Path 1142" d="M61.59,136.12v25.448" transform="translate(53.996 120.482)" fill="none" stroke="#222323" stroke-linecap="round" stroke-linejoin="round" stroke-width="1"/>
        <path id="Path_1143-2" data-name="Path 1143" d="M65.49,138.09v25.467" transform="translate(57.475 122.239)" fill="none" stroke="#222323" stroke-linecap="round" stroke-linejoin="round" stroke-width="1"/>
        <path id="Path_1144-2" data-name="Path 1144" d="M66.71,138.81v25.448" transform="translate(58.564 122.882)" fill="none" stroke="#222323" stroke-linecap="round" stroke-linejoin="round" stroke-width="1"/>
        <path id="Path_1145-2" data-name="Path 1145" d="M68.01,139.47v25.448" transform="translate(59.723 123.47)" fill="none" stroke="#222323" stroke-linecap="round" stroke-linejoin="round" stroke-width="1"/>
        <path id="Path_1146-2" data-name="Path 1146" d="M48.52,129.1v25.448" transform="translate(42.337 114.22)" fill="none" stroke="#222323" stroke-linecap="round" stroke-linejoin="round" stroke-width="1"/>
        <path id="Path_1147-2" data-name="Path 1147" d="M51.05,130.45V155.9" transform="translate(44.594 115.424)" fill="none" stroke="#222323" stroke-linecap="round" stroke-linejoin="round" stroke-width="1"/>
        <path id="Path_1148-2" data-name="Path 1148" d="M52.34,131.14v25.448" transform="translate(45.745 116.04)" fill="none" stroke="#222323" stroke-linecap="round" stroke-linejoin="round" stroke-width="1"/>
        <path id="Path_1149-2" data-name="Path 1149" d="M53.64,131.88v25.467" transform="translate(46.904 116.7)" fill="none" stroke="#222323" stroke-linecap="round" stroke-linejoin="round" stroke-width="1"/>
        <path id="Path_1150-2" data-name="Path 1150" d="M54.94,132.57v25.448" transform="translate(48.064 117.315)" fill="none" stroke="#222323" stroke-linecap="round" stroke-linejoin="round" stroke-width="1"/>
        <path id="Path_1151-2" data-name="Path 1151" d="M56.17,133.17v25.448" transform="translate(49.161 117.85)" fill="none" stroke="#222323" stroke-linecap="round" stroke-linejoin="round" stroke-width="1"/>
        <line id="Line_60-2" data-name="Line 60" y1="0.151" x2="0.284" transform="translate(12.904 256.602)" fill="none" stroke="#222323" stroke-linecap="round" stroke-linejoin="round" stroke-width="1"/>
        <line id="Line_61-2" data-name="Line 61" y1="4.352" x2="8.609" transform="translate(3.217 257.283)" fill="none" stroke="#222323" stroke-linecap="round" stroke-linejoin="round" stroke-width="1"/>
        <path id="Path_1152-2" data-name="Path 1152" d="M50.707,128.11,40,151.874l-6,13.32" transform="translate(29.384 113.337)" fill="none" stroke="#c0505a" stroke-linecap="round" stroke-linejoin="round" stroke-width="1"/>
        <path id="Path_1153-2" data-name="Path 1153" d="M102.062,138.61l-.435.132L96.4,140.37l-2.27.7-.189.057-2.308.719-7.379,2.27-2.308.719-2.46.757L74,147.295l-2.327.719-2.46.757-2.46.776-9.877,3.046-20.7,6.414" transform="translate(31.329 122.703)" fill="none" stroke="#c0505a" stroke-linecap="round" stroke-linejoin="round" stroke-width="1"/>
        <path id="Path_1154-2" data-name="Path 1154" d="M99.9,159.72c-.53,0-5.43-.587-12.317-1.438-14.228-1.779-36.9-4.711-46.772-6L38.6,152" transform="translate(33.488 134.648)" fill="none" stroke="#c0505a" stroke-linecap="round" stroke-linejoin="round" stroke-width="1"/>
        <line id="Line_62-2" data-name="Line 62" x2="2.649" y2="0.341" transform="translate(69.439 286.307)" fill="none" stroke="#c0505a" stroke-linecap="round" stroke-linejoin="round" stroke-width="1"/>
        <path id="Path_1155-2" data-name="Path 1155" d="M42.937,234.39a3.333,3.333,0,0,1-.757.132" transform="translate(36.681 208.145)" fill="none" stroke="#222323" stroke-linecap="round" stroke-linejoin="round" stroke-width="1"/>
        <path id="Path_1156-2" data-name="Path 1156" d="M6.67,136.911l.151-.114a2.876,2.876,0,0,1,1.078-.53,4.9,4.9,0,0,1,3.784.605l49.364,27.075,3.406,1.892h0l6.452,3.538a14.607,14.607,0,0,1,6.622,11.788V316.922c0,2.762-1.116,4.617-2.838,5.128" transform="translate(5.004 120.485)" fill="none" stroke="#222323" stroke-linecap="round" stroke-linejoin="round" stroke-width="1"/>
        <path id="Path_1157-2" data-name="Path 1157" d="M71.112,324.211a4.333,4.333,0,0,1-4.749-.132l-3.311-1.892L7.122,291.591A14.645,14.645,0,0,1,.5,279.8V144.048c0-2.971,1.287-4.863,3.235-5.2a5.071,5.071,0,0,1,3.387.7l8.571,4.692,50.67,27.776A14.645,14.645,0,0,1,72.985,183.8V319.556a5.506,5.506,0,0,1-1.873,4.654Z" transform="translate(-0.5 122.866)" fill="none" stroke="#222323" stroke-linecap="round" stroke-linejoin="round" stroke-width="1"/>
        <path id="Path_1158-2" data-name="Path 1158" d="M61.911,314.333l-53.6-29.384A13.244,13.244,0,0,1,2.33,274.277v-122.8c0-4.087,2.668-5.9,5.979-4.106L20.1,153.848l41.815,22.932a13.245,13.245,0,0,1,6.017,10.652v122.8C67.928,314.314,65.222,316.149,61.911,314.333Z" transform="translate(1.132 129.906)" fill="none" stroke="#222323" stroke-linecap="round" stroke-linejoin="round" stroke-width="1"/>
        <line id="Line_63-2" data-name="Line 63" y1="0.208" x2="0.416" transform="translate(79.675 442.308)" fill="none" stroke="#222323" stroke-linecap="round" stroke-linejoin="round" stroke-width="1"/>
        <path id="Path_1159-2" data-name="Path 1159" d="M37.55,239.2l.511-.265,9.006-4.541.057-.019" transform="translate(32.551 208.136)" fill="none" stroke="#222323" stroke-linecap="round" stroke-linejoin="round" stroke-width="1"/>
        <path id="Path_1160-2" data-name="Path 1160" d="M21.76,177.5l15.288,7.852a5.676,5.676,0,0,1,2.687,5v30.538" transform="translate(18.465 157.396)" fill="none" stroke="#c0505a" stroke-linecap="round" stroke-linejoin="round" stroke-width="1"/>
        <path id="Path_1161-2" data-name="Path 1161" d="M25.229,214.145,9.941,206.274a5.525,5.525,0,0,1-2.668-5V170.76" transform="translate(5.536 151.383)" fill="none" stroke="#c0505a" stroke-linecap="round" stroke-linejoin="round" stroke-width="1"/>
        <line id="Line_64-2" data-name="Line 64" y2="25.448" transform="translate(36.384 337.772)" fill="none" stroke="#222323" stroke-linecap="round" stroke-linejoin="round" stroke-width="1"/>
        <line id="Line_65-2" data-name="Line 65" y2="25.467" transform="translate(38.825 339.058)" fill="none" stroke="#222323" stroke-linecap="round" stroke-linejoin="round" stroke-width="1"/>
        <line id="Line_66-2" data-name="Line 66" y2="25.448" transform="translate(41.152 340.364)" fill="none" stroke="#222323" stroke-linecap="round" stroke-linejoin="round" stroke-width="1"/>
        <path id="Path_1162-2" data-name="Path 1162" d="M26.15,182.37v25.448" transform="translate(22.381 161.74)" fill="none" stroke="#222323" stroke-linecap="round" stroke-linejoin="round" stroke-width="1"/>
        <path id="Path_1163-2" data-name="Path 1163" d="M27.37,183.09v25.448" transform="translate(23.47 162.382)" fill="none" stroke="#222323" stroke-linecap="round" stroke-linejoin="round" stroke-width="1"/>
        <line id="Line_67-2" data-name="Line 67" y2="25.448" transform="translate(53.3 346.721)" fill="none" stroke="#222323" stroke-linecap="round" stroke-linejoin="round" stroke-width="1"/>
        <line id="Line_68-2" data-name="Line 68" y2="25.448" transform="translate(16.423 327.1)" fill="none" stroke="#222323" stroke-linecap="round" stroke-linejoin="round" stroke-width="1"/>
        <line id="Line_69-2" data-name="Line 69" y2="25.448" transform="translate(21.191 329.655)" fill="none" stroke="#222323" stroke-linecap="round" stroke-linejoin="round" stroke-width="1"/>
        <line id="Line_70-2" data-name="Line 70" y2="25.467" transform="translate(23.651 330.941)" fill="none" stroke="#222323" stroke-linecap="round" stroke-linejoin="round" stroke-width="1"/>
        <line id="Line_71-2" data-name="Line 71" y2="25.448" transform="translate(26.111 332.36)" fill="none" stroke="#222323" stroke-linecap="round" stroke-linejoin="round" stroke-width="1"/>
        <line id="Line_72-2" data-name="Line 72" y2="25.448" transform="translate(28.57 333.666)" fill="none" stroke="#222323" stroke-linecap="round" stroke-linejoin="round" stroke-width="1"/>
        <line id="Line_73-2" data-name="Line 73" y2="25.448" transform="translate(30.879 334.801)" fill="none" stroke="#222323" stroke-linecap="round" stroke-linejoin="round" stroke-width="1"/>
        <path id="Path_1164-2" data-name="Path 1164" d="M17.917,226.97a5.26,5.26,0,0,1,0-7.4,5.26,5.26,0,0,1,7.322,1.078,5.26,5.26,0,0,1,0,7.4,5.26,5.26,0,0,1-7.322-1.078Z" transform="translate(13.681 194.014)" fill="none" stroke="#222323" stroke-linecap="round" stroke-linejoin="round" stroke-width="1"/>
      </g>
    </g>
    <g id="Layer_2-3" data-name="Layer 2" transform="translate(831.867 2533.5)">
      <g id="Layer_4-3" data-name="Layer 4" transform="translate(0.5 0.5)">
        <path id="Path_1056-3" data-name="Path 1056" d="M46.826,242.615l-9.006,4.541a5.506,5.506,0,0,0,1.892-4.654V225.17l6.376,17.577a3.329,3.329,0,0,0,.738-.132Z" transform="translate(32.792 199.92)" fill="#222323"/>
        <path id="Path_1057-3" data-name="Path 1057" d="M10.649,136.558l3.519,9.706L5.6,141.572a5.071,5.071,0,0,0-3.387-.7h0l8.609-4.352Z" transform="translate(1.025 120.839)" fill="#222323"/>
        <path id="Path_1058-3" data-name="Path 1058" d="M136,38.72V237.709c-3.235,6.849-11.088,9.9-21.967,10.406V49.126C131,47.234,133.045,43.166,136,38.72Z" transform="translate(100.776 33.595)" fill="#c0505a"/>
        <path id="Path_1059-3" data-name="Path 1059" d="M68.136.5,196.55,72.815,174.583,83.221,68.136,23.3,46.15,10.906Z" transform="translate(40.223 -0.5)" fill="#f2f2f2"/>
        <path id="Path_1060-3" data-name="Path 1060" d="M114,49.126,135.967,38.72C133.072,43.166,131.029,47.234,114,49.126Z" transform="translate(100.75 33.595)" fill="#f2f2f2"/>
        <path id="Path_1061-3" data-name="Path 1061" d="M174.583,78.315V277.3l-6.206-13.112V82.723L51.259,16.8,46.15,6,68.136,18.393Z" transform="translate(40.223 4.406)" fill="#f2f2f2"/>
        <path id="Path_1062-3" data-name="Path 1062" d="M110.75,142.46l6.206,13.112-6.206-3.33Z" transform="translate(97.85 126.138)" fill="#f2f2f2"/>
        <path id="Path_1063-3" data-name="Path 1063" d="M121.116,153.188v7.757c-3.254,6.849-11.106,9.9-21.986,10.406V141.4Z" transform="translate(87.484 125.192)" fill="#c0505a"/>
        <path id="Path_1064-3" data-name="Path 1064" d="M121.116,164.351v9.782L99.13,162.346V117.92Z" transform="translate(87.484 104.246)" fill="#c0505a"/>
        <path id="Path_1065-3" data-name="Path 1065" d="M121.116,46.55V228.018L99.13,181.587V56.975C116.159,55.083,118.164,51.015,121.116,46.55Z" transform="translate(87.484 40.58)" fill="#c0505a"/>
        <path id="Path_1066-3" data-name="Path 1066" d="M165.969,77.63,143.983,88.055l-80.432-45.3L48.85,11.71Z" transform="translate(42.631 9.5)" fill="#f2f2f2"/>
        <path id="Path_1067-3" data-name="Path 1067" d="M99.13,56.975,121.116,46.55C118.164,51.015,116.159,55.083,99.13,56.975Z" transform="translate(87.484 40.58)" fill="#f2f2f2"/>
        <path id="Path_1068-3" data-name="Path 1068" d="M102.752,143.336v29.951L95.07,157.053V139.23Z" transform="translate(83.863 123.256)" fill="#f2f2f2"/>
        <path id="Path_1069-3" data-name="Path 1069" d="M102.752,125.574V170l-7.682-4.106V109.34Z" transform="translate(83.863 96.592)" fill="#f2f2f2"/>
        <path id="Path_1070-3" data-name="Path 1070" d="M137.052,73.416V198.028l-7.682-16.234V78.619l-66.6-37.5-6.149-13Z" transform="translate(49.563 24.139)" fill="#f2f2f2"/>
        <path id="Path_1071-3" data-name="Path 1071" d="M95.07,148.65l7.682,16.234-7.682-4.125Z" transform="translate(83.863 131.66)" fill="#f2f2f2"/>
        <path id="Path_1072-3" data-name="Path 1072" d="M105.436,160.6v9.366c-3.235,6.868-11.088,9.9-21.986,10.406V148.83Z" transform="translate(73.497 131.82)" fill="#c0505a"/>
        <path id="Path_1073-3" data-name="Path 1073" d="M105.436,162.611V174.72L83.45,162.951V133l10.671,5.733Z" transform="translate(73.497 117.699)" fill="#c0505a"/>
        <path id="Path_1074-3" data-name="Path 1074" d="M100.4,142.085v17.823L89.09,136.03Z" transform="translate(78.528 120.402)" fill="#c0505a"/>
        <path id="Path_1075-3" data-name="Path 1075" d="M105.436,131.24v56.554l-11.315-6.055L83.45,159.167V84.79Z" transform="translate(73.497 74.692)" fill="#c0505a"/>
        <path id="Path_1076-3" data-name="Path 1076" d="M105.436,54.81V157.984L83.45,111.534V65.216C100.479,63.324,102.484,59.256,105.436,54.81Z" transform="translate(73.497 47.948)" fill="#c0505a"/>
        <path id="Path_1077-3" data-name="Path 1077" d="M126.471,72.491,104.485,82.9,74.59,66.058,59.87,34.99Z" transform="translate(52.462 30.267)" fill="#f2f2f2"/>
        <path id="Path_1078-3" data-name="Path 1078" d="M83.45,65.216,105.436,54.81C102.484,59.256,100.479,63.324,83.45,65.216Z" transform="translate(73.497 47.948)" fill="#f2f2f2"/>
        <path id="Path_1079-3" data-name="Path 1079" d="M94.121,146.672,83.45,140.939V124.1Z" transform="translate(73.497 109.759)" fill="#c0505a"/>
        <path id="Path_1080-3" data-name="Path 1080" d="M92.87,153.888v31.5L72.89,143.16Z" transform="translate(64.077 126.762)" fill="#f2f2f2"/>
        <path id="Path_1081-3" data-name="Path 1081" d="M77.835,153.6,62.85,121.96l38.977,20.888V172.8l-19.98-10.728Z" transform="translate(55.12 107.85)" fill="#f2f2f2"/>
        <path id="Path_1082-3" data-name="Path 1082" d="M116.724,194.395v16.839L77.747,190.346l-31.6-66.752V45.3Z" transform="translate(40.223 39.465)" fill="#f2f2f2"/>
        <path id="Path_1083-3" data-name="Path 1083" d="M116.724,125.361v74.377L46.15,50.643V39.31L86.829,62.2Z" transform="translate(40.223 34.121)" fill="#f2f2f2"/>
        <path id="Path_1084-3" data-name="Path 1084" d="M97.545,68.249v46.318L67.65,51.41Z" transform="translate(59.402 44.915)" fill="#f2f2f2"/>
        <path id="Path_1085-3" data-name="Path 1085" d="M72.19,143.648l2.308-.719,7.379-2.27,2.308-.719h.189l2.27,1.211,9.233,4.938,19.98,42.231L79.909,169.1c6.887.851,11.788,1.438,12.317,1.438l-12.582-1.589L47.12,151.406,57,148.36l2.46-.776,2.46-.757,2.327-.719,5.487-1.7Z" transform="translate(41.088 123.89)" fill="#f2f2f2"/>
        <path id="Path_1086-3" data-name="Path 1086" d="M77.243,147.156l-9.233-4.938v-1.911l5.222-1.627Z" transform="translate(59.723 122.766)" fill="#f2f2f2"/>
        <path id="Path_1087-3" data-name="Path 1087" d="M64.35,155.24l12.582,1.589c-.53,0-5.43-.587-12.317-1.438Z" transform="translate(56.458 137.538)" fill="#222323"/>
        <path id="Path_1088-3" data-name="Path 1088" d="M98.334,215.337l-2.308-1.23-7.379-3.954L86.338,208.9l-2.46-1.306-5.487-2.952L76.064,203.4l-2.46-1.306-2.46-1.324L68.7,199.462l-4.787-2.573-9.933-5.317L31.26,179.387V55.23l28.173,59.505v49.818l31.6,16.934,14.985,31.635-5.222,1.627-2.27.7Z" transform="translate(26.94 48.323)" fill="#f2f2f2"/>
        <path id="Path_1089-3" data-name="Path 1089" d="M69.08,139.54v1.911l-2.27-1.211Z" transform="translate(58.653 123.533)" fill="#f2f2f2"/>
        <path id="Path_1090-3" data-name="Path 1090" d="M86.829,72.953,46.15,50.059V27.26L72.109,41.886Z" transform="translate(40.223 23.372)" fill="#f2f2f2"/>
        <path id="Path_1091-3" data-name="Path 1091" d="M66.71,139.85l.189.114-.189.057Z" transform="translate(58.564 123.809)" fill="#f2f2f2"/>
        <path id="Path_1092-3" data-name="Path 1092" d="M67.8,140.43v.17l-2.308.719V139.2Z" transform="translate(57.475 123.23)" fill="#f2f2f2"/>
        <path id="Path_1093-3" data-name="Path 1093" d="M68.969,141.064v2.119l-7.379,2.27V137.11Z" transform="translate(53.996 121.365)" fill="#f2f2f2"/>
        <path id="Path_1094-3" data-name="Path 1094" d="M86.277,158l.265.151c-14.228-1.779-36.9-4.711-46.772-6Z" transform="translate(34.531 134.782)" fill="#222323"/>
        <path id="Path_1095-3" data-name="Path 1095" d="M46.15,86.68l31.6,66.752L46.15,136.5Z" transform="translate(40.223 76.378)" fill="#f2f2f2"/>
        <path id="Path_1096-3" data-name="Path 1096" d="M62.678,137.7v8.344l-2.308.719V136.45Z" transform="translate(52.908 120.776)" fill="#f2f2f2"/>
        <path id="Path_1097-3" data-name="Path 1097" d="M61.53,137.066v10.312l-2.46.757V135.76Z" transform="translate(51.748 120.161)" fill="#f2f2f2"/>
        <path id="Path_1098-3" data-name="Path 1098" d="M65.96,33.374l6.149,13L46.15,31.747V22.23Z" transform="translate(40.223 18.885)" fill="#f2f2f2"/>
        <path id="Path_1099-3" data-name="Path 1099" d="M61.657,137.152v12.374l-5.487,1.7V134.2Z" transform="translate(49.161 118.769)" fill="#f2f2f2"/>
        <path id="Path_1100-3" data-name="Path 1100" d="M51.259,13.066l14.7,31.049L46.15,32.97V10.19Z" transform="translate(40.223 8.144)" fill="#f2f2f2"/>
        <path id="Path_1101-3" data-name="Path 1101" d="M57.267,134.789v17.029l-2.327.719v-19Z" transform="translate(48.064 118.18)" fill="#f2f2f2"/>
        <path id="Path_1102-3" data-name="Path 1102" d="M56.1,134.156v19l-2.46.757V132.85Z" transform="translate(46.904 117.565)" fill="#f2f2f2"/>
        <path id="Path_1103-3" data-name="Path 1103" d="M54.8,133.474v21.059l-2.46.776V132.15Z" transform="translate(45.745 116.941)" fill="#f2f2f2"/>
        <path id="Path_1104-3" data-name="Path 1104" d="M58.645,132.607l4.787,2.573,2.441,1.306v23.159L56,162.691,37.17,152.606l10.709-23.764.833-1.551Z" transform="translate(32.212 112.605)" fill="#f2f2f2"/>
        <path id="Path_1105-3" data-name="Path 1105" d="M46.15,6l5.109,10.8L46.15,13.928Z" transform="translate(40.223 4.406)" fill="#f2f2f2"/>
        <path id="Path_1106-3" data-name="Path 1106" d="M59.433,58.119v78.294L31.26,76.907V30.93L52.129,42.661Z" transform="translate(26.94 26.646)" fill="#f2f2f2"/>
        <path id="Path_1107-3" data-name="Path 1107" d="M49.593,41.255V52.588L42.29,37.13Z" transform="translate(36.779 32.176)" fill="#f2f2f2"/>
        <path id="Path_1108-3" data-name="Path 1108" d="M56.534,33.1V55.9l-7.3-4.125L34.51,20.71Z" transform="translate(29.839 17.529)" fill="#f2f2f2"/>
        <path id="Path_1109-3" data-name="Path 1109" d="M59.433,29.714v9.517L37.409,26.838l-6.149-13L53.227,26.214Z" transform="translate(26.94 11.4)" fill="#f2f2f2"/>
        <path id="Path_1110-3" data-name="Path 1110" d="M53.227,8.34l6.206,3.5v22.78l-6.206-3.5L31.26,18.746Z" transform="translate(26.94 6.494)" fill="#f2f2f2"/>
        <path id="Path_1111-3" data-name="Path 1111" d="M74.671,322.031h0a3.333,3.333,0,0,1-.757.132l-6.376-17.577V186.181a14.645,14.645,0,0,0-6.622-11.788L10.189,146.618,6.67,136.911l.151-.114,1.078-.53a4.9,4.9,0,0,1,3.784.605l49.364,27.075,3.406,1.892h0l6.452,3.538a14.607,14.607,0,0,1,6.622,11.788V316.922C77.509,319.666,76.393,321.52,74.671,322.031Z" transform="translate(5.004 120.485)" fill="#222323"/>
        <path id="Path_1112-3" data-name="Path 1112" d="M45.248,208.942l22.724,12.185-.833,1.551L56.43,246.442,15.58,224.551V22.1L45.248,84.784Z" transform="translate(12.952 18.769)" fill="#f2f2f2"/>
        <path id="Path_1113-3" data-name="Path 1113" d="M52.129,53.41,31.26,41.679V18.88l6.149,3.462Z" transform="translate(26.94 15.896)" fill="#f2f2f2"/>
        <path id="Path_1114-3" data-name="Path 1114" d="M38.6,152l2.214.284Z" transform="translate(33.488 134.648)" fill="#222323"/>
        <path id="Path_1115-3" data-name="Path 1115" d="M41.62,251.7a4.333,4.333,0,0,1-4.749-.132l-3.311-1.892.492-.889c3.311,1.892,6,0,6-4.106v-24.6l3.444,9.46v17.331A5.506,5.506,0,0,1,41.62,251.7Z" transform="translate(28.992 195.38)" fill="#f2f2f2"/>
        <path id="Path_1116-3" data-name="Path 1116" d="M65.822,181.233V299.658l-3.444-9.46V191.9a13.244,13.244,0,0,0-6-10.652L14.566,158.32,8.53,141.67,59.2,169.446A14.645,14.645,0,0,1,65.822,181.233Z" transform="translate(6.663 125.433)" fill="#f2f2f2"/>
        <path id="Path_1117-3" data-name="Path 1117" d="M47.4,229.133l2.308,6.357,2.46,6.774,15.742,43.518v24.6c0,4.087-2.687,5.922-6,4.106l-53.6-29.535A13.244,13.244,0,0,1,2.33,274.277v-122.8c0-4.087,2.668-5.9,5.979-4.106L20.1,153.848Zm-9.593,63.025a5.26,5.26,0,0,0,0-7.4,5.26,5.26,0,0,0-7.322-1.079,5.26,5.26,0,0,0,0,7.4,5.26,5.26,0,0,0,7.322,1.078Z" transform="translate(1.132 129.906)" fill="#f2f2f2"/>
        <path id="Path_1118-3" data-name="Path 1118" d="M41.331,232.113l-2.308-6.357L11.72,150.47,53.535,173.4a13.245,13.245,0,0,1,6.017,10.652v98.255L43.809,238.792Z" transform="translate(9.509 133.283)" fill="#f2f2f2"/>
        <path id="Path_1119-3" data-name="Path 1119" d="M31.26,13.84l6.149,13L31.26,23.376Z" transform="translate(26.94 11.4)" fill="#f2f2f2"/>
        <path id="Path_1120-3" data-name="Path 1120" d="M63.544,321.372l-.492.889L7.122,291.591A14.645,14.645,0,0,1,.5,279.8V144.048c0-2.971,1.287-4.863,3.235-5.2a5.071,5.071,0,0,1,3.387.7l8.571,4.692,6.036,16.65L9.941,154.417c-3.311-1.892-5.979,0-5.979,4.106v122.8a13.244,13.244,0,0,0,5.979,10.671Z" transform="translate(-0.5 122.866)" fill="#f2f2f2"/>
        <path id="Path_1121-3" data-name="Path 1121" d="M45.248,38.807V84.784L15.58,22.1,37.566,34.474Z" transform="translate(12.952 18.769)" fill="#f2f2f2"/>
        <path id="Path_1122-3" data-name="Path 1122" d="M37.566,16.59l7.682,4.333v22.8l-7.682-4.333L15.58,27.015Z" transform="translate(12.952 13.853)" fill="#f2f2f2"/>
        <path id="Path_1123-3" data-name="Path 1123" d="M25.258,220.655a5.26,5.26,0,0,1,0,7.4,5.26,5.26,0,0,1-7.341-1.078,5.26,5.26,0,0,1,0-7.4,5.26,5.26,0,0,1,7.341,1.078Z" transform="translate(13.681 194.01)" fill="#f2f2f2"/>
        <path id="Path_1124-3" data-name="Path 1124" d="M7.828,136.2l-1.078.53a2.876,2.876,0,0,1,1.078-.53Z" transform="translate(5.075 120.553)" fill="#f2f2f2"/>
        <path id="Path_1125-3" data-name="Path 1125" d="M68.136.614V.5L46.15,10.906" transform="translate(40.223 -0.5)" fill="none" stroke="#222323" stroke-linecap="round" stroke-linejoin="round" stroke-width="1"/>
        <path id="Path_1126-3" data-name="Path 1126" d="M164.161,282.21c10.879-.511,18.731-3.557,21.967-10.406V72.815L57.77.5" transform="translate(50.589 -0.5)" fill="none" stroke="#222323" stroke-linecap="round" stroke-linejoin="round" stroke-width="1"/>
        <path id="Path_1127-3" data-name="Path 1127" d="M158.012,268.13l6.206,3.33V72.472L57.77,12.55" transform="translate(50.589 10.249)" fill="none" stroke="#222323" stroke-linecap="round" stroke-linejoin="round" stroke-width="1"/>
        <path id="Path_1128-3" data-name="Path 1128" d="M68.136,18.393,46.15,6v7.928" transform="translate(40.223 4.406)" fill="none" stroke="#222323" stroke-linecap="round" stroke-linejoin="round" stroke-width="1"/>
        <path id="Path_1129-3" data-name="Path 1129" d="M136,38.72c-2.952,4.446-4.938,8.514-21.967,10.406" transform="translate(100.776 33.595)" fill="none" stroke="#222323" stroke-linecap="round" stroke-linejoin="round" stroke-width="1"/>
        <path id="Path_1130-3" data-name="Path 1130" d="M53.227,8.454V8.34L31.26,18.746" transform="translate(26.94 6.494)" fill="none" stroke="#222323" stroke-linecap="round" stroke-linejoin="round" stroke-width="1"/>
        <path id="Path_1131-3" data-name="Path 1131" d="M149.318,290.05c10.879-.511,18.731-3.557,21.986-10.406V80.636L54.185,14.716,49.076,11.84,42.87,8.34" transform="translate(37.297 6.494)" fill="none" stroke="#222323" stroke-linecap="round" stroke-linejoin="round" stroke-width="1"/>
        <path id="Path_1132-3" data-name="Path 1132" d="M141.636,275.185l7.682,4.125V80.321l-80.432-45.3L49.076,23.88l-6.206-3.5" transform="translate(37.297 17.234)" fill="none" stroke="#222323" stroke-linecap="round" stroke-linejoin="round" stroke-width="1"/>
        <path id="Path_1133-3" data-name="Path 1133" d="M53.227,26.214,31.26,13.84v9.536" transform="translate(26.94 11.4)" fill="none" stroke="#222323" stroke-linecap="round" stroke-linejoin="round" stroke-width="1"/>
        <path id="Path_1134-3" data-name="Path 1134" d="M121.116,46.55c-2.952,4.465-4.957,8.533-21.986,10.425" transform="translate(87.484 40.58)" fill="none" stroke="#222323" stroke-linecap="round" stroke-linejoin="round" stroke-width="1"/>
        <path id="Path_1135-3" data-name="Path 1135" d="M37.566,16.722V16.59L15.58,27.015" transform="translate(12.952 13.853)" fill="none" stroke="#222323" stroke-linecap="round" stroke-linejoin="round" stroke-width="1"/>
        <path id="Path_1136-3" data-name="Path 1136" d="M133.629,298.3c10.9-.511,18.75-3.538,21.986-10.406V88.9l-66.6-37.482L63.055,36.778,41.031,24.385l-6.149-3.462L27.2,16.59" transform="translate(23.318 13.853)" fill="none" stroke="#222323" stroke-linecap="round" stroke-linejoin="round" stroke-width="1"/>
        <path id="Path_1137-3" data-name="Path 1137" d="M97.755,268.327l35.874,19.223V88.562L103.734,71.722,63.055,48.828l-7.3-4.125L34.882,32.973,27.2,28.64" transform="translate(23.318 24.603)" fill="none" stroke="#222323" stroke-linecap="round" stroke-linejoin="round" stroke-width="1"/>
        <path id="Path_1138-3" data-name="Path 1138" d="M37.566,34.474,15.58,22.1V224.551l40.85,21.891,18.826,10.085,32.6,17.483" transform="translate(12.952 18.769)" fill="none" stroke="#222323" stroke-linecap="round" stroke-linejoin="round" stroke-width="1"/>
        <path id="Path_1139-3" data-name="Path 1139" d="M105.436,54.81c-2.952,4.446-4.957,8.514-21.986,10.406" transform="translate(73.497 47.948)" fill="none" stroke="#222323" stroke-linecap="round" stroke-linejoin="round" stroke-width="1"/>
        <path id="Path_1140-3" data-name="Path 1140" d="M59.07,134.74v25.448" transform="translate(51.748 119.251)" fill="none" stroke="#222323" stroke-linecap="round" stroke-linejoin="round" stroke-width="1"/>
        <path id="Path_1141-3" data-name="Path 1141" d="M60.37,135.43v25.448" transform="translate(52.908 119.866)" fill="none" stroke="#222323" stroke-linecap="round" stroke-linejoin="round" stroke-width="1"/>
        <path id="Path_1142-3" data-name="Path 1142" d="M61.59,136.12v25.448" transform="translate(53.996 120.482)" fill="none" stroke="#222323" stroke-linecap="round" stroke-linejoin="round" stroke-width="1"/>
        <path id="Path_1143-3" data-name="Path 1143" d="M65.49,138.09v25.467" transform="translate(57.475 122.239)" fill="none" stroke="#222323" stroke-linecap="round" stroke-linejoin="round" stroke-width="1"/>
        <path id="Path_1144-3" data-name="Path 1144" d="M66.71,138.81v25.448" transform="translate(58.564 122.882)" fill="none" stroke="#222323" stroke-linecap="round" stroke-linejoin="round" stroke-width="1"/>
        <path id="Path_1145-3" data-name="Path 1145" d="M68.01,139.47v25.448" transform="translate(59.723 123.47)" fill="none" stroke="#222323" stroke-linecap="round" stroke-linejoin="round" stroke-width="1"/>
        <path id="Path_1146-3" data-name="Path 1146" d="M48.52,129.1v25.448" transform="translate(42.337 114.22)" fill="none" stroke="#222323" stroke-linecap="round" stroke-linejoin="round" stroke-width="1"/>
        <path id="Path_1147-3" data-name="Path 1147" d="M51.05,130.45V155.9" transform="translate(44.594 115.424)" fill="none" stroke="#222323" stroke-linecap="round" stroke-linejoin="round" stroke-width="1"/>
        <path id="Path_1148-3" data-name="Path 1148" d="M52.34,131.14v25.448" transform="translate(45.745 116.04)" fill="none" stroke="#222323" stroke-linecap="round" stroke-linejoin="round" stroke-width="1"/>
        <path id="Path_1149-3" data-name="Path 1149" d="M53.64,131.88v25.467" transform="translate(46.904 116.7)" fill="none" stroke="#222323" stroke-linecap="round" stroke-linejoin="round" stroke-width="1"/>
        <path id="Path_1150-3" data-name="Path 1150" d="M54.94,132.57v25.448" transform="translate(48.064 117.315)" fill="none" stroke="#222323" stroke-linecap="round" stroke-linejoin="round" stroke-width="1"/>
        <path id="Path_1151-3" data-name="Path 1151" d="M56.17,133.17v25.448" transform="translate(49.161 117.85)" fill="none" stroke="#222323" stroke-linecap="round" stroke-linejoin="round" stroke-width="1"/>
        <line id="Line_60-3" data-name="Line 60" y1="0.151" x2="0.284" transform="translate(12.904 256.602)" fill="none" stroke="#222323" stroke-linecap="round" stroke-linejoin="round" stroke-width="1"/>
        <line id="Line_61-3" data-name="Line 61" y1="4.352" x2="8.609" transform="translate(3.217 257.283)" fill="none" stroke="#222323" stroke-linecap="round" stroke-linejoin="round" stroke-width="1"/>
        <path id="Path_1152-3" data-name="Path 1152" d="M50.707,128.11,40,151.874l-6,13.32" transform="translate(29.384 113.337)" fill="none" stroke="#c0505a" stroke-linecap="round" stroke-linejoin="round" stroke-width="1"/>
        <path id="Path_1153-3" data-name="Path 1153" d="M102.062,138.61l-.435.132L96.4,140.37l-2.27.7-.189.057-2.308.719-7.379,2.27-2.308.719-2.46.757L74,147.295l-2.327.719-2.46.757-2.46.776-9.877,3.046-20.7,6.414" transform="translate(31.329 122.703)" fill="none" stroke="#c0505a" stroke-linecap="round" stroke-linejoin="round" stroke-width="1"/>
        <path id="Path_1154-3" data-name="Path 1154" d="M99.9,159.72c-.53,0-5.43-.587-12.317-1.438-14.228-1.779-36.9-4.711-46.772-6L38.6,152" transform="translate(33.488 134.648)" fill="none" stroke="#c0505a" stroke-linecap="round" stroke-linejoin="round" stroke-width="1"/>
        <line id="Line_62-3" data-name="Line 62" x2="2.649" y2="0.341" transform="translate(69.439 286.307)" fill="none" stroke="#c0505a" stroke-linecap="round" stroke-linejoin="round" stroke-width="1"/>
        <path id="Path_1155-3" data-name="Path 1155" d="M42.937,234.39a3.333,3.333,0,0,1-.757.132" transform="translate(36.681 208.145)" fill="none" stroke="#222323" stroke-linecap="round" stroke-linejoin="round" stroke-width="1"/>
        <path id="Path_1156-3" data-name="Path 1156" d="M6.67,136.911l.151-.114a2.876,2.876,0,0,1,1.078-.53,4.9,4.9,0,0,1,3.784.605l49.364,27.075,3.406,1.892h0l6.452,3.538a14.607,14.607,0,0,1,6.622,11.788V316.922c0,2.762-1.116,4.617-2.838,5.128" transform="translate(5.004 120.485)" fill="none" stroke="#222323" stroke-linecap="round" stroke-linejoin="round" stroke-width="1"/>
        <path id="Path_1157-3" data-name="Path 1157" d="M71.112,324.211a4.333,4.333,0,0,1-4.749-.132l-3.311-1.892L7.122,291.591A14.645,14.645,0,0,1,.5,279.8V144.048c0-2.971,1.287-4.863,3.235-5.2a5.071,5.071,0,0,1,3.387.7l8.571,4.692,50.67,27.776A14.645,14.645,0,0,1,72.985,183.8V319.556a5.506,5.506,0,0,1-1.873,4.654Z" transform="translate(-0.5 122.866)" fill="none" stroke="#222323" stroke-linecap="round" stroke-linejoin="round" stroke-width="1"/>
        <path id="Path_1158-3" data-name="Path 1158" d="M61.911,314.333l-53.6-29.384A13.244,13.244,0,0,1,2.33,274.277v-122.8c0-4.087,2.668-5.9,5.979-4.106L20.1,153.848l41.815,22.932a13.245,13.245,0,0,1,6.017,10.652v122.8C67.928,314.314,65.222,316.149,61.911,314.333Z" transform="translate(1.132 129.906)" fill="none" stroke="#222323" stroke-linecap="round" stroke-linejoin="round" stroke-width="1"/>
        <line id="Line_63-3" data-name="Line 63" y1="0.208" x2="0.416" transform="translate(79.675 442.308)" fill="none" stroke="#222323" stroke-linecap="round" stroke-linejoin="round" stroke-width="1"/>
        <path id="Path_1159-3" data-name="Path 1159" d="M37.55,239.2l.511-.265,9.006-4.541.057-.019" transform="translate(32.551 208.136)" fill="none" stroke="#222323" stroke-linecap="round" stroke-linejoin="round" stroke-width="1"/>
        <path id="Path_1160-3" data-name="Path 1160" d="M21.76,177.5l15.288,7.852a5.676,5.676,0,0,1,2.687,5v30.538" transform="translate(18.465 157.396)" fill="none" stroke="#c0505a" stroke-linecap="round" stroke-linejoin="round" stroke-width="1"/>
        <path id="Path_1161-3" data-name="Path 1161" d="M25.229,214.145,9.941,206.274a5.525,5.525,0,0,1-2.668-5V170.76" transform="translate(5.536 151.383)" fill="none" stroke="#c0505a" stroke-linecap="round" stroke-linejoin="round" stroke-width="1"/>
        <line id="Line_64-3" data-name="Line 64" y2="25.448" transform="translate(36.384 337.772)" fill="none" stroke="#222323" stroke-linecap="round" stroke-linejoin="round" stroke-width="1"/>
        <line id="Line_65-3" data-name="Line 65" y2="25.467" transform="translate(38.825 339.058)" fill="none" stroke="#222323" stroke-linecap="round" stroke-linejoin="round" stroke-width="1"/>
        <line id="Line_66-3" data-name="Line 66" y2="25.448" transform="translate(41.152 340.364)" fill="none" stroke="#222323" stroke-linecap="round" stroke-linejoin="round" stroke-width="1"/>
        <path id="Path_1162-3" data-name="Path 1162" d="M26.15,182.37v25.448" transform="translate(22.381 161.74)" fill="none" stroke="#222323" stroke-linecap="round" stroke-linejoin="round" stroke-width="1"/>
        <path id="Path_1163-3" data-name="Path 1163" d="M27.37,183.09v25.448" transform="translate(23.47 162.382)" fill="none" stroke="#222323" stroke-linecap="round" stroke-linejoin="round" stroke-width="1"/>
        <line id="Line_67-3" data-name="Line 67" y2="25.448" transform="translate(53.3 346.721)" fill="none" stroke="#222323" stroke-linecap="round" stroke-linejoin="round" stroke-width="1"/>
        <line id="Line_68-3" data-name="Line 68" y2="25.448" transform="translate(16.423 327.1)" fill="none" stroke="#222323" stroke-linecap="round" stroke-linejoin="round" stroke-width="1"/>
        <line id="Line_69-3" data-name="Line 69" y2="25.448" transform="translate(21.191 329.655)" fill="none" stroke="#222323" stroke-linecap="round" stroke-linejoin="round" stroke-width="1"/>
        <line id="Line_70-3" data-name="Line 70" y2="25.467" transform="translate(23.651 330.941)" fill="none" stroke="#222323" stroke-linecap="round" stroke-linejoin="round" stroke-width="1"/>
        <line id="Line_71-3" data-name="Line 71" y2="25.448" transform="translate(26.111 332.36)" fill="none" stroke="#222323" stroke-linecap="round" stroke-linejoin="round" stroke-width="1"/>
        <line id="Line_72-3" data-name="Line 72" y2="25.448" transform="translate(28.57 333.666)" fill="none" stroke="#222323" stroke-linecap="round" stroke-linejoin="round" stroke-width="1"/>
        <line id="Line_73-3" data-name="Line 73" y2="25.448" transform="translate(30.879 334.801)" fill="none" stroke="#222323" stroke-linecap="round" stroke-linejoin="round" stroke-width="1"/>
        <path id="Path_1164-3" data-name="Path 1164" d="M17.917,226.97a5.26,5.26,0,0,1,0-7.4,5.26,5.26,0,0,1,7.322,1.078,5.26,5.26,0,0,1,0,7.4,5.26,5.26,0,0,1-7.322-1.078Z" transform="translate(13.681 194.014)" fill="none" stroke="#222323" stroke-linecap="round" stroke-linejoin="round" stroke-width="1"/>
      </g>
    </g>
  </g>
</svg>
