<svg xmlns="http://www.w3.org/2000/svg" width="568.522" height="458.098" viewBox="0 0 568.522 458.098">
  <g id="Group_13" data-name="Group 13" transform="translate(-1168.459 -2799.683)">
    <path id="Path_744" data-name="Path 744" d="M-968.07,9133.188c-3.1,182.29,506.343,150.868,495.5,49.051s-125.811-88.327-157.942-160.583S-964.973,8950.9-968.07,9133.188Z" transform="matrix(-0.921, -0.391, 0.391, -0.921, -2774.018, 11142.988)" fill="#024a59"/>
    <g id="Layer_2" data-name="Layer 2" transform="translate(1263.742 2903.5)">
      <g id="Layer_4" data-name="Layer 4" transform="translate(0.5 0.5)">
        <path id="Path_1041" data-name="Path 1041" d="M383.636,142.19v.094L281.19,138.525,383.636,104.58Z" transform="translate(48.5 17.669)" fill="#f2f2f2"/>
        <path id="Path_1042" data-name="Path 1042" d="M431.923,112.2,329.476,146.142l-143.145-5.25L4.59,96.528,179.19,60.95Z" transform="translate(0.214 10.053)" fill="#f2f2f2"/>
        <path id="Path_1043" data-name="Path 1043" d="M302.465,134.26l-51.6,17.1L159.32,129.01Z" transform="translate(27.225 21.934)" fill="#f2f2f2"/>
        <path id="Path_1044" data-name="Path 1044" d="M391.309,137.239,237.263,188.286l-.023-.012.023-.094v-37.6l51.6-17.1Z" transform="translate(40.828 22.714)" fill="#f2f2f2"/>
        <path id="Path_1045" data-name="Path 1045" d="M237.92,148v37.586C231.742,177.482,232.259,164.55,237.92,148Z" transform="translate(40.171 25.249)" fill="#f2f2f2"/>
        <path id="Path_1046" data-name="Path 1046" d="M277.878,189.95v.094L4.59,123.34l181.741,6.648L277.878,152.3C272.216,168.855,271.7,181.787,277.878,189.95Z" transform="translate(0.214 20.944)" fill="#f2f2f2"/>
        <path id="Path_1047" data-name="Path 1047" d="M186.331,135.6,4.59,128.944V91.24Z" transform="translate(0.214 15.341)" fill="#f2f2f2"/>
        <path id="Path_1048" data-name="Path 1048" d="M5.3,91.24v37.586Q-4.3,116.446,5.3,91.24Z" transform="translate(-0.5 15.341)" fill="#f2f2f2"/>
        <path id="Path_1049" data-name="Path 1049" d="M4.59,123.34l273.264,66.7.023.012,154.045-51.047" transform="translate(0.214 20.944)" fill="none" stroke="#222323" stroke-linecap="round" stroke-linejoin="round" stroke-width="1"/>
        <path id="Path_1050" data-name="Path 1050" d="M4.59,96.528l181.741,44.364,91.546,22.352,51.6-17.1L431.923,112.2,179.19,60.95Z" transform="translate(0.214 10.053)" fill="none" stroke="#222323" stroke-linecap="round" stroke-linejoin="round" stroke-width="1"/>
        <line id="Line_59" data-name="Line 59" y2="37.61" transform="translate(432.137 122.249)" fill="none" stroke="#222323" stroke-linecap="round" stroke-linejoin="round" stroke-width="1"/>
        <path id="Path_1051" data-name="Path 1051" d="M5.3,91.24q-9.608,25.195,0,37.586" transform="translate(-0.5 15.341)" fill="none" stroke="#222323" stroke-linecap="round" stroke-linejoin="round" stroke-width="1"/>
        <path id="Path_1052" data-name="Path 1052" d="M237.922,148c-5.661,16.5-6.213,29.435,0,37.586" transform="translate(40.169 25.249)" fill="none" stroke="#222323" stroke-linecap="round" stroke-linejoin="round" stroke-width="1"/>
        <path id="Path_1053" data-name="Path 1053" d="M267.652,15.63c-14.788.834-22.481,8.128-25.841,12.7A32.394,32.394,0,0,1,256.306,24.3c18.535-1.045,54.946,11.558-52.034,66.469l-2.842,4.7C332.477,29.431,289.382,14.4,267.652,15.63Z" transform="translate(34.577 2.129)" fill="#c0505a" stroke="#222323" stroke-miterlimit="10" stroke-width="1"/>
        <path id="Path_1054" data-name="Path 1054" d="M271.085,17.46c-14.788.834-22.481,8.128-25.841,12.7a32.406,32.406,0,0,1,14.541-4.064c18.535-1.057,54.946,11.546-52.034,66.457l-2.842,4.7C335.863,31.273,292.815,16.227,271.085,17.46Z" transform="translate(35.184 2.449)" fill="#c0505a" stroke="#222323" stroke-miterlimit="10" stroke-width="1"/>
        <ellipse id="Ellipse_1" data-name="Ellipse 1" cx="71.109" cy="13.108" rx="71.109" ry="13.108" transform="translate(154.679 106.029)" fill="#f2f2f2" stroke="#222323" stroke-linecap="round" stroke-linejoin="round" stroke-width="1"/>
        <ellipse id="Ellipse_2" data-name="Ellipse 2" cx="134.3" cy="23.022" rx="134.3" ry="23.022" transform="translate(89.937 80.987)" fill="#f2f2f2" stroke="#222323" stroke-linecap="round" stroke-linejoin="round" stroke-width="1"/>
        <ellipse id="Ellipse_3" data-name="Ellipse 3" cx="71.109" cy="13.108" rx="71.109" ry="13.108" transform="translate(154.562 95.434)" fill="#c0505a" stroke="#222323" stroke-miterlimit="10" stroke-width="1"/>
        <path id="Path_1055" data-name="Path 1055" d="M127.134,9.6c-2.349,33.769,12.662,97.278,77.2,100.907H204.1c64.6-3.629,79.589-67.139,77.2-100.907" transform="translate(21.567 1.089)" fill="#f2f2f2" stroke="#222323" stroke-linecap="round" stroke-linejoin="round" stroke-width="1"/>
        <ellipse id="Ellipse_4" data-name="Ellipse 4" cx="77.205" cy="10.689" rx="77.205" ry="10.689" transform="translate(148.466)" fill="#f2f2f2" stroke="#222323" stroke-linecap="round" stroke-linejoin="round" stroke-width="1"/>
      </g>
    </g>
    <g id="Layer_2-2" data-name="Layer 2" transform="translate(1263.742 2903.5)">
      <g id="Layer_4-2" data-name="Layer 4" transform="translate(0.5 0.5)">
        <path id="Path_1041-2" data-name="Path 1041" d="M383.636,142.19v.094L281.19,138.525,383.636,104.58Z" transform="translate(48.5 17.669)" fill="#f2f2f2"/>
        <path id="Path_1042-2" data-name="Path 1042" d="M431.923,112.2,329.476,146.142l-143.145-5.25L4.59,96.528,179.19,60.95Z" transform="translate(0.214 10.053)" fill="#f2f2f2"/>
        <path id="Path_1043-2" data-name="Path 1043" d="M302.465,134.26l-51.6,17.1L159.32,129.01Z" transform="translate(27.225 21.934)" fill="#f2f2f2"/>
        <path id="Path_1044-2" data-name="Path 1044" d="M391.309,137.239,237.263,188.286l-.023-.012.023-.094v-37.6l51.6-17.1Z" transform="translate(40.828 22.714)" fill="#f2f2f2"/>
        <path id="Path_1045-2" data-name="Path 1045" d="M237.92,148v37.586C231.742,177.482,232.259,164.55,237.92,148Z" transform="translate(40.171 25.249)" fill="#f2f2f2"/>
        <path id="Path_1046-2" data-name="Path 1046" d="M277.878,189.95v.094L4.59,123.34l181.741,6.648L277.878,152.3C272.216,168.855,271.7,181.787,277.878,189.95Z" transform="translate(0.214 20.944)" fill="#f2f2f2"/>
        <path id="Path_1047-2" data-name="Path 1047" d="M186.331,135.6,4.59,128.944V91.24Z" transform="translate(0.214 15.341)" fill="#f2f2f2"/>
        <path id="Path_1048-2" data-name="Path 1048" d="M5.3,91.24v37.586Q-4.3,116.446,5.3,91.24Z" transform="translate(-0.5 15.341)" fill="#f2f2f2"/>
        <path id="Path_1049-2" data-name="Path 1049" d="M4.59,123.34l273.264,66.7.023.012,154.045-51.047" transform="translate(0.214 20.944)" fill="none" stroke="#222323" stroke-linecap="round" stroke-linejoin="round" stroke-width="1"/>
        <path id="Path_1050-2" data-name="Path 1050" d="M4.59,96.528l181.741,44.364,91.546,22.352,51.6-17.1L431.923,112.2,179.19,60.95Z" transform="translate(0.214 10.053)" fill="none" stroke="#222323" stroke-linecap="round" stroke-linejoin="round" stroke-width="1"/>
        <line id="Line_59-2" data-name="Line 59" y2="37.61" transform="translate(432.137 122.249)" fill="none" stroke="#222323" stroke-linecap="round" stroke-linejoin="round" stroke-width="1"/>
        <path id="Path_1051-2" data-name="Path 1051" d="M5.3,91.24q-9.608,25.195,0,37.586" transform="translate(-0.5 15.341)" fill="none" stroke="#222323" stroke-linecap="round" stroke-linejoin="round" stroke-width="1"/>
        <path id="Path_1052-2" data-name="Path 1052" d="M237.922,148c-5.661,16.5-6.213,29.435,0,37.586" transform="translate(40.169 25.249)" fill="none" stroke="#222323" stroke-linecap="round" stroke-linejoin="round" stroke-width="1"/>
        <path id="Path_1053-2" data-name="Path 1053" d="M267.652,15.63c-14.788.834-22.481,8.128-25.841,12.7A32.394,32.394,0,0,1,256.306,24.3c18.535-1.045,54.946,11.558-52.034,66.469l-2.842,4.7C332.477,29.431,289.382,14.4,267.652,15.63Z" transform="translate(34.577 2.129)" fill="#c0505a" stroke="#222323" stroke-miterlimit="10" stroke-width="1"/>
        <path id="Path_1054-2" data-name="Path 1054" d="M271.085,17.46c-14.788.834-22.481,8.128-25.841,12.7a32.406,32.406,0,0,1,14.541-4.064c18.535-1.057,54.946,11.546-52.034,66.457l-2.842,4.7C335.863,31.273,292.815,16.227,271.085,17.46Z" transform="translate(35.184 2.449)" fill="#c0505a" stroke="#222323" stroke-miterlimit="10" stroke-width="1"/>
        <ellipse id="Ellipse_1-2" data-name="Ellipse 1" cx="71.109" cy="13.108" rx="71.109" ry="13.108" transform="translate(154.679 106.029)" fill="#f2f2f2" stroke="#222323" stroke-linecap="round" stroke-linejoin="round" stroke-width="1"/>
        <ellipse id="Ellipse_2-2" data-name="Ellipse 2" cx="134.3" cy="23.022" rx="134.3" ry="23.022" transform="translate(89.937 80.987)" fill="#f2f2f2" stroke="#222323" stroke-linecap="round" stroke-linejoin="round" stroke-width="1"/>
        <ellipse id="Ellipse_3-2" data-name="Ellipse 3" cx="71.109" cy="13.108" rx="71.109" ry="13.108" transform="translate(154.562 95.434)" fill="#c0505a" stroke="#222323" stroke-miterlimit="10" stroke-width="1"/>
        <path id="Path_1055-2" data-name="Path 1055" d="M127.134,9.6c-2.349,33.769,12.662,97.278,77.2,100.907H204.1c64.6-3.629,79.589-67.139,77.2-100.907" transform="translate(21.567 1.089)" fill="#f2f2f2" stroke="#222323" stroke-linecap="round" stroke-linejoin="round" stroke-width="1"/>
        <ellipse id="Ellipse_4-2" data-name="Ellipse 4" cx="77.205" cy="10.689" rx="77.205" ry="10.689" transform="translate(148.466)" fill="#f2f2f2" stroke="#222323" stroke-linecap="round" stroke-linejoin="round" stroke-width="1"/>
      </g>
    </g>
    <g id="Layer_2-3" data-name="Layer 2" transform="translate(1263.742 2903.5)">
      <g id="Layer_4-3" data-name="Layer 4" transform="translate(0.5 0.5)">
        <path id="Path_1041-3" data-name="Path 1041" d="M383.636,142.19v.094L281.19,138.525,383.636,104.58Z" transform="translate(48.5 17.669)" fill="#f2f2f2"/>
        <path id="Path_1042-3" data-name="Path 1042" d="M431.923,112.2,329.476,146.142l-143.145-5.25L4.59,96.528,179.19,60.95Z" transform="translate(0.214 10.053)" fill="#f2f2f2"/>
        <path id="Path_1043-3" data-name="Path 1043" d="M302.465,134.26l-51.6,17.1L159.32,129.01Z" transform="translate(27.225 21.934)" fill="#f2f2f2"/>
        <path id="Path_1044-3" data-name="Path 1044" d="M391.309,137.239,237.263,188.286l-.023-.012.023-.094v-37.6l51.6-17.1Z" transform="translate(40.828 22.714)" fill="#f2f2f2"/>
        <path id="Path_1045-3" data-name="Path 1045" d="M237.92,148v37.586C231.742,177.482,232.259,164.55,237.92,148Z" transform="translate(40.171 25.249)" fill="#f2f2f2"/>
        <path id="Path_1046-3" data-name="Path 1046" d="M277.878,189.95v.094L4.59,123.34l181.741,6.648L277.878,152.3C272.216,168.855,271.7,181.787,277.878,189.95Z" transform="translate(0.214 20.944)" fill="#f2f2f2"/>
        <path id="Path_1047-3" data-name="Path 1047" d="M186.331,135.6,4.59,128.944V91.24Z" transform="translate(0.214 15.341)" fill="#f2f2f2"/>
        <path id="Path_1048-3" data-name="Path 1048" d="M5.3,91.24v37.586Q-4.3,116.446,5.3,91.24Z" transform="translate(-0.5 15.341)" fill="#f2f2f2"/>
        <path id="Path_1049-3" data-name="Path 1049" d="M4.59,123.34l273.264,66.7.023.012,154.045-51.047" transform="translate(0.214 20.944)" fill="none" stroke="#222323" stroke-linecap="round" stroke-linejoin="round" stroke-width="1"/>
        <path id="Path_1050-3" data-name="Path 1050" d="M4.59,96.528l181.741,44.364,91.546,22.352,51.6-17.1L431.923,112.2,179.19,60.95Z" transform="translate(0.214 10.053)" fill="none" stroke="#222323" stroke-linecap="round" stroke-linejoin="round" stroke-width="1"/>
        <line id="Line_59-3" data-name="Line 59" y2="37.61" transform="translate(432.137 122.249)" fill="none" stroke="#222323" stroke-linecap="round" stroke-linejoin="round" stroke-width="1"/>
        <path id="Path_1051-3" data-name="Path 1051" d="M5.3,91.24q-9.608,25.195,0,37.586" transform="translate(-0.5 15.341)" fill="none" stroke="#222323" stroke-linecap="round" stroke-linejoin="round" stroke-width="1"/>
        <path id="Path_1052-3" data-name="Path 1052" d="M237.922,148c-5.661,16.5-6.213,29.435,0,37.586" transform="translate(40.169 25.249)" fill="none" stroke="#222323" stroke-linecap="round" stroke-linejoin="round" stroke-width="1"/>
        <path id="Path_1053-3" data-name="Path 1053" d="M267.652,15.63c-14.788.834-22.481,8.128-25.841,12.7A32.394,32.394,0,0,1,256.306,24.3c18.535-1.045,54.946,11.558-52.034,66.469l-2.842,4.7C332.477,29.431,289.382,14.4,267.652,15.63Z" transform="translate(34.577 2.129)" fill="#c0505a" stroke="#222323" stroke-miterlimit="10" stroke-width="1"/>
        <path id="Path_1054-3" data-name="Path 1054" d="M271.085,17.46c-14.788.834-22.481,8.128-25.841,12.7a32.406,32.406,0,0,1,14.541-4.064c18.535-1.057,54.946,11.546-52.034,66.457l-2.842,4.7C335.863,31.273,292.815,16.227,271.085,17.46Z" transform="translate(35.184 2.449)" fill="#c0505a" stroke="#222323" stroke-miterlimit="10" stroke-width="1"/>
        <ellipse id="Ellipse_1-3" data-name="Ellipse 1" cx="71.109" cy="13.108" rx="71.109" ry="13.108" transform="translate(154.679 106.029)" fill="#f2f2f2" stroke="#222323" stroke-linecap="round" stroke-linejoin="round" stroke-width="1"/>
        <ellipse id="Ellipse_2-3" data-name="Ellipse 2" cx="134.3" cy="23.022" rx="134.3" ry="23.022" transform="translate(89.937 80.987)" fill="#f2f2f2" stroke="#222323" stroke-linecap="round" stroke-linejoin="round" stroke-width="1"/>
        <ellipse id="Ellipse_3-3" data-name="Ellipse 3" cx="71.109" cy="13.108" rx="71.109" ry="13.108" transform="translate(154.562 95.434)" fill="#c0505a" stroke="#222323" stroke-miterlimit="10" stroke-width="1"/>
        <path id="Path_1055-3" data-name="Path 1055" d="M127.134,9.6c-2.349,33.769,12.662,97.278,77.2,100.907H204.1c64.6-3.629,79.589-67.139,77.2-100.907" transform="translate(21.567 1.089)" fill="#f2f2f2" stroke="#222323" stroke-linecap="round" stroke-linejoin="round" stroke-width="1"/>
        <ellipse id="Ellipse_4-3" data-name="Ellipse 4" cx="77.205" cy="10.689" rx="77.205" ry="10.689" transform="translate(148.466)" fill="#f2f2f2" stroke="#222323" stroke-linecap="round" stroke-linejoin="round" stroke-width="1"/>
      </g>
    </g>
  </g>
</svg>
