<svg width="429" height="359" viewBox="0 0 429 359" fill="none" xmlns="http://www.w3.org/2000/svg">
<path d="M78.807 116.661C78.711 116.064 78.5403 115.568 78.295 115.173C78.0496 114.768 77.735 114.464 77.351 114.261C76.9776 114.058 76.5403 113.962 76.039 113.973C75.5803 113.973 75.175 114.101 74.823 114.357C74.4816 114.613 74.311 114.944 74.311 115.349C74.311 115.68 74.4016 115.968 74.583 116.213C74.775 116.458 75.063 116.688 75.447 116.901C75.831 117.114 76.3163 117.344 76.903 117.589C77.3083 117.749 77.7243 117.936 78.151 118.149C78.5776 118.362 78.9723 118.618 79.335 118.917C79.6976 119.205 79.991 119.546 80.215 119.941C80.439 120.325 80.551 120.778 80.551 121.301C80.551 121.93 80.3803 122.49 80.039 122.981C79.6976 123.472 79.2176 123.856 78.599 124.133C77.991 124.4 77.2763 124.533 76.455 124.533C76.0283 124.533 75.5643 124.464 75.063 124.325C74.5723 124.197 74.1083 124.005 73.671 123.749L73.719 124.421H72.487V120.677H73.543C73.6923 121.573 74.0336 122.25 74.567 122.709C75.111 123.157 75.7563 123.381 76.503 123.381C76.887 123.381 77.223 123.312 77.511 123.173C77.799 123.034 78.023 122.853 78.183 122.629C78.343 122.394 78.423 122.144 78.423 121.877C78.423 121.504 78.2896 121.194 78.023 120.949C77.767 120.704 77.4416 120.496 77.047 120.325C76.663 120.154 76.2683 119.989 75.863 119.829C75.351 119.616 74.871 119.392 74.423 119.157C73.9856 118.912 73.6016 118.634 73.271 118.325C72.9403 118.016 72.6843 117.664 72.503 117.269C72.3216 116.864 72.231 116.4 72.231 115.877C72.231 115.546 72.295 115.205 72.423 114.853C72.551 114.49 72.759 114.16 73.047 113.861C73.335 113.552 73.719 113.301 74.199 113.109C74.679 112.917 75.271 112.821 75.975 112.821C76.4016 112.821 76.8656 112.885 77.367 113.013C77.879 113.141 78.3163 113.333 78.679 113.589L78.615 112.933H79.863V116.661H78.807ZM85.5375 124.533C84.8228 124.533 84.1668 124.373 83.5695 124.053C82.9721 123.733 82.4921 123.269 82.1295 122.661C81.7775 122.053 81.6015 121.317 81.6015 120.453C81.6015 119.845 81.7028 119.274 81.9055 118.741C82.1081 118.208 82.3908 117.738 82.7535 117.333C83.1268 116.928 83.5641 116.608 84.0655 116.373C84.5775 116.138 85.1428 116.021 85.7615 116.021C86.4441 116.021 87.0095 116.128 87.4575 116.341C87.9161 116.544 88.2575 116.816 88.4815 117.157C88.7161 117.488 88.8335 117.84 88.8335 118.213C88.8335 118.522 88.7375 118.8 88.5455 119.045C88.3641 119.28 88.1028 119.402 87.7615 119.413C87.3561 119.424 87.0735 119.312 86.9135 119.077C86.7535 118.832 86.6735 118.597 86.6735 118.373C86.6735 118.277 86.6895 118.165 86.7215 118.037C86.7535 117.898 86.8015 117.776 86.8655 117.669C86.7908 117.509 86.6788 117.392 86.5295 117.317C86.3801 117.242 86.2255 117.194 86.0655 117.173C85.9161 117.141 85.7935 117.13 85.6975 117.141C85.1855 117.173 84.7641 117.429 84.4335 117.909C84.1028 118.389 83.9375 119.082 83.9375 119.989C83.9375 120.522 84.0015 121.024 84.1295 121.493C84.2681 121.952 84.4921 122.33 84.8015 122.629C85.1108 122.928 85.5268 123.088 86.0495 123.109C86.4975 123.12 86.9348 123.013 87.3615 122.789C87.7881 122.565 88.1508 122.261 88.4495 121.877L89.1855 122.597C88.8015 123.13 88.4015 123.536 87.9855 123.813C87.5695 124.09 87.1535 124.277 86.7375 124.373C86.3321 124.48 85.9321 124.533 85.5375 124.533ZM94.4907 124.277C94.4694 124.128 94.4534 124.005 94.4427 123.909C94.4427 123.802 94.4374 123.68 94.4267 123.541C94.0641 123.904 93.6801 124.16 93.2747 124.309C92.8694 124.458 92.4587 124.533 92.0427 124.533C91.3601 124.533 90.8267 124.33 90.4427 123.925C90.0587 123.52 89.8667 123.013 89.8667 122.405C89.8667 121.893 89.9947 121.456 90.2507 121.093C90.5174 120.73 90.8641 120.437 91.2907 120.213C91.7281 119.978 92.2081 119.802 92.7307 119.685C93.2641 119.557 93.7974 119.482 94.3307 119.461V118.629C94.3307 118.352 94.2934 118.101 94.2187 117.877C94.1547 117.653 94.0374 117.477 93.8667 117.349C93.7067 117.221 93.4774 117.162 93.1787 117.173C92.9761 117.184 92.7787 117.226 92.5867 117.301C92.3947 117.376 92.2294 117.482 92.0907 117.621C92.1761 117.717 92.2294 117.824 92.2507 117.941C92.2721 118.048 92.2827 118.144 92.2827 118.229C92.2827 118.442 92.1974 118.666 92.0267 118.901C91.8561 119.125 91.5841 119.232 91.2107 119.221C90.8907 119.21 90.6454 119.098 90.4747 118.885C90.3041 118.672 90.2187 118.421 90.2187 118.133C90.2187 117.706 90.3681 117.338 90.6667 117.029C90.9761 116.709 91.3867 116.464 91.8987 116.293C92.4107 116.112 92.9761 116.021 93.5947 116.021C94.5334 116.021 95.2587 116.266 95.7707 116.757C96.2934 117.237 96.5547 118.01 96.5547 119.077C96.5547 119.44 96.5547 119.749 96.5547 120.005C96.5547 120.261 96.5494 120.517 96.5387 120.773C96.5387 121.029 96.5387 121.338 96.5387 121.701C96.5387 121.85 96.5334 122.064 96.5227 122.341C96.5121 122.608 96.4961 122.864 96.4747 123.109C96.6561 123.088 96.8481 123.077 97.0507 123.077C97.2534 123.066 97.4081 123.061 97.5147 123.061V124.277H94.4907ZM94.3147 120.597C94.0161 120.629 93.7334 120.682 93.4667 120.757C93.2001 120.832 92.9654 120.933 92.7627 121.061C92.5707 121.189 92.4161 121.344 92.2987 121.525C92.1921 121.706 92.1387 121.909 92.1387 122.133C92.1494 122.432 92.2454 122.645 92.4267 122.773C92.6081 122.901 92.8161 122.965 93.0507 122.965C93.2961 122.965 93.5254 122.912 93.7387 122.805C93.9521 122.698 94.1441 122.56 94.3147 122.389C94.3147 122.282 94.3147 122.181 94.3147 122.085C94.3147 121.978 94.3147 121.872 94.3147 121.765C94.3147 121.573 94.3147 121.381 94.3147 121.189C94.3147 120.986 94.3147 120.789 94.3147 120.597ZM98.4333 124.277V123.237C98.732 123.237 98.9453 123.178 99.0733 123.061C99.2013 122.944 99.2813 122.778 99.3133 122.565C99.356 122.341 99.3773 122.09 99.3773 121.813V119.125C99.3773 118.933 99.3827 118.72 99.3933 118.485C99.404 118.24 99.42 118 99.4413 117.765C99.2707 117.776 99.068 117.786 98.8333 117.797C98.6093 117.797 98.4387 117.802 98.3213 117.813V116.597C98.812 116.597 99.228 116.57 99.5693 116.517C99.9107 116.464 100.177 116.4 100.369 116.325C100.572 116.25 100.711 116.181 100.785 116.117H101.569C101.591 116.256 101.601 116.357 101.601 116.421C101.601 116.485 101.601 116.549 101.601 116.613C101.612 116.666 101.633 116.768 101.665 116.917C101.879 116.746 102.124 116.597 102.401 116.469C102.679 116.33 102.956 116.224 103.233 116.149C103.511 116.064 103.756 116.021 103.969 116.021C104.951 116.021 105.644 116.304 106.049 116.869C106.465 117.424 106.673 118.32 106.673 119.557V121.701C106.673 121.85 106.668 122.064 106.657 122.341C106.647 122.608 106.631 122.864 106.609 123.109C106.791 123.088 106.983 123.077 107.185 123.077C107.388 123.066 107.543 123.061 107.649 123.061V124.277H103.457V123.237C103.756 123.237 103.969 123.178 104.097 123.061C104.236 122.944 104.321 122.778 104.353 122.565C104.396 122.341 104.417 122.09 104.417 121.813L104.401 119.541C104.401 118.848 104.3 118.336 104.097 118.005C103.905 117.664 103.575 117.493 103.105 117.493C102.839 117.493 102.572 117.552 102.305 117.669C102.049 117.786 101.831 117.925 101.649 118.085C101.649 118.234 101.649 118.389 101.649 118.549C101.649 118.698 101.649 118.848 101.649 118.997V121.701C101.649 121.85 101.644 122.064 101.633 122.341C101.623 122.608 101.607 122.864 101.585 123.109C101.756 123.088 101.943 123.077 102.145 123.077C102.359 123.066 102.519 123.061 102.625 123.061V124.277H98.4333ZM115.976 124.533C115.656 124.533 115.347 124.496 115.048 124.421C114.76 124.346 114.494 124.208 114.248 124.005C114.014 123.792 113.827 123.482 113.688 123.077C113.55 122.672 113.48 122.133 113.48 121.461L113.512 117.605H112.424V116.277C112.755 116.266 113.075 116.154 113.384 115.941C113.694 115.728 113.955 115.45 114.168 115.109C114.392 114.768 114.542 114.41 114.616 114.037H115.8L115.784 116.277H117.816V117.509L115.784 117.557L115.768 121.493C115.768 121.738 115.79 121.984 115.832 122.229C115.886 122.464 115.982 122.661 116.12 122.821C116.259 122.97 116.462 123.045 116.728 123.045C116.878 123.045 117.08 122.992 117.336 122.885C117.603 122.778 117.886 122.512 118.184 122.085L118.952 122.805C118.664 123.232 118.366 123.562 118.056 123.797C117.747 124.032 117.448 124.202 117.16 124.309C116.883 124.416 116.638 124.48 116.424 124.501C116.211 124.522 116.062 124.533 115.976 124.533ZM124.186 123.237C124.484 123.237 124.698 123.178 124.826 123.061C124.964 122.944 125.05 122.778 125.082 122.565C125.124 122.341 125.146 122.09 125.146 121.813L125.13 119.541C125.13 118.848 125.023 118.336 124.81 118.005C124.607 117.664 124.282 117.493 123.834 117.493C123.567 117.493 123.3 117.552 123.034 117.669C122.778 117.786 122.559 117.925 122.378 118.085V121.701C122.378 121.85 122.372 122.064 122.362 122.341C122.351 122.608 122.335 122.864 122.314 123.109C122.495 123.088 122.687 123.077 122.89 123.077C123.092 123.066 123.247 123.061 123.354 123.061V124.277H119.162V123.237C119.46 123.237 119.674 123.178 119.802 123.061C119.94 122.944 120.026 122.778 120.058 122.565C120.09 122.341 120.106 122.09 120.106 121.813V115.237C120.106 115.045 120.111 114.826 120.122 114.581C120.132 114.325 120.148 114.08 120.17 113.845C119.999 113.856 119.796 113.866 119.562 113.877C119.338 113.877 119.167 113.882 119.05 113.893V112.677C119.551 112.677 119.967 112.65 120.298 112.597C120.639 112.544 120.906 112.48 121.098 112.405C121.3 112.33 121.439 112.261 121.514 112.197H122.378V116.917C122.591 116.746 122.836 116.597 123.114 116.469C123.391 116.33 123.674 116.224 123.962 116.149C124.25 116.064 124.5 116.021 124.714 116.021C125.695 116.021 126.388 116.304 126.794 116.869C127.199 117.424 127.407 118.32 127.418 119.557V121.701C127.418 121.85 127.412 122.064 127.402 122.341C127.391 122.608 127.375 122.864 127.354 123.109C127.524 123.088 127.711 123.077 127.914 123.077C128.116 123.066 128.276 123.061 128.394 123.061V124.277H124.186V123.237ZM133.147 124.533C132.369 124.533 131.681 124.362 131.083 124.021C130.486 123.669 130.022 123.178 129.691 122.549C129.361 121.909 129.195 121.157 129.195 120.293C129.195 119.546 129.361 118.848 129.691 118.197C130.022 117.546 130.486 117.024 131.083 116.629C131.691 116.224 132.395 116.021 133.195 116.021C133.643 116.021 134.081 116.085 134.507 116.213C134.934 116.33 135.318 116.538 135.659 116.837C136.011 117.136 136.289 117.541 136.491 118.053C136.705 118.565 136.806 119.205 136.795 119.973L131.547 120.069C131.547 120.645 131.617 121.162 131.755 121.621C131.905 122.08 132.145 122.442 132.475 122.709C132.806 122.976 133.249 123.109 133.803 123.109C134.017 123.109 134.257 123.072 134.523 122.997C134.801 122.922 135.078 122.8 135.355 122.629C135.643 122.448 135.91 122.208 136.155 121.909L136.875 122.581C136.491 123.125 136.081 123.541 135.643 123.829C135.206 124.106 134.769 124.293 134.331 124.389C133.905 124.485 133.51 124.533 133.147 124.533ZM131.643 118.949H134.587C134.577 118.501 134.513 118.149 134.395 117.893C134.289 117.626 134.139 117.434 133.947 117.317C133.755 117.2 133.531 117.141 133.275 117.141C132.806 117.141 132.438 117.312 132.171 117.653C131.905 117.984 131.729 118.416 131.643 118.949ZM77.7072 135.237C77.7072 135.045 77.7072 134.826 77.7072 134.581C77.7179 134.325 77.7339 134.08 77.7552 133.845C77.5846 133.856 77.3819 133.866 77.1472 133.877C76.9232 133.877 76.7526 133.882 76.6352 133.893V132.677C77.1366 132.677 77.5526 132.65 77.8832 132.597C78.2246 132.544 78.4912 132.48 78.6832 132.405C78.8859 132.33 79.0246 132.261 79.0992 132.197H79.9632V136.885C80.3259 136.565 80.6939 136.341 81.0672 136.213C81.4406 136.085 81.7926 136.021 82.1232 136.021C82.7632 136.021 83.3232 136.186 83.8032 136.517C84.2939 136.848 84.6726 137.317 84.9392 137.925C85.2166 138.533 85.3552 139.248 85.3552 140.069C85.3552 140.922 85.1952 141.69 84.8752 142.373C84.5659 143.045 84.1232 143.573 83.5472 143.957C82.9712 144.341 82.2779 144.533 81.4672 144.533C81.1792 144.533 80.8112 144.469 80.3632 144.341C79.9259 144.224 79.5206 143.968 79.1472 143.573L78.6672 144.277H77.7072V135.237ZM79.9632 141.877C79.9632 142.24 80.0219 142.528 80.1392 142.741C80.2566 142.954 80.4059 143.109 80.5872 143.205C80.7686 143.301 80.9499 143.354 81.1312 143.365C81.6112 143.376 81.9846 143.237 82.2512 142.949C82.5286 142.661 82.7206 142.282 82.8272 141.813C82.9446 141.333 83.0032 140.832 83.0032 140.309C83.0032 139.818 82.9446 139.354 82.8272 138.917C82.7099 138.48 82.5232 138.128 82.2672 137.861C82.0112 137.584 81.6752 137.45 81.2592 137.461C80.9926 137.472 80.7472 137.541 80.5232 137.669C80.2992 137.786 80.1126 137.946 79.9632 138.149V141.877ZM90.9751 144.277C90.9538 144.128 90.9378 144.005 90.9271 143.909C90.9271 143.802 90.9218 143.68 90.9111 143.541C90.5484 143.904 90.1644 144.16 89.7591 144.309C89.3538 144.458 88.9431 144.533 88.5271 144.533C87.8444 144.533 87.3111 144.33 86.9271 143.925C86.5431 143.52 86.3511 143.013 86.3511 142.405C86.3511 141.893 86.4791 141.456 86.7351 141.093C87.0018 140.73 87.3484 140.437 87.7751 140.213C88.2124 139.978 88.6924 139.802 89.2151 139.685C89.7484 139.557 90.2818 139.482 90.8151 139.461V138.629C90.8151 138.352 90.7778 138.101 90.7031 137.877C90.6391 137.653 90.5218 137.477 90.3511 137.349C90.1911 137.221 89.9618 137.162 89.6631 137.173C89.4604 137.184 89.2631 137.226 89.0711 137.301C88.8791 137.376 88.7138 137.482 88.5751 137.621C88.6604 137.717 88.7138 137.824 88.7351 137.941C88.7564 138.048 88.7671 138.144 88.7671 138.229C88.7671 138.442 88.6818 138.666 88.5111 138.901C88.3404 139.125 88.0684 139.232 87.6951 139.221C87.3751 139.21 87.1298 139.098 86.9591 138.885C86.7884 138.672 86.7031 138.421 86.7031 138.133C86.7031 137.706 86.8524 137.338 87.1511 137.029C87.4604 136.709 87.8711 136.464 88.3831 136.293C88.8951 136.112 89.4604 136.021 90.0791 136.021C91.0178 136.021 91.7431 136.266 92.2551 136.757C92.7778 137.237 93.0391 138.01 93.0391 139.077C93.0391 139.44 93.0391 139.749 93.0391 140.005C93.0391 140.261 93.0338 140.517 93.0231 140.773C93.0231 141.029 93.0231 141.338 93.0231 141.701C93.0231 141.85 93.0178 142.064 93.0071 142.341C92.9964 142.608 92.9804 142.864 92.9591 143.109C93.1404 143.088 93.3324 143.077 93.5351 143.077C93.7378 143.066 93.8924 143.061 93.9991 143.061V144.277H90.9751ZM90.7991 140.597C90.5004 140.629 90.2178 140.682 89.9511 140.757C89.6844 140.832 89.4498 140.933 89.2471 141.061C89.0551 141.189 88.9004 141.344 88.7831 141.525C88.6764 141.706 88.6231 141.909 88.6231 142.133C88.6338 142.432 88.7298 142.645 88.9111 142.773C89.0924 142.901 89.3004 142.965 89.5351 142.965C89.7804 142.965 90.0098 142.912 90.2231 142.805C90.4364 142.698 90.6284 142.56 90.7991 142.389C90.7991 142.282 90.7991 142.181 90.7991 142.085C90.7991 141.978 90.7991 141.872 90.7991 141.765C90.7991 141.573 90.7991 141.381 90.7991 141.189C90.7991 140.986 90.7991 140.789 90.7991 140.597ZM94.9177 143.237C95.2164 143.237 95.4297 143.178 95.5577 143.061C95.6857 142.944 95.7657 142.778 95.7977 142.565C95.8404 142.341 95.8617 142.09 95.8617 141.813V139.125C95.8617 138.933 95.8671 138.72 95.8777 138.485C95.8884 138.24 95.9044 138 95.9257 137.765C95.7551 137.776 95.5524 137.786 95.3177 137.797C95.0937 137.797 94.9231 137.802 94.8057 137.813V136.597H95.4457C95.8617 136.597 96.2404 136.544 96.5817 136.437C96.9337 136.33 97.1631 136.224 97.2697 136.117H98.0537C98.0751 136.224 98.0911 136.426 98.1017 136.725C98.1124 137.013 98.1177 137.269 98.1177 137.493C98.4057 137.141 98.6777 136.858 98.9337 136.645C99.1897 136.432 99.4404 136.277 99.6857 136.181C99.9417 136.074 100.198 136.021 100.454 136.021C100.827 136.021 101.152 136.128 101.43 136.341C101.707 136.544 101.846 136.88 101.846 137.349C101.846 137.509 101.808 137.68 101.734 137.861C101.659 138.032 101.542 138.176 101.382 138.293C101.222 138.41 101.003 138.469 100.726 138.469C100.512 138.469 100.294 138.405 100.07 138.277C99.8457 138.149 99.7177 137.904 99.6857 137.541C99.4724 137.541 99.2591 137.632 99.0457 137.813C98.8324 137.984 98.6404 138.192 98.4697 138.437C98.3097 138.672 98.1977 138.89 98.1337 139.093V141.701C98.1337 141.85 98.1284 142.064 98.1177 142.341C98.1071 142.608 98.0911 142.864 98.0697 143.109C98.2404 143.088 98.4271 143.077 98.6297 143.077C98.8431 143.066 99.0031 143.061 99.1097 143.061V144.277H94.9177V143.237ZM106.256 144.533C105.542 144.533 104.886 144.373 104.288 144.053C103.691 143.733 103.211 143.269 102.848 142.661C102.496 142.053 102.32 141.317 102.32 140.453C102.32 139.845 102.422 139.274 102.624 138.741C102.827 138.208 103.11 137.738 103.472 137.333C103.846 136.928 104.283 136.608 104.784 136.373C105.296 136.138 105.862 136.021 106.48 136.021C107.163 136.021 107.728 136.128 108.176 136.341C108.635 136.544 108.976 136.816 109.2 137.157C109.435 137.488 109.552 137.84 109.552 138.213C109.552 138.522 109.456 138.8 109.264 139.045C109.083 139.28 108.822 139.402 108.48 139.413C108.075 139.424 107.792 139.312 107.632 139.077C107.472 138.832 107.392 138.597 107.392 138.373C107.392 138.277 107.408 138.165 107.44 138.037C107.472 137.898 107.52 137.776 107.584 137.669C107.51 137.509 107.398 137.392 107.248 137.317C107.099 137.242 106.944 137.194 106.784 137.173C106.635 137.141 106.512 137.13 106.416 137.141C105.904 137.173 105.483 137.429 105.152 137.909C104.822 138.389 104.656 139.082 104.656 139.989C104.656 140.522 104.72 141.024 104.848 141.493C104.987 141.952 105.211 142.33 105.52 142.629C105.83 142.928 106.246 143.088 106.768 143.109C107.216 143.12 107.654 143.013 108.08 142.789C108.507 142.565 108.87 142.261 109.168 141.877L109.904 142.597C109.52 143.13 109.12 143.536 108.704 143.813C108.288 144.09 107.872 144.277 107.456 144.373C107.051 144.48 106.651 144.533 106.256 144.533ZM114.681 144.533C113.913 144.533 113.22 144.368 112.601 144.037C111.983 143.706 111.492 143.237 111.129 142.629C110.777 142.01 110.601 141.285 110.601 140.453C110.601 139.568 110.783 138.794 111.145 138.133C111.519 137.461 112.009 136.944 112.617 136.581C113.236 136.208 113.908 136.021 114.633 136.021C115.401 136.021 116.089 136.186 116.697 136.517C117.305 136.848 117.785 137.322 118.137 137.941C118.489 138.549 118.665 139.28 118.665 140.133C118.665 141.029 118.495 141.808 118.153 142.469C117.812 143.13 117.343 143.642 116.745 144.005C116.148 144.357 115.46 144.533 114.681 144.533ZM114.745 143.397C115.172 143.386 115.492 143.237 115.705 142.949C115.929 142.661 116.084 142.298 116.169 141.861C116.255 141.424 116.297 140.981 116.297 140.533C116.297 140.138 116.265 139.738 116.201 139.333C116.148 138.928 116.057 138.56 115.929 138.229C115.801 137.898 115.625 137.632 115.401 137.429C115.188 137.226 114.921 137.13 114.601 137.141C114.185 137.152 113.855 137.301 113.609 137.589C113.375 137.877 113.204 138.24 113.097 138.677C113.001 139.104 112.953 139.552 112.953 140.021C112.953 140.565 113.012 141.098 113.129 141.621C113.247 142.144 113.433 142.576 113.689 142.917C113.956 143.248 114.308 143.408 114.745 143.397ZM122.912 144.533C122.272 144.533 121.707 144.368 121.216 144.037C120.736 143.706 120.357 143.237 120.08 142.629C119.813 142.021 119.68 141.306 119.68 140.485C119.68 139.621 119.845 138.853 120.176 138.181C120.507 137.509 120.971 136.981 121.568 136.597C122.165 136.213 122.859 136.021 123.648 136.021C123.936 136.021 124.192 136.053 124.416 136.117C124.651 136.17 124.869 136.234 125.072 136.309V135.253C125.072 135.104 125.077 134.89 125.088 134.613C125.099 134.336 125.115 134.08 125.136 133.845C124.965 133.856 124.763 133.866 124.528 133.877C124.293 133.888 124.117 133.893 124 133.893V132.677C124.501 132.677 124.917 132.65 125.248 132.597C125.589 132.544 125.856 132.48 126.048 132.405C126.251 132.33 126.389 132.261 126.464 132.197H127.328V141.701C127.328 141.85 127.323 142.064 127.312 142.341C127.301 142.608 127.285 142.864 127.264 143.109C127.445 143.088 127.637 143.077 127.84 143.077C128.043 143.066 128.197 143.061 128.304 143.061V144.277H125.264C125.253 144.16 125.237 144.037 125.216 143.909C125.205 143.781 125.189 143.658 125.168 143.541C124.816 143.904 124.453 144.16 124.08 144.309C123.707 144.458 123.317 144.533 122.912 144.533ZM123.744 143.077C124.021 143.077 124.277 143.008 124.512 142.869C124.747 142.72 124.933 142.533 125.072 142.309C125.072 142.149 125.072 141.989 125.072 141.829C125.072 141.669 125.072 141.509 125.072 141.349V137.509C124.965 137.424 124.805 137.354 124.592 137.301C124.379 137.237 124.16 137.205 123.936 137.205C123.445 137.216 123.061 137.37 122.784 137.669C122.507 137.968 122.309 138.346 122.192 138.805C122.085 139.264 122.032 139.744 122.032 140.245C122.032 140.693 122.085 141.136 122.192 141.573C122.309 142.01 122.491 142.373 122.736 142.661C122.992 142.938 123.328 143.077 123.744 143.077ZM133.147 144.533C132.369 144.533 131.681 144.362 131.083 144.021C130.486 143.669 130.022 143.178 129.691 142.549C129.361 141.909 129.195 141.157 129.195 140.293C129.195 139.546 129.361 138.848 129.691 138.197C130.022 137.546 130.486 137.024 131.083 136.629C131.691 136.224 132.395 136.021 133.195 136.021C133.643 136.021 134.081 136.085 134.507 136.213C134.934 136.33 135.318 136.538 135.659 136.837C136.011 137.136 136.289 137.541 136.491 138.053C136.705 138.565 136.806 139.205 136.795 139.973L131.547 140.069C131.547 140.645 131.617 141.162 131.755 141.621C131.905 142.08 132.145 142.442 132.475 142.709C132.806 142.976 133.249 143.109 133.803 143.109C134.017 143.109 134.257 143.072 134.523 142.997C134.801 142.922 135.078 142.8 135.355 142.629C135.643 142.448 135.91 142.208 136.155 141.909L136.875 142.581C136.491 143.125 136.081 143.541 135.643 143.829C135.206 144.106 134.769 144.293 134.331 144.389C133.905 144.485 133.51 144.533 133.147 144.533ZM131.643 138.949H134.587C134.577 138.501 134.513 138.149 134.395 137.893C134.289 137.626 134.139 137.434 133.947 137.317C133.755 137.2 133.531 137.141 133.275 137.141C132.806 137.141 132.438 137.312 132.171 137.653C131.905 137.984 131.729 138.416 131.643 138.949ZM88.5545 164.533C88.2345 164.533 87.9251 164.496 87.6265 164.421C87.3385 164.346 87.0718 164.208 86.8265 164.005C86.5918 163.792 86.4051 163.482 86.2665 163.077C86.1278 162.672 86.0585 162.133 86.0585 161.461L86.0905 157.605H85.0025V156.277C85.3331 156.266 85.6531 156.154 85.9625 155.941C86.2718 155.728 86.5331 155.45 86.7465 155.109C86.9705 154.768 87.1198 154.41 87.1945 154.037H88.3785L88.3625 156.277H90.3945V157.509L88.3625 157.557L88.3465 161.493C88.3465 161.738 88.3678 161.984 88.4105 162.229C88.4638 162.464 88.5598 162.661 88.6985 162.821C88.8371 162.97 89.0398 163.045 89.3065 163.045C89.4558 163.045 89.6585 162.992 89.9145 162.885C90.1811 162.778 90.4638 162.512 90.7625 162.085L91.5305 162.805C91.2425 163.232 90.9438 163.562 90.6345 163.797C90.3251 164.032 90.0265 164.202 89.7385 164.309C89.4611 164.416 89.2158 164.48 89.0025 164.501C88.7891 164.522 88.6398 164.533 88.5545 164.533ZM95.9158 164.533C95.1478 164.533 94.4545 164.368 93.8358 164.037C93.2172 163.706 92.7265 163.237 92.3638 162.629C92.0118 162.01 91.8358 161.285 91.8358 160.453C91.8358 159.568 92.0172 158.794 92.3798 158.133C92.7532 157.461 93.2438 156.944 93.8518 156.581C94.4705 156.208 95.1425 156.021 95.8678 156.021C96.6358 156.021 97.3238 156.186 97.9318 156.517C98.5398 156.848 99.0198 157.322 99.3718 157.941C99.7238 158.549 99.8998 159.28 99.8998 160.133C99.8998 161.029 99.7292 161.808 99.3878 162.469C99.0465 163.13 98.5772 163.642 97.9798 164.005C97.3825 164.357 96.6945 164.533 95.9158 164.533ZM95.9798 163.397C96.4065 163.386 96.7265 163.237 96.9398 162.949C97.1638 162.661 97.3185 162.298 97.4038 161.861C97.4892 161.424 97.5318 160.981 97.5318 160.533C97.5318 160.138 97.4998 159.738 97.4358 159.333C97.3825 158.928 97.2918 158.56 97.1638 158.229C97.0358 157.898 96.8598 157.632 96.6358 157.429C96.4225 157.226 96.1558 157.13 95.8358 157.141C95.4198 157.152 95.0892 157.301 94.8438 157.589C94.6092 157.877 94.4385 158.24 94.3318 158.677C94.2358 159.104 94.1878 159.552 94.1878 160.021C94.1878 160.565 94.2465 161.098 94.3638 161.621C94.4812 162.144 94.6678 162.576 94.9238 162.917C95.1905 163.248 95.5425 163.408 95.9798 163.397ZM108.429 164.533C108.109 164.533 107.8 164.496 107.501 164.421C107.213 164.346 106.947 164.208 106.701 164.005C106.467 163.792 106.28 163.482 106.141 163.077C106.003 162.672 105.933 162.133 105.933 161.461L105.965 157.605H104.877V156.277C105.208 156.266 105.528 156.154 105.837 155.941C106.147 155.728 106.408 155.45 106.621 155.109C106.845 154.768 106.995 154.41 107.069 154.037H108.253L108.237 156.277H110.269V157.509L108.237 157.557L108.221 161.493C108.221 161.738 108.243 161.984 108.285 162.229C108.339 162.464 108.435 162.661 108.573 162.821C108.712 162.97 108.915 163.045 109.181 163.045C109.331 163.045 109.533 162.992 109.789 162.885C110.056 162.778 110.339 162.512 110.637 162.085L111.405 162.805C111.117 163.232 110.819 163.562 110.509 163.797C110.2 164.032 109.901 164.202 109.613 164.309C109.336 164.416 109.091 164.48 108.877 164.501C108.664 164.522 108.515 164.533 108.429 164.533ZM116.319 164.277C116.298 164.128 116.282 164.005 116.271 163.909C116.271 163.802 116.266 163.68 116.255 163.541C115.892 163.904 115.508 164.16 115.103 164.309C114.698 164.458 114.287 164.533 113.871 164.533C113.188 164.533 112.655 164.33 112.271 163.925C111.887 163.52 111.695 163.013 111.695 162.405C111.695 161.893 111.823 161.456 112.079 161.093C112.346 160.73 112.692 160.437 113.119 160.213C113.556 159.978 114.036 159.802 114.559 159.685C115.092 159.557 115.626 159.482 116.159 159.461V158.629C116.159 158.352 116.122 158.101 116.047 157.877C115.983 157.653 115.866 157.477 115.695 157.349C115.535 157.221 115.306 157.162 115.007 157.173C114.804 157.184 114.607 157.226 114.415 157.301C114.223 157.376 114.058 157.482 113.919 157.621C114.004 157.717 114.058 157.824 114.079 157.941C114.1 158.048 114.111 158.144 114.111 158.229C114.111 158.442 114.026 158.666 113.855 158.901C113.684 159.125 113.412 159.232 113.039 159.221C112.719 159.21 112.474 159.098 112.303 158.885C112.132 158.672 112.047 158.421 112.047 158.133C112.047 157.706 112.196 157.338 112.495 157.029C112.804 156.709 113.215 156.464 113.727 156.293C114.239 156.112 114.804 156.021 115.423 156.021C116.362 156.021 117.087 156.266 117.599 156.757C118.122 157.237 118.383 158.01 118.383 159.077C118.383 159.44 118.383 159.749 118.383 160.005C118.383 160.261 118.378 160.517 118.367 160.773C118.367 161.029 118.367 161.338 118.367 161.701C118.367 161.85 118.362 162.064 118.351 162.341C118.34 162.608 118.324 162.864 118.303 163.109C118.484 163.088 118.676 163.077 118.879 163.077C119.082 163.066 119.236 163.061 119.343 163.061V164.277H116.319ZM116.143 160.597C115.844 160.629 115.562 160.682 115.295 160.757C115.028 160.832 114.794 160.933 114.591 161.061C114.399 161.189 114.244 161.344 114.127 161.525C114.02 161.706 113.967 161.909 113.967 162.133C113.978 162.432 114.074 162.645 114.255 162.773C114.436 162.901 114.644 162.965 114.879 162.965C115.124 162.965 115.354 162.912 115.567 162.805C115.78 162.698 115.972 162.56 116.143 162.389C116.143 162.282 116.143 162.181 116.143 162.085C116.143 161.978 116.143 161.872 116.143 161.765C116.143 161.573 116.143 161.381 116.143 161.189C116.143 160.986 116.143 160.789 116.143 160.597ZM120.005 164.277V163.237C120.304 163.237 120.517 163.178 120.645 163.061C120.784 162.944 120.869 162.778 120.901 162.565C120.944 162.341 120.965 162.09 120.965 161.813V155.237C120.965 155.045 120.971 154.826 120.981 154.581C120.992 154.325 121.008 154.08 121.029 153.845C120.859 153.856 120.656 153.866 120.421 153.877C120.197 153.877 120.027 153.882 119.909 153.893V152.677C120.4 152.677 120.811 152.65 121.141 152.597C121.483 152.544 121.755 152.48 121.957 152.405C122.16 152.33 122.293 152.261 122.357 152.197H123.237V159.493H124.005L125.157 158.165C125.296 158.016 125.408 157.888 125.493 157.781C125.589 157.674 125.685 157.578 125.781 157.493H124.933V156.277H128.533V157.301C128.16 157.344 127.829 157.434 127.541 157.573C127.253 157.701 127.003 157.856 126.789 158.037C126.587 158.218 126.411 158.394 126.261 158.565L125.237 159.717C125.397 159.792 125.552 159.904 125.701 160.053C125.861 160.192 126.053 160.41 126.277 160.709L127.349 162.117C127.413 162.192 127.493 162.293 127.589 162.421C127.696 162.549 127.813 162.677 127.941 162.805C128.069 162.922 128.208 163.024 128.357 163.109C128.507 163.194 128.661 163.237 128.821 163.237V164.277H126.981C126.64 164.277 126.341 164.16 126.085 163.925C125.829 163.68 125.536 163.333 125.205 162.885C125.013 162.629 124.811 162.357 124.597 162.069C124.395 161.77 124.203 161.493 124.021 161.237C123.851 160.97 123.712 160.762 123.605 160.613L123.237 160.629V161.701C123.237 161.85 123.232 162.064 123.221 162.341C123.211 162.608 123.195 162.864 123.173 163.109C123.344 163.088 123.531 163.077 123.733 163.077C123.936 163.066 124.096 163.061 124.213 163.061V164.277H120.005ZM133.147 164.533C132.369 164.533 131.681 164.362 131.083 164.021C130.486 163.669 130.022 163.178 129.691 162.549C129.361 161.909 129.195 161.157 129.195 160.293C129.195 159.546 129.361 158.848 129.691 158.197C130.022 157.546 130.486 157.024 131.083 156.629C131.691 156.224 132.395 156.021 133.195 156.021C133.643 156.021 134.081 156.085 134.507 156.213C134.934 156.33 135.318 156.538 135.659 156.837C136.011 157.136 136.289 157.541 136.491 158.053C136.705 158.565 136.806 159.205 136.795 159.973L131.547 160.069C131.547 160.645 131.617 161.162 131.755 161.621C131.905 162.08 132.145 162.442 132.475 162.709C132.806 162.976 133.249 163.109 133.803 163.109C134.017 163.109 134.257 163.072 134.523 162.997C134.801 162.922 135.078 162.8 135.355 162.629C135.643 162.448 135.91 162.208 136.155 161.909L136.875 162.581C136.491 163.125 136.081 163.541 135.643 163.829C135.206 164.106 134.769 164.293 134.331 164.389C133.905 164.485 133.51 164.533 133.147 164.533ZM131.643 158.949H134.587C134.577 158.501 134.513 158.149 134.395 157.893C134.289 157.626 134.139 157.434 133.947 157.317C133.755 157.2 133.531 157.141 133.275 157.141C132.806 157.141 132.438 157.312 132.171 157.653C131.905 157.984 131.729 158.416 131.643 158.949ZM75.0388 184.533C74.7188 184.533 74.4095 184.496 74.1108 184.421C73.8228 184.346 73.5562 184.208 73.3108 184.005C73.0762 183.792 72.8895 183.482 72.7508 183.077C72.6122 182.672 72.5428 182.133 72.5428 181.461L72.5748 177.605H71.4868V176.277C71.8175 176.266 72.1375 176.154 72.4468 175.941C72.7562 175.728 73.0175 175.45 73.2308 175.109C73.4548 174.768 73.6042 174.41 73.6788 174.037H74.8628L74.8468 176.277H76.8788V177.509L74.8468 177.557L74.8308 181.493C74.8308 181.738 74.8522 181.984 74.8948 182.229C74.9482 182.464 75.0442 182.661 75.1828 182.821C75.3215 182.97 75.5242 183.045 75.7908 183.045C75.9402 183.045 76.1428 182.992 76.3988 182.885C76.6655 182.778 76.9482 182.512 77.2468 182.085L78.0148 182.805C77.7268 183.232 77.4282 183.562 77.1188 183.797C76.8095 184.032 76.5108 184.202 76.2228 184.309C75.9455 184.416 75.7002 184.48 75.4868 184.501C75.2735 184.522 75.1242 184.533 75.0388 184.533ZM83.2482 183.237C83.5469 183.237 83.7602 183.178 83.8882 183.061C84.0269 182.944 84.1122 182.778 84.1442 182.565C84.1869 182.341 84.2082 182.09 84.2082 181.813L84.1922 179.541C84.1922 178.848 84.0856 178.336 83.8722 178.005C83.6696 177.664 83.3442 177.493 82.8962 177.493C82.6296 177.493 82.3629 177.552 82.0962 177.669C81.8402 177.786 81.6216 177.925 81.4402 178.085V181.701C81.4402 181.85 81.4349 182.064 81.4242 182.341C81.4136 182.608 81.3976 182.864 81.3762 183.109C81.5576 183.088 81.7496 183.077 81.9522 183.077C82.1549 183.066 82.3096 183.061 82.4162 183.061V184.277H78.2242V183.237C78.5229 183.237 78.7362 183.178 78.8642 183.061C79.0029 182.944 79.0882 182.778 79.1202 182.565C79.1522 182.341 79.1682 182.09 79.1682 181.813V175.237C79.1682 175.045 79.1736 174.826 79.1842 174.581C79.1949 174.325 79.2109 174.08 79.2322 173.845C79.0616 173.856 78.8589 173.866 78.6242 173.877C78.4002 173.877 78.2296 173.882 78.1122 173.893V172.677C78.6136 172.677 79.0296 172.65 79.3602 172.597C79.7016 172.544 79.9682 172.48 80.1602 172.405C80.3629 172.33 80.5016 172.261 80.5762 172.197H81.4402V176.917C81.6536 176.746 81.8989 176.597 82.1762 176.469C82.4536 176.33 82.7362 176.224 83.0242 176.149C83.3122 176.064 83.5629 176.021 83.7762 176.021C84.7576 176.021 85.4509 176.304 85.8562 176.869C86.2616 177.424 86.4696 178.32 86.4802 179.557V181.701C86.4802 181.85 86.4749 182.064 86.4642 182.341C86.4536 182.608 86.4376 182.864 86.4162 183.109C86.5869 183.088 86.7736 183.077 86.9762 183.077C87.1789 183.066 87.3389 183.061 87.4562 183.061V184.277H83.2482V183.237ZM92.2097 184.533C91.4311 184.533 90.7431 184.362 90.1457 184.021C89.5484 183.669 89.0844 183.178 88.7537 182.549C88.4231 181.909 88.2577 181.157 88.2577 180.293C88.2577 179.546 88.4231 178.848 88.7537 178.197C89.0844 177.546 89.5484 177.024 90.1457 176.629C90.7537 176.224 91.4577 176.021 92.2577 176.021C92.7057 176.021 93.1431 176.085 93.5697 176.213C93.9964 176.33 94.3804 176.538 94.7217 176.837C95.0737 177.136 95.3511 177.541 95.5537 178.053C95.7671 178.565 95.8684 179.205 95.8577 179.973L90.6097 180.069C90.6097 180.645 90.6791 181.162 90.8177 181.621C90.9671 182.08 91.2071 182.442 91.5377 182.709C91.8684 182.976 92.3111 183.109 92.8657 183.109C93.0791 183.109 93.3191 183.072 93.5857 182.997C93.8631 182.922 94.1404 182.8 94.4177 182.629C94.7057 182.448 94.9724 182.208 95.2177 181.909L95.9377 182.581C95.5537 183.125 95.1431 183.541 94.7057 183.829C94.2684 184.106 93.8311 184.293 93.3937 184.389C92.9671 184.485 92.5724 184.533 92.2097 184.533ZM90.7057 178.949H93.6497C93.6391 178.501 93.5751 178.149 93.4577 177.893C93.3511 177.626 93.2017 177.434 93.0097 177.317C92.8177 177.2 92.5937 177.141 92.3377 177.141C91.8684 177.141 91.5004 177.312 91.2337 177.653C90.9671 177.984 90.7911 178.416 90.7057 178.949ZM101.582 175.237C101.582 175.045 101.582 174.826 101.582 174.581C101.593 174.325 101.609 174.08 101.63 173.845C101.46 173.856 101.257 173.866 101.022 173.877C100.798 173.877 100.628 173.882 100.51 173.893V172.677C101.012 172.677 101.428 172.65 101.758 172.597C102.1 172.544 102.366 172.48 102.558 172.405C102.761 172.33 102.9 172.261 102.974 172.197H103.838V176.885C104.201 176.565 104.569 176.341 104.942 176.213C105.316 176.085 105.668 176.021 105.998 176.021C106.638 176.021 107.198 176.186 107.678 176.517C108.169 176.848 108.548 177.317 108.814 177.925C109.092 178.533 109.23 179.248 109.23 180.069C109.23 180.922 109.07 181.69 108.75 182.373C108.441 183.045 107.998 183.573 107.422 183.957C106.846 184.341 106.153 184.533 105.342 184.533C105.054 184.533 104.686 184.469 104.238 184.341C103.801 184.224 103.396 183.968 103.022 183.573L102.542 184.277H101.582V175.237ZM103.838 181.877C103.838 182.24 103.897 182.528 104.014 182.741C104.132 182.954 104.281 183.109 104.462 183.205C104.644 183.301 104.825 183.354 105.006 183.365C105.486 183.376 105.86 183.237 106.126 182.949C106.404 182.661 106.596 182.282 106.702 181.813C106.82 181.333 106.878 180.832 106.878 180.309C106.878 179.818 106.82 179.354 106.702 178.917C106.585 178.48 106.398 178.128 106.142 177.861C105.886 177.584 105.55 177.45 105.134 177.461C104.868 177.472 104.622 177.541 104.398 177.669C104.174 177.786 103.988 177.946 103.838 178.149V181.877ZM114.322 184.533C113.554 184.533 112.861 184.368 112.242 184.037C111.623 183.706 111.133 183.237 110.77 182.629C110.418 182.01 110.242 181.285 110.242 180.453C110.242 179.568 110.423 178.794 110.786 178.133C111.159 177.461 111.65 176.944 112.258 176.581C112.877 176.208 113.549 176.021 114.274 176.021C115.042 176.021 115.73 176.186 116.338 176.517C116.946 176.848 117.426 177.322 117.778 177.941C118.13 178.549 118.306 179.28 118.306 180.133C118.306 181.029 118.135 181.808 117.794 182.469C117.453 183.13 116.983 183.642 116.386 184.005C115.789 184.357 115.101 184.533 114.322 184.533ZM114.386 183.397C114.813 183.386 115.133 183.237 115.346 182.949C115.57 182.661 115.725 182.298 115.81 181.861C115.895 181.424 115.938 180.981 115.938 180.533C115.938 180.138 115.906 179.738 115.842 179.333C115.789 178.928 115.698 178.56 115.57 178.229C115.442 177.898 115.266 177.632 115.042 177.429C114.829 177.226 114.562 177.13 114.242 177.141C113.826 177.152 113.495 177.301 113.25 177.589C113.015 177.877 112.845 178.24 112.738 178.677C112.642 179.104 112.594 179.552 112.594 180.021C112.594 180.565 112.653 181.098 112.77 181.621C112.887 182.144 113.074 182.576 113.33 182.917C113.597 183.248 113.949 183.408 114.386 183.397ZM123.385 184.533C122.617 184.533 121.923 184.368 121.305 184.037C120.686 183.706 120.195 183.237 119.833 182.629C119.481 182.01 119.305 181.285 119.305 180.453C119.305 179.568 119.486 178.794 119.849 178.133C120.222 177.461 120.713 176.944 121.321 176.581C121.939 176.208 122.611 176.021 123.337 176.021C124.105 176.021 124.793 176.186 125.401 176.517C126.009 176.848 126.489 177.322 126.841 177.941C127.193 178.549 127.369 179.28 127.369 180.133C127.369 181.029 127.198 181.808 126.857 182.469C126.515 183.13 126.046 183.642 125.449 184.005C124.851 184.357 124.163 184.533 123.385 184.533ZM123.449 183.397C123.875 183.386 124.195 183.237 124.409 182.949C124.633 182.661 124.787 182.298 124.873 181.861C124.958 181.424 125.001 180.981 125.001 180.533C125.001 180.138 124.969 179.738 124.905 179.333C124.851 178.928 124.761 178.56 124.633 178.229C124.505 177.898 124.329 177.632 124.105 177.429C123.891 177.226 123.625 177.13 123.305 177.141C122.889 177.152 122.558 177.301 122.313 177.589C122.078 177.877 121.907 178.24 121.801 178.677C121.705 179.104 121.657 179.552 121.657 180.021C121.657 180.565 121.715 181.098 121.833 181.621C121.95 182.144 122.137 182.576 122.393 182.917C122.659 183.248 123.011 183.408 123.449 183.397ZM128.209 184.277V183.237C128.507 183.237 128.721 183.178 128.849 183.061C128.987 182.944 129.073 182.778 129.105 182.565C129.147 182.341 129.169 182.09 129.169 181.813V175.237C129.169 175.045 129.174 174.826 129.185 174.581C129.195 174.325 129.211 174.08 129.233 173.845C129.062 173.856 128.859 173.866 128.625 173.877C128.401 173.877 128.23 173.882 128.113 173.893V172.677C128.603 172.677 129.014 172.65 129.345 172.597C129.686 172.544 129.958 172.48 130.161 172.405C130.363 172.33 130.497 172.261 130.561 172.197H131.441V179.493H132.209L133.361 178.165C133.499 178.016 133.611 177.888 133.697 177.781C133.793 177.674 133.889 177.578 133.985 177.493H133.137V176.277H136.737V177.301C136.363 177.344 136.033 177.434 135.745 177.573C135.457 177.701 135.206 177.856 134.993 178.037C134.79 178.218 134.614 178.394 134.465 178.565L133.441 179.717C133.601 179.792 133.755 179.904 133.905 180.053C134.065 180.192 134.257 180.41 134.481 180.709L135.553 182.117C135.617 182.192 135.697 182.293 135.793 182.421C135.899 182.549 136.017 182.677 136.145 182.805C136.273 182.922 136.411 183.024 136.561 183.109C136.71 183.194 136.865 183.237 137.025 183.237V184.277H135.185C134.843 184.277 134.545 184.16 134.289 183.925C134.033 183.68 133.739 183.333 133.409 182.885C133.217 182.629 133.014 182.357 132.801 182.069C132.598 181.77 132.406 181.493 132.225 181.237C132.054 180.97 131.915 180.762 131.809 180.613L131.441 180.629V181.701C131.441 181.85 131.435 182.064 131.425 182.341C131.414 182.608 131.398 182.864 131.377 183.109C131.547 183.088 131.734 183.077 131.937 183.077C132.139 183.066 132.299 183.061 132.417 183.061V184.277H128.209Z" fill="black"/>
<path d="M225.508 224.922V225.543L225.958 225.604H226.068V239.113H225.958L225.508 239.052V317.732C225.515 319.177 225.298 320.614 224.867 321.993C224.479 323.243 223.858 324.408 223.036 325.426C222.306 326.331 221.368 327.045 220.301 327.508C219.276 327.935 218.154 328.075 217.055 327.914L184.546 323.369C183.382 323.191 182.277 322.741 181.32 322.054C180.242 321.283 179.315 320.32 178.585 319.213C177.783 317.999 177.167 316.671 176.759 315.273C176.343 313.83 176.134 312.335 176.138 310.834V197.332C176.132 195.89 176.349 194.455 176.779 193.079C177.168 191.831 177.788 190.666 178.606 189.646C179.336 188.741 180.274 188.027 181.341 187.564C182.366 187.137 183.488 186.997 184.587 187.158L217.096 191.703C218.267 191.877 219.38 192.328 220.342 193.018C221.42 193.789 222.347 194.752 223.077 195.859C223.882 197.072 224.5 198.401 224.907 199.799C225.33 201.241 225.546 202.736 225.548 204.238L225.508 224.922Z" stroke="#232323" stroke-width="2"/>
<path d="M182.428 186.908C183.02 186.35 183.707 185.905 184.457 185.593C185.482 185.164 186.605 185.023 187.704 185.187L220.168 189.72C221.339 189.895 222.452 190.347 223.414 191.039C224.492 191.809 225.42 192.772 226.149 193.879C226.955 195.092 227.57 196.421 227.975 197.819C228.398 199.261 228.614 200.756 228.616 202.259V223.559L229.067 223.62H229.176V237.149H229.067L228.616 237.089V315.765C228.623 317.21 228.407 318.647 227.975 320.026C227.59 321.276 226.971 322.441 226.149 323.459C225.419 324.364 224.48 325.078 223.414 325.541" stroke="#232323" stroke-width="2"/>
<path d="M223.377 317.395V204.059M223.377 204.059L223.828 204.12M223.377 204.059C223.376 202.96 223.218 201.867 222.906 200.813C222.612 199.785 222.16 198.809 221.567 197.92C221.034 197.106 220.355 196.399 219.563 195.834C218.861 195.33 218.05 194.999 217.197 194.868L213.545 194.361C213.62 194.858 213.639 195.361 213.601 195.862C213.552 196.606 213.35 197.331 213.009 197.993C212.714 198.569 212.264 199.053 211.71 199.389C211.2 199.687 210.604 199.804 210.018 199.721M223.361 317.363C223.367 318.422 223.208 319.476 222.89 320.487C222.609 321.404 222.154 322.258 221.551 323.003C221.018 323.668 220.329 324.192 219.546 324.529C218.799 324.841 217.982 324.945 217.181 324.829L184.53 320.256M184.53 320.256L217.197 324.821M184.53 320.256C183.675 320.123 182.865 319.789 182.164 319.282C181.372 318.716 180.692 318.007 180.159 317.192C179.567 316.304 179.115 315.329 178.82 314.303C178.509 313.249 178.351 312.156 178.35 311.056H178.37V197.725M178.37 311.065V197.721C178.364 196.663 178.523 195.61 178.841 194.6C179.121 193.682 179.576 192.827 180.18 192.08C180.714 191.417 181.402 190.893 182.184 190.554C182.931 190.243 183.749 190.139 184.55 190.254L187.906 190.721M210.022 199.713L191.396 197.108C190.779 197.008 190.202 196.737 189.732 196.325C189.183 195.835 188.742 195.235 188.438 194.564C188.098 193.841 187.89 193.063 187.825 192.267C187.788 191.773 187.808 191.276 187.886 190.786V190.741L184.53 190.238" stroke="#232323" stroke-width="2"/>
<path d="M208.079 233.327L215.829 234.95C217.497 235.295 218.918 237.616 219.003 240.136L219.21 246.393" stroke="#BF505A" stroke-width="2"/>
<path d="M182.063 238.672L181.856 232.414C181.774 229.898 183.073 228.137 184.729 228.486L192.475 230.109" stroke="#BF505A" stroke-width="2"/>
<path d="M193.762 268.931L186.016 267.307C184.344 266.958 182.924 264.637 182.838 262.121L182.631 255.864" stroke="#BF505A" stroke-width="2"/>
<path d="M219.761 263.586L219.968 269.844C220.05 272.364 218.751 274.121 217.095 273.776L209.349 272.153" stroke="#BF505A" stroke-width="2"/>
<path d="M285.416 238.679L296.64 236.463C296.17 236.614 291.803 237.502 285.684 238.724L285.416 238.679Z" fill="#F2F2F2"/>
<path d="M291.616 211.843V213.458L289.579 213.089L291.616 211.843Z" fill="#F2F2F2"/>
<path d="M289.425 213.057L289.579 213.09L289.425 213.183V213.057Z" fill="#F2F2F2"/>
<path d="M289.425 213.057V213.183L287.352 214.441V212.664L289.425 213.057Z" fill="#F2F2F2"/>
<path d="M280.794 211.425V218.409L278.724 219.663V211.036L280.794 211.425Z" fill="#F2F2F2"/>
<path d="M278.724 211.036V219.663L276.533 220.99V210.634L278.724 211.036Z" fill="#F2F2F2"/>
<path d="M271.643 209.705V223.961L269.585 225.211V209.328L271.643 209.705Z" fill="#F2F2F2"/>
<path d="M269.586 209.328V225.211L267.395 226.534V208.91L269.586 209.328Z" fill="#F2F2F2"/>
<path d="M267.394 208.91V226.534L265.203 227.86V208.492L267.394 208.91Z" fill="#F2F2F2"/>
<path d="M189.25 238.898L188.438 239.555C188.683 239.306 188.955 239.085 189.25 238.898V238.898Z" fill="#F2F2F2"/>
<path d="M222.809 38.9851V38.8755L203.226 53.7845" stroke="#222323" stroke-width="2" stroke-linecap="round" stroke-linejoin="round"/>
<path d="M317.644 244.737C327.335 241.231 334.331 236.491 337.212 229.832V63.2843L277.896 50.6437L254.766 45.7051L235.133 41.5091L229.655 40.3404L222.809 38.8755" stroke="#222323" stroke-width="2" stroke-linecap="round" stroke-linejoin="round"/>
<path d="M285.667 238.724L317.644 244.738V218.353V193.286V179.221V116.956V78.1734L291.012 72.4882L254.77 64.7659L248.228 63.378L229.655 59.4255L222.809 57.9565" stroke="#222323" stroke-width="2" stroke-linecap="round" stroke-linejoin="round"/>
<path d="M229.659 228.193L239.617 230.064L256.373 233.229L285.416 238.679" stroke="#222323" stroke-width="2" stroke-linecap="round" stroke-linejoin="round"/>
<path d="M222.809 57.9563L203.226 53.7847V187.362" stroke="#222323" stroke-width="2" stroke-linecap="round" stroke-linejoin="round"/>
<path d="M337.212 63.2847C334.602 67.8337 332.813 71.8064 317.644 78.1734" stroke="#222323" stroke-width="2" stroke-linecap="round" stroke-linejoin="round"/>
<path d="M276.533 209.019V210.634V220.99V230.319" stroke="#222323" stroke-linecap="round" stroke-linejoin="round"/>
<path d="M278.724 209.42V211.035V219.663V230.717" stroke="#222323" stroke-linecap="round" stroke-linejoin="round"/>
<path d="M280.794 209.859V211.425V218.409V231.155" stroke="#222323" stroke-linecap="round" stroke-linejoin="round"/>
<path d="M287.352 210.906V212.663V214.44V232.222" stroke="#222323" stroke-linecap="round" stroke-linejoin="round"/>
<path d="M289.425 211.393V213.057V213.183V232.693" stroke="#222323" stroke-linecap="round" stroke-linejoin="round"/>
<path d="M291.616 211.747V211.844V213.459V233.047" stroke="#222323" stroke-linecap="round" stroke-linejoin="round"/>
<path d="M258.763 205.695V207.294V227.011" stroke="#222323" stroke-linecap="round" stroke-linejoin="round"/>
<path d="M263.012 206.491V208.094V227.791" stroke="#222323" stroke-linecap="round" stroke-linejoin="round"/>
<path d="M265.203 206.892V208.491V227.86V228.192" stroke="#222323" stroke-linecap="round" stroke-linejoin="round"/>
<path d="M267.395 207.375V208.909V226.533V228.688" stroke="#222323" stroke-linecap="round" stroke-linejoin="round"/>
<path d="M269.585 207.773V209.327V225.21V229.073" stroke="#222323" stroke-linecap="round" stroke-linejoin="round"/>
<path d="M271.643 208.074V209.705V223.961V229.39" stroke="#222323" stroke-linecap="round" stroke-linejoin="round"/>
<path d="M215.89 244.474V245.927L214.056 245.594L215.89 244.474Z" fill="#F2F2F2"/>
<path d="M213.918 245.565L214.056 245.593L213.918 245.679V245.565Z" fill="#F2F2F2"/>
<path d="M213.918 245.565V245.679L212.051 246.811V245.216L213.918 245.565Z" fill="#F2F2F2"/>
<path d="M206.147 244.101V250.386L204.28 251.515V243.748L206.147 244.101Z" fill="#F2F2F2"/>
<path d="M204.28 243.747V251.514L202.308 252.711V243.386L204.28 243.747Z" fill="#F2F2F2"/>
<path d="M197.91 242.55V255.382L196.059 256.506V242.209L197.91 242.55Z" fill="#F2F2F2"/>
<path d="M196.059 242.209V256.505L194.083 257.702V241.832L196.059 242.209Z" fill="#F2F2F2"/>
<path d="M194.083 241.832V257.703L192.11 258.892V241.458L194.083 241.832Z" fill="#F2F2F2"/>
<path d="M202.308 241.929V243.386V252.711V261.107" stroke="#222323" stroke-linecap="round" stroke-linejoin="round"/>
<path d="M204.28 242.291V243.747V251.514V261.469" stroke="#222323" stroke-linecap="round" stroke-linejoin="round"/>
<path d="M206.147 242.688V244.1V250.386V261.862" stroke="#222323" stroke-linecap="round" stroke-linejoin="round"/>
<path d="M212.051 243.633V245.216V246.811V262.819" stroke="#222323" stroke-linecap="round" stroke-linejoin="round"/>
<path d="M213.918 244.068V245.565V245.679V263.242" stroke="#222323" stroke-linecap="round" stroke-linejoin="round"/>
<path d="M215.89 244.388V244.473V245.926V263.562" stroke="#222323" stroke-linecap="round" stroke-linejoin="round"/>
<path d="M186.315 238.939V240.38V258.129" stroke="#222323" stroke-linecap="round" stroke-linejoin="round"/>
<path d="M190.138 239.657V241.097V258.831" stroke="#222323" stroke-linecap="round" stroke-linejoin="round"/>
<path d="M192.11 240.018V241.459V258.892V259.192" stroke="#222323" stroke-linecap="round" stroke-linejoin="round"/>
<path d="M194.083 240.453V241.832V257.703V259.639" stroke="#222323" stroke-linecap="round" stroke-linejoin="round"/>
<path d="M196.059 240.813V242.209V256.505V259.987" stroke="#222323" stroke-linecap="round" stroke-linejoin="round"/>
<path d="M197.91 241.082V242.551V255.382V260.272" stroke="#222323" stroke-linecap="round" stroke-linejoin="round"/>
</svg>
