<?xml version="1.0" encoding="utf-8"?>
<!-- Generator: Adobe Illustrator 25.0.1, SVG Export Plug-In . SVG Version: 6.00 Build 0)  -->
<svg version="1.1" id="Layer_1" xmlns="http://www.w3.org/2000/svg" xmlns:xlink="http://www.w3.org/1999/xlink" x="0px" y="0px"
	 viewBox="0 0 376 376" style="enable-background:new 0 0 376 376;" xml:space="preserve">
<style type="text/css">
	.st0{clip-path:url(#SVGID_2_);}
	.st1{fill:#FFFFFF;}
	.st2{fill:none;stroke:#222323;stroke-width:3;stroke-linecap:round;stroke-linejoin:round;}
	.st3{fill:#F2F2F2;stroke:#222323;stroke-width:3;stroke-linecap:round;stroke-linejoin:round;}
	.st4{fill-rule:evenodd;clip-rule:evenodd;fill:#F2F2F2;}
	.st5{fill:#222323;}
	.st6{fill:none;stroke:#232323;stroke-width:3;}
	.st7{fill:#BF505A;stroke:#222323;stroke-width:3;stroke-linecap:round;stroke-linejoin:round;}
	.st8{fill:#FFF500;stroke:#000000;stroke-width:2;stroke-linecap:round;stroke-linejoin:round;}
	.st9{fill:#232323;}
	.st10{fill:#9A3D45;}
	.st11{fill:#BF505A;}
	.st12{fill:#F2F2F2;}
</style>
<g>
	<defs>
		<rect id="SVGID_1_" x="0.9" y="0.5" width="375" height="375"/>
	</defs>
	<clipPath id="SVGID_2_">
		<use xlink:href="#SVGID_1_"  style="overflow:visible;"/>
	</clipPath>
	<g class="st0">
		<path class="st1" d="M124.9,149.1c-2.7,5.4-6.7,7.7-11.8,6.8s-9,1.4-11.8,6.8c-2.7,5.4-6.7,7.7-11.8,6.8c-5.1-0.9-9,1.4-11.8,6.8
			c-2.7,5.4-6.7,7.7-11.8,6.8c-5.1-0.9-9,1.4-11.8,6.8c-2.7,5.4-6.7,7.7-11.8,6.8c-5.1-0.9-9,1.4-11.8,6.8"/>
		<path class="st2" d="M124.9,149.1c-2.7,5.4-6.7,7.7-11.8,6.8s-9,1.4-11.8,6.8c-2.7,5.4-6.7,7.7-11.8,6.8c-5.1-0.9-9,1.4-11.8,6.8
			c-2.7,5.4-6.7,7.7-11.8,6.8c-5.1-0.9-9,1.4-11.8,6.8c-2.7,5.4-6.7,7.7-11.8,6.8c-5.1-0.9-9,1.4-11.8,6.8"/>
		<path class="st1" d="M130.5,158.7c-2.7,5.4-6.7,7.7-11.8,6.8c-5.1-0.9-9,1.4-11.8,6.8c-2.7,5.4-6.7,7.7-11.8,6.8
			c-5.1-0.9-9,1.4-11.8,6.8c-2.7,5.4-6.7,7.7-11.8,6.8c-5.1-0.9-9,1.4-11.8,6.8c-2.7,5.4-6.7,7.7-11.8,6.8c-5.1-0.9-9,1.4-11.8,6.8"
			/>
		<path class="st2" d="M130.5,158.7c-2.7,5.4-6.7,7.7-11.8,6.8c-5.1-0.9-9,1.4-11.8,6.8c-2.7,5.4-6.7,7.7-11.8,6.8
			c-5.1-0.9-9,1.4-11.8,6.8c-2.7,5.4-6.7,7.7-11.8,6.8c-5.1-0.9-9,1.4-11.8,6.8c-2.7,5.4-6.7,7.7-11.8,6.8c-5.1-0.9-9,1.4-11.8,6.8"
			/>
		<path class="st1" d="M136,168.4c-2.7,5.4-6.7,7.7-11.8,6.8c-5.1-0.9-9,1.4-11.8,6.8c-2.7,5.4-6.7,7.7-11.8,6.8s-9,1.4-11.8,6.8
			c-2.7,5.4-6.7,7.7-11.8,6.8c-5.1-0.9-9,1.4-11.8,6.8c-2.7,5.4-6.7,7.7-11.8,6.8c-5.1-0.9-9,1.4-11.8,6.8"/>
		<path class="st2" d="M136,168.4c-2.7,5.4-6.7,7.7-11.8,6.8c-5.1-0.9-9,1.4-11.8,6.8c-2.7,5.4-6.7,7.7-11.8,6.8s-9,1.4-11.8,6.8
			c-2.7,5.4-6.7,7.7-11.8,6.8c-5.1-0.9-9,1.4-11.8,6.8c-2.7,5.4-6.7,7.7-11.8,6.8c-5.1-0.9-9,1.4-11.8,6.8"/>
		<path class="st1" d="M141.6,178c-2.7,5.4-6.7,7.7-11.8,6.8s-9,1.4-11.8,6.8c-2.7,5.4-6.7,7.7-11.8,6.8s-9,1.4-11.8,6.8
			c-2.7,5.4-6.7,7.7-11.8,6.8c-5.1-0.9-9,1.4-11.8,6.8c-2.7,5.4-6.7,7.7-11.8,6.8c-5.1-0.9-9,1.4-11.8,6.8"/>
		<path class="st2" d="M141.6,178c-2.7,5.4-6.7,7.7-11.8,6.8s-9,1.4-11.8,6.8c-2.7,5.4-6.7,7.7-11.8,6.8s-9,1.4-11.8,6.8
			c-2.7,5.4-6.7,7.7-11.8,6.8c-5.1-0.9-9,1.4-11.8,6.8c-2.7,5.4-6.7,7.7-11.8,6.8c-5.1-0.9-9,1.4-11.8,6.8"/>
		<path class="st1" d="M152.6,195.9c-2.7,5.4-6.7,7.7-11.8,6.8s-9,1.4-11.8,6.8c-2.7,5.4-6.7,7.7-11.8,6.8c-5.1-0.9-9,1.4-11.8,6.8
			c-2.7,5.4-6.7,7.7-11.8,6.8c-5.1-0.9-9,1.4-11.8,6.8c-2.7,5.4-6.7,7.7-11.8,6.8c-5.1-0.9-9,1.4-11.8,6.8"/>
		<path class="st2" d="M152.6,195.9c-2.7,5.4-6.7,7.7-11.8,6.8s-9,1.4-11.8,6.8c-2.7,5.4-6.7,7.7-11.8,6.8c-5.1-0.9-9,1.4-11.8,6.8
			c-2.7,5.4-6.7,7.7-11.8,6.8c-5.1-0.9-9,1.4-11.8,6.8c-2.7,5.4-6.7,7.7-11.8,6.8c-5.1-0.9-9,1.4-11.8,6.8"/>
		<path class="st1" d="M146.7,186.8c-2.5,5.7-6.5,8-11.8,6.8c-5.3-1.2-9.2,1.1-11.8,6.8c-2.5,5.7-6.5,8-11.8,6.8
			c-5.3-1.2-9.2,1.1-11.8,6.8c-2.5,5.7-6.5,8-11.8,6.8c-5.3-1.2-9.2,1.1-11.8,6.8c-2.5,5.7-6.5,8-11.8,6.8
			c-5.3-1.2-9.2,1.1-11.8,6.8"/>
		<path class="st2" d="M146.7,186.8c-2.5,5.7-6.5,8-11.8,6.8c-5.3-1.2-9.2,1.1-11.8,6.8c-2.5,5.7-6.5,8-11.8,6.8
			c-5.3-1.2-9.2,1.1-11.8,6.8c-2.5,5.7-6.5,8-11.8,6.8c-5.3-1.2-9.2,1.1-11.8,6.8c-2.5,5.7-6.5,8-11.8,6.8
			c-5.3-1.2-9.2,1.1-11.8,6.8"/>
		<path class="st3" d="M108.6,256.2l-32.1,18.6c-1.9,1.1-2.6,3.6-1.5,5.5l28.8,49.8c1.1,1.9,3.6,2.6,5.5,1.5l32.1-18.6
			c1.9-1.1,2.6-3.6,1.5-5.5l-28.8-49.8C113,255.8,110.6,255.1,108.6,256.2z"/>
		<path class="st3" d="M155.2,229.4l-31.1,17.9c-1.9,1.1-2.6,3.6-1.5,5.5l28.8,49.8c1.1,1.9,3.6,2.6,5.5,1.5l31.1-17.9
			c1.9-1.1,2.6-3.6,1.5-5.5l-28.8-49.8C159.6,228.9,157.1,228.3,155.2,229.4z"/>
		<path class="st4" d="M183.7,212.5l-12.9,7.5c-1.9,1.1-2.6,3.6-1.5,5.5l28.7,49.7c1.1,1.9,3.6,2.6,5.5,1.5l12.9-7.5L183.7,212.5z"
			/>
		<path class="st5" d="M183.7,212.5l1.3-0.8c-0.4-0.7-1.3-1-2-0.5L183.7,212.5z M203.5,276.6l0.8,1.3L203.5,276.6z M216.4,269.1
			l0.8,1.3c0.7-0.4,1-1.3,0.5-2L216.4,269.1z M183,211.2l-12.9,7.5l1.5,2.6l12.9-7.5L183,211.2z M170.1,218.6
			c-2.6,1.5-3.5,4.9-2,7.5l2.6-1.5c-0.7-1.2-0.3-2.7,0.9-3.4L170.1,218.6z M168,226.2l28.7,49.7l2.6-1.5l-28.7-49.7L168,226.2z
			 M196.7,275.9c1.5,2.6,4.9,3.5,7.5,2l-1.5-2.6c-1.2,0.7-2.7,0.3-3.4-0.9L196.7,275.9z M204.2,277.9l12.9-7.5l-1.5-2.6l-12.9,7.5
			L204.2,277.9z M217.7,268.4L185,211.7l-2.6,1.5l32.7,56.6L217.7,268.4z"/>
		<path class="st6" d="M112.4,74.4l0.8,1.3l1.3-0.8l0.3-0.2l16.6,28.8l-0.3,0.2l-1.3,0.8l0.8,1.3l96.2,166.6c1.8,3.2,3,6.7,3.5,10.3
			c0.5,3.6,0.2,7.4-0.7,10.9c-1,3.6-2.6,6.9-4.8,9.8c-2.2,2.9-5,5.4-8.2,7.2l-93.6,54c-3.2,1.8-6.7,3-10.4,3.5
			c-3.6,0.5-7.4,0.2-10.9-0.7c-3.6-1-6.9-2.6-9.8-4.8c-2.9-2.2-5.4-5-7.2-8.2L-55.2,112.3c-1.8-3.2-3-6.7-3.5-10.3
			c-0.5-3.6-0.2-7.4,0.7-10.9c1-3.6,2.6-6.9,4.8-9.8c2.2-2.9,5-5.4,8.2-7.2l93.6-54c3.2-1.8,6.7-3,10.4-3.5
			c3.6-0.5,7.4-0.2,10.9,0.7c3.6,1,6.9,2.6,9.8,4.8c2.9,2.2,5.4,5,7.2,8.2L112.4,74.4z"/>
		<path class="st6" d="M221.2,275.4L221.2,275.4l-0.7-1.2 M220.7,274.7l0.6,0.7 M220.7,274.7 M40.1,50.4l0.3,0.4 M220.6,274.3
			L81.6,33.6l1.3-0.8l-1.3,0.7c-1.3-2.3-3.1-4.4-5.3-6c-2.1-1.6-4.6-2.8-7.2-3.5s-5.3-0.9-8-0.5c-2.7,0.4-5.3,1.2-7.6,2.6l0,0
			l-10.5,6c0.8,0.9,1.5,2,2,3.1c0.8,1.8,1.2,3.8,1,5.7c-0.1,2-0.7,3.9-1.8,5.5c-1,1.7-2.5,3-4.2,4 M221.2,275.4
			c1.4,2.3,2.2,4.9,2.6,7.6c0.4,2.7,0.2,5.4-0.5,8c-0.7,2.6-1.9,5-3.5,7.2c-1.6,2.1-3.7,3.9-6,5.3l0,0 M213.9,302.6l-0.2,0.9
			 M213.7,303.5l-94,54.3h0 M213.7,303.5l-94,54.3 M119.7,357.8c-2.3,1.4-4.9,2.2-7.6,2.6c-2.7,0.4-5.4,0.2-8-0.5
			c-2.6-0.7-5-1.9-7.2-3.5c-2.1-1.6-3.9-3.7-5.3-6l0,0 M91.6,350.3L-48,108.4l0,0 M91.6,350.3L-48,108.4 M-48,108.4
			c-1.4-2.3-2.2-4.9-2.6-7.6c-0.4-2.7-0.2-5.4,0.5-8c0.7-2.6,1.9-5,3.5-7.2c1.6-2.1,3.7-3.9,6-5.3l0,0 M-48,108.4l7.5-28.1
			 M-40.5,80.3l9.7-5.6 M-40.5,80.3l9.7-5.6 M-29.5,74.3l-1.3,0.5c0.4,1.2,0.9,2.3,1.7,3.3c1.1,1.6,2.7,2.9,4.4,3.7
			c1.8,0.9,3.7,1.3,5.7,1.2c2-0.1,3.9-0.6,5.6-1.6c0,0,0,0,0,0l53.6-31 M40.1,50.4l-0.2,0.1"/>
		<path class="st7" d="M14.7,93.5l-32.1,18.6c-1.9,1.1-2.6,3.6-1.5,5.5l28.8,49.8c1.1,1.9,3.6,2.6,5.5,1.5l32.1-18.6
			c1.9-1.1,2.6-3.6,1.5-5.5L20.2,95C19.1,93.1,16.6,92.4,14.7,93.5z"/>
		<path class="st8" d="M26,186.1l3.4,0.2l-2.5-2.8l1-3.4l-3,1.4l-2.9-2.3l0.6,3.6l-2.7,1.9l3.4,0.9l1.2,3.6L26,186.1z"/>
		<path class="st8" d="M37.5,179.5l3.6,0.2l-2.5-2.8l1.1-3.5l-3.2,1.5l-2.9-2.3l0.5,3.7l-2.9,2.1l3.6,0.8l1.1,3.6L37.5,179.5z"/>
		<path class="st8" d="M49,172.8l3.5,0.2l-2.5-2.8l1-3.4l-3,1.4l-2.9-2.3l0.6,3.6l-2.7,1.9l3.4,0.9l1.2,3.5L49,172.8z"/>
		<path class="st8" d="M60.5,166.2l3.6,0.1l-2.5-2.8l1.1-3.5l-3.2,1.5l-2.9-2.3l0.5,3.7l-2.9,2.1l3.6,0.8l1.1,3.6L60.5,166.2z"/>
		<path class="st8" d="M72.1,159.5l3.5,0.2L73,157l1-3.4l-3.1,1.4l-2.9-2.3l0.6,3.6l-2.7,1.9l3.4,0.9l1.2,3.6L72.1,159.5z"/>
		<path d="M39.4,89c-0.4-0.5-0.8-0.8-1.2-1c-0.4-0.2-0.8-0.3-1.3-0.3c-0.4,0-0.9,0.1-1.3,0.4c-0.4,0.2-0.7,0.5-0.9,0.9
			c-0.2,0.4-0.2,0.8,0.1,1.1c0.2,0.3,0.4,0.5,0.7,0.6c0.3,0.1,0.7,0.2,1.1,0.2s1-0.1,1.6-0.1c0.4-0.1,0.9-0.1,1.4-0.1
			c0.5,0,0.9,0,1.4,0.1c0.5,0.1,0.9,0.2,1.3,0.4c0.4,0.2,0.7,0.6,1,1c0.3,0.5,0.4,1.1,0.4,1.7c-0.1,0.6-0.3,1.2-0.7,1.7
			c-0.4,0.5-0.9,1-1.7,1.4c-0.4,0.2-0.8,0.4-1.3,0.5c-0.5,0.1-1,0.2-1.5,0.2l0.4,0.6l-1.1,0.6l-1.9-3.2l0.9-0.5
			c0.6,0.7,1.2,1.1,1.9,1.2c0.7,0.1,1.4,0,2-0.4c0.3-0.2,0.6-0.4,0.8-0.7c0.2-0.3,0.3-0.5,0.3-0.8c0-0.3,0-0.5-0.2-0.8
			c-0.2-0.3-0.5-0.5-0.8-0.6C40.5,93,40.1,93,39.7,93c-0.4,0-0.8,0.1-1.3,0.2c-0.6,0.1-1.1,0.1-1.6,0.1c-0.5,0-1,0-1.4-0.1
			c-0.4-0.1-0.8-0.3-1.2-0.5c-0.4-0.3-0.7-0.6-0.9-1.1c-0.2-0.3-0.3-0.6-0.3-1c-0.1-0.4-0.1-0.8,0-1.2c0.1-0.4,0.3-0.8,0.6-1.2
			c0.3-0.4,0.8-0.8,1.4-1.1c0.4-0.2,0.8-0.4,1.3-0.5c0.5-0.1,1-0.2,1.4-0.2l-0.4-0.5l1.1-0.6l1.9,3.2L39.4,89z M49.1,92.4
			c-0.7,0.4-1.4,0.6-2,0.6c-0.7,0-1.3-0.2-1.9-0.6c-0.6-0.4-1.1-1-1.6-1.7c-0.4-0.6-0.6-1.3-0.6-2.1c0-0.7,0.1-1.4,0.4-2.1
			c0.3-0.7,0.8-1.2,1.5-1.6c0.4-0.2,0.8-0.4,1.2-0.5c0.4-0.1,0.9-0.1,1.3,0c0.5,0.1,0.9,0.3,1.3,0.6c0.4,0.3,0.8,0.8,1.2,1.5
			l-4.5,2.7c0.3,0.5,0.6,0.9,1,1.2c0.4,0.3,0.7,0.5,1.2,0.6c0.4,0.1,0.9,0,1.4-0.3c0.2-0.1,0.4-0.3,0.6-0.5c0.2-0.2,0.4-0.4,0.5-0.7
			c0.2-0.3,0.3-0.6,0.3-1l1,0.2c-0.1,0.7-0.2,1.2-0.4,1.7c-0.2,0.5-0.5,0.8-0.9,1.1C49.8,92,49.5,92.2,49.1,92.4z M45,88.3l2.5-1.5
			c-0.2-0.4-0.5-0.7-0.7-0.8c-0.2-0.2-0.5-0.3-0.7-0.3c-0.2,0-0.4,0.1-0.7,0.2c-0.4,0.2-0.6,0.6-0.7,1C44.8,87.4,44.9,87.8,45,88.3z
			 M57,87.6c-0.1-0.1-0.2-0.2-0.2-0.3c-0.1-0.1-0.1-0.2-0.2-0.3c-0.1,0.5-0.3,0.9-0.6,1.2c-0.3,0.3-0.6,0.6-1,0.8
			c-0.6,0.3-1.2,0.4-1.7,0.3c-0.5-0.2-1-0.5-1.3-1c-0.3-0.4-0.4-0.9-0.3-1.3c0-0.4,0.2-0.9,0.5-1.3c0.3-0.4,0.6-0.8,1-1.2
			c0.4-0.4,0.8-0.7,1.3-1l-0.4-0.7c-0.1-0.2-0.3-0.4-0.5-0.6c-0.2-0.2-0.4-0.3-0.6-0.3c-0.2,0-0.4,0-0.7,0.2
			c-0.2,0.1-0.3,0.2-0.4,0.4c-0.1,0.2-0.2,0.3-0.3,0.5c0.1,0,0.2,0.1,0.3,0.2c0.1,0.1,0.1,0.2,0.2,0.2c0.1,0.2,0.1,0.4,0.1,0.7
			c0,0.3-0.2,0.5-0.5,0.7c-0.3,0.2-0.6,0.2-0.8,0.1c-0.3-0.1-0.5-0.3-0.6-0.5C50,84,50,83.6,50.1,83.2c0.1-0.4,0.3-0.8,0.7-1.3
			c0.4-0.4,0.8-0.8,1.3-1.1c0.8-0.5,1.6-0.6,2.3-0.5c0.7,0.2,1.3,0.7,1.8,1.6c0.2,0.3,0.3,0.6,0.5,0.8c0.1,0.2,0.3,0.4,0.4,0.7
			c0.1,0.2,0.3,0.5,0.5,0.8c0.1,0.1,0.2,0.3,0.3,0.6c0.1,0.2,0.2,0.5,0.3,0.7c0.1-0.1,0.3-0.2,0.5-0.3c0.2-0.1,0.3-0.2,0.4-0.2
			l0.6,1.1L57,87.6z M55,84.5c-0.2,0.2-0.5,0.4-0.7,0.6c-0.2,0.2-0.3,0.4-0.5,0.6c-0.1,0.2-0.2,0.4-0.2,0.6c0,0.2,0.1,0.4,0.2,0.6
			c0.2,0.3,0.3,0.4,0.6,0.4c0.2,0,0.4,0,0.6-0.1c0.2-0.1,0.4-0.3,0.5-0.5c0.1-0.2,0.2-0.4,0.3-0.6c-0.1-0.1-0.1-0.2-0.2-0.3
			c-0.1-0.1-0.1-0.2-0.2-0.3c-0.1-0.2-0.2-0.3-0.3-0.5C55.2,84.8,55.1,84.6,55,84.5z M59.9,84.7c0.3-0.1,0.4-0.3,0.5-0.5
			c0.1-0.2,0-0.3,0-0.5c-0.1-0.2-0.2-0.4-0.3-0.7l-1.3-2.3c-0.1-0.2-0.2-0.4-0.3-0.6c-0.1-0.2-0.2-0.4-0.3-0.6
			c-0.1,0.1-0.3,0.2-0.5,0.3c-0.2,0.1-0.3,0.2-0.4,0.3L56.5,79l0.6-0.3c0.4-0.2,0.7-0.4,0.9-0.7c0.3-0.3,0.4-0.5,0.4-0.6l0.7-0.4
			c0.1,0.1,0.2,0.2,0.3,0.5c0.2,0.2,0.3,0.5,0.4,0.7c0.1-0.4,0.2-0.8,0.3-1.1c0.1-0.3,0.3-0.6,0.4-0.8c0.2-0.2,0.4-0.4,0.6-0.5
			c0.3-0.2,0.7-0.3,1-0.2c0.3,0,0.6,0.3,0.9,0.7c0.1,0.1,0.1,0.3,0.2,0.5c0,0.2,0,0.4-0.1,0.6c-0.1,0.2-0.2,0.3-0.5,0.5
			c-0.2,0.1-0.4,0.2-0.7,0.2c-0.3,0-0.5-0.1-0.7-0.4c-0.2,0.1-0.3,0.3-0.4,0.6c-0.1,0.3-0.2,0.5-0.2,0.8c0,0.3,0,0.5,0,0.7l1.3,2.3
			c0.1,0.1,0.2,0.3,0.3,0.6c0.1,0.2,0.2,0.5,0.3,0.7c0.1-0.1,0.3-0.2,0.5-0.3c0.2-0.1,0.3-0.2,0.4-0.3l0.6,1.1l-3.6,2.1L59.9,84.7z
			 M70.4,80.1c-0.6,0.4-1.3,0.5-1.9,0.6c-0.7,0-1.3-0.1-1.9-0.5c-0.6-0.4-1.1-0.9-1.6-1.6c-0.3-0.5-0.5-1.1-0.6-1.6
			c-0.1-0.6-0.1-1.1,0-1.6c0.1-0.5,0.3-1,0.7-1.5c0.3-0.5,0.8-0.8,1.3-1.2c0.6-0.3,1.1-0.5,1.6-0.6c0.5-0.1,0.9,0,1.3,0.2
			c0.4,0.2,0.6,0.4,0.8,0.7c0.2,0.3,0.2,0.6,0.2,0.9c0,0.3-0.2,0.5-0.5,0.7c-0.3,0.2-0.6,0.3-0.9,0.1c-0.3-0.1-0.4-0.3-0.6-0.5
			c0-0.1-0.1-0.2-0.1-0.3c0-0.1-0.1-0.3-0.1-0.4c-0.1-0.1-0.3-0.1-0.5-0.1c-0.2,0-0.3,0-0.5,0.1c-0.1,0-0.3,0.1-0.3,0.2
			c-0.4,0.3-0.7,0.7-0.7,1.3c0,0.6,0.2,1.3,0.6,2c0.3,0.5,0.6,0.9,0.9,1.2c0.3,0.3,0.7,0.5,1.2,0.6c0.4,0.1,0.9,0,1.3-0.2
			c0.4-0.2,0.7-0.5,1-0.9c0.3-0.4,0.4-0.9,0.5-1.3l1,0.3c-0.1,0.7-0.2,1.2-0.4,1.7c-0.2,0.4-0.5,0.8-0.8,1.1
			C71.1,79.7,70.7,80,70.4,80.1z M77.8,74.4c0.3-0.1,0.4-0.3,0.5-0.5c0.1-0.2,0.1-0.4,0-0.6c-0.1-0.2-0.2-0.4-0.3-0.7l-1.1-2
			c-0.3-0.6-0.7-1-1-1.2c-0.3-0.2-0.7-0.2-1.1,0c-0.2,0.1-0.4,0.3-0.6,0.6c-0.2,0.2-0.3,0.5-0.4,0.7l1.8,3.1
			c0.1,0.1,0.2,0.3,0.3,0.6c0.1,0.2,0.2,0.5,0.3,0.7c0.1-0.1,0.3-0.2,0.5-0.3c0.2-0.1,0.3-0.2,0.4-0.2l0.6,1.1l-3.6,2.1l-0.5-0.9
			c0.3-0.1,0.4-0.3,0.5-0.5c0.1-0.2,0.1-0.4,0-0.6c-0.1-0.2-0.2-0.4-0.3-0.7l-3.3-5.7c-0.1-0.2-0.2-0.4-0.3-0.6
			c-0.1-0.2-0.2-0.4-0.3-0.7c-0.1,0.1-0.3,0.2-0.5,0.3c-0.2,0.1-0.3,0.2-0.4,0.3l-0.6-1.1c0.4-0.3,0.8-0.5,1-0.7
			c0.3-0.2,0.5-0.4,0.6-0.6c0.1-0.2,0.2-0.3,0.3-0.4l0.7-0.4l2.4,4.1c0.1-0.3,0.2-0.5,0.4-0.8c0.2-0.3,0.4-0.5,0.6-0.7
			c0.2-0.2,0.4-0.4,0.6-0.5c0.8-0.5,1.6-0.6,2.2-0.3c0.6,0.3,1.3,0.9,1.9,2l1.1,1.9c0.1,0.1,0.2,0.3,0.3,0.6
			c0.1,0.2,0.2,0.5,0.3,0.7c0.1-0.1,0.3-0.2,0.5-0.3c0.2-0.1,0.3-0.2,0.4-0.3l0.6,1.1l-3.6,2.1L77.8,74.4z M44.1,108.4
			c-0.6-1.1-0.9-2.1-0.6-2.8c0.2-0.8,0.7-1.4,1.6-1.9c0.4-0.2,0.8-0.4,1.2-0.4c0.3,0,0.6,0,0.8,0.1c0.2,0.1,0.4,0.3,0.5,0.5
			c0.1,0.2,0.2,0.5,0.1,0.8c0,0.3-0.2,0.5-0.5,0.7c-0.3,0.2-0.5,0.2-0.7,0.2c-0.2-0.1-0.4-0.2-0.6-0.5c0,0-0.1-0.1-0.1-0.1
			c0-0.1,0-0.1-0.1-0.2c-0.1,0-0.1,0-0.2,0c-0.1,0-0.1,0-0.2,0.1c-0.1,0.1-0.2,0.2-0.3,0.3c0,0.1,0,0.3,0,0.4c0,0.1,0.1,0.3,0.2,0.4
			l1,1.7l1.6-0.9l0.6,1.1l-1.5,0.9l2.1,3.6c0.1,0.1,0.2,0.3,0.3,0.6c0.1,0.2,0.2,0.5,0.4,0.7c0.1-0.1,0.3-0.2,0.5-0.3
			c0.2-0.1,0.3-0.2,0.4-0.3l0.6,1.1l-3.7,2.1l-0.5-0.9c0.3-0.1,0.4-0.3,0.5-0.5c0.1-0.2,0.1-0.4,0-0.6c-0.1-0.2-0.2-0.4-0.3-0.7
			l-2.1-3.7l-1,0.6l-0.7-1.2l1-0.6L44.1,108.4z M56,111.6c-0.7,0.4-1.3,0.6-2,0.6s-1.4-0.1-2-0.5c-0.6-0.4-1.1-0.9-1.5-1.6
			c-0.4-0.8-0.7-1.5-0.7-2.3c0-0.8,0.2-1.5,0.5-2.1c0.3-0.6,0.8-1.1,1.5-1.5c0.7-0.4,1.3-0.6,2-0.6c0.7,0,1.3,0.2,2,0.5
			c0.6,0.4,1.1,0.9,1.6,1.6c0.4,0.8,0.7,1.5,0.7,2.3c0,0.7-0.1,1.4-0.5,2C57.2,110.7,56.7,111.2,56,111.6z M55.5,110.5
			c0.4-0.2,0.6-0.5,0.6-0.9c0-0.4,0-0.8-0.1-1.2c-0.1-0.4-0.3-0.8-0.6-1.2c-0.2-0.3-0.4-0.7-0.7-1c-0.2-0.3-0.5-0.6-0.8-0.8
			c-0.3-0.2-0.6-0.4-0.9-0.4c-0.3-0.1-0.6,0-0.8,0.2c-0.4,0.2-0.6,0.5-0.6,0.9c-0.1,0.4,0,0.8,0.1,1.2c0.1,0.4,0.3,0.8,0.5,1.2
			c0.3,0.5,0.6,0.9,1,1.3c0.4,0.4,0.7,0.7,1.1,0.8C54.7,110.8,55.1,110.8,55.5,110.5z M59.8,107.9c0.3-0.1,0.4-0.3,0.5-0.5
			c0.1-0.2,0-0.3,0-0.5c-0.1-0.2-0.2-0.4-0.3-0.7l-1.3-2.3c-0.1-0.2-0.2-0.4-0.3-0.6c-0.1-0.2-0.2-0.4-0.3-0.6
			c-0.1,0.1-0.3,0.2-0.5,0.3c-0.2,0.1-0.3,0.2-0.4,0.3l-0.6-1.1l0.6-0.3c0.4-0.2,0.7-0.4,0.9-0.7c0.3-0.3,0.4-0.5,0.4-0.6l0.7-0.4
			c0.1,0.1,0.2,0.2,0.3,0.5c0.2,0.2,0.3,0.5,0.4,0.7c0.1-0.4,0.2-0.8,0.3-1.1c0.1-0.3,0.3-0.6,0.4-0.8c0.2-0.2,0.4-0.4,0.6-0.5
			c0.3-0.2,0.7-0.3,1-0.2c0.3,0,0.6,0.3,0.9,0.7c0.1,0.1,0.1,0.3,0.2,0.5c0,0.2,0,0.4-0.1,0.5c-0.1,0.2-0.2,0.3-0.5,0.5
			c-0.2,0.1-0.4,0.2-0.7,0.2c-0.3,0-0.5-0.1-0.7-0.4c-0.2,0.1-0.3,0.3-0.4,0.6c-0.1,0.3-0.2,0.5-0.2,0.8c0,0.3,0,0.5,0,0.7l1.3,2.3
			c0.1,0.1,0.2,0.3,0.3,0.6c0.1,0.2,0.2,0.5,0.3,0.7c0.1-0.1,0.3-0.2,0.5-0.3c0.2-0.1,0.3-0.2,0.4-0.3l0.6,1.1l-3.6,2.1L59.8,107.9z
			 M74.5,100.6c-0.1-0.1-0.2-0.2-0.2-0.3c-0.1-0.1-0.1-0.2-0.2-0.3c-0.1,0.5-0.3,0.9-0.6,1.2c-0.3,0.3-0.6,0.6-1,0.8
			c-0.6,0.3-1.2,0.4-1.7,0.3c-0.5-0.2-1-0.5-1.3-1c-0.3-0.4-0.4-0.9-0.3-1.3c0-0.4,0.2-0.9,0.5-1.3c0.3-0.4,0.6-0.8,1-1.2
			c0.4-0.4,0.8-0.7,1.3-1l-0.4-0.7c-0.1-0.2-0.3-0.4-0.5-0.6c-0.2-0.2-0.4-0.3-0.6-0.3c-0.2,0-0.4,0-0.7,0.2
			c-0.2,0.1-0.3,0.2-0.4,0.4c-0.1,0.2-0.2,0.3-0.3,0.5c0.1,0,0.2,0.1,0.3,0.2c0.1,0.1,0.1,0.2,0.2,0.2c0.1,0.2,0.1,0.4,0.1,0.7
			c0,0.3-0.2,0.5-0.5,0.7c-0.3,0.2-0.6,0.2-0.8,0.1c-0.3-0.1-0.5-0.3-0.6-0.5c-0.2-0.4-0.3-0.8-0.2-1.2c0.1-0.4,0.3-0.8,0.7-1.3
			c0.4-0.4,0.8-0.8,1.3-1.1c0.8-0.5,1.6-0.6,2.3-0.5c0.7,0.2,1.3,0.7,1.8,1.6c0.2,0.3,0.3,0.6,0.5,0.8c0.1,0.2,0.3,0.4,0.4,0.7
			c0.1,0.2,0.3,0.5,0.5,0.8c0.1,0.1,0.2,0.3,0.3,0.6c0.1,0.2,0.2,0.5,0.3,0.7c0.1-0.1,0.3-0.2,0.5-0.3c0.2-0.1,0.3-0.2,0.4-0.2
			l0.6,1.1L74.5,100.6z M72.5,97.5c-0.2,0.2-0.5,0.4-0.7,0.6c-0.2,0.2-0.3,0.4-0.5,0.6c-0.1,0.2-0.2,0.4-0.2,0.6
			c0,0.2,0.1,0.4,0.2,0.6c0.2,0.3,0.3,0.4,0.6,0.4c0.2,0,0.4,0,0.6-0.1c0.2-0.1,0.4-0.3,0.5-0.5c0.1-0.2,0.2-0.4,0.3-0.6
			c-0.1-0.1-0.1-0.2-0.2-0.3c-0.1-0.1-0.1-0.2-0.2-0.3c-0.1-0.2-0.2-0.3-0.3-0.5C72.7,97.8,72.6,97.7,72.5,97.5z M53.2,125.5
			c-0.1-0.2-0.2-0.4-0.3-0.6c-0.1-0.2-0.2-0.4-0.3-0.7c-0.1,0.1-0.3,0.2-0.5,0.3c-0.2,0.1-0.3,0.2-0.4,0.3l-0.6-1.1
			c0.4-0.3,0.8-0.5,1-0.7c0.3-0.2,0.5-0.4,0.6-0.6c0.1-0.2,0.2-0.3,0.3-0.4l0.7-0.4l2.3,4.1c0.2-0.5,0.4-0.8,0.6-1.1
			c0.3-0.3,0.5-0.5,0.8-0.7c0.6-0.3,1.1-0.5,1.7-0.4c0.6,0,1.2,0.3,1.7,0.7c0.5,0.4,1,0.9,1.4,1.6c0.4,0.7,0.7,1.5,0.7,2.2
			c0.1,0.7-0.1,1.4-0.4,2c-0.3,0.6-0.8,1.1-1.5,1.5c-0.2,0.1-0.6,0.3-1.1,0.4c-0.4,0.1-0.9,0.1-1.4-0.1l-0.1,0.8l-0.8,0.5
			L53.2,125.5z M58.5,130.1c0.2,0.3,0.4,0.5,0.6,0.7c0.2,0.1,0.4,0.2,0.6,0.2c0.2,0,0.4-0.1,0.6-0.1c0.4-0.2,0.7-0.5,0.8-0.9
			c0.1-0.4,0.1-0.8-0.1-1.3c-0.1-0.5-0.3-0.9-0.6-1.4c-0.2-0.4-0.5-0.8-0.8-1.1c-0.3-0.3-0.7-0.5-1-0.6c-0.4-0.1-0.7-0.1-1.1,0.2
			c-0.2,0.1-0.4,0.3-0.5,0.5c-0.1,0.2-0.2,0.4-0.2,0.7L58.5,130.1z M68.9,127.2c-0.7,0.4-1.3,0.6-2,0.6c-0.7,0-1.4-0.1-2-0.5
			c-0.6-0.4-1.1-0.9-1.5-1.6c-0.4-0.8-0.7-1.5-0.7-2.3c0-0.8,0.2-1.5,0.5-2.1c0.3-0.6,0.8-1.1,1.5-1.5c0.7-0.4,1.3-0.6,2-0.6
			c0.7,0,1.3,0.2,2,0.5c0.6,0.4,1.1,0.9,1.6,1.6c0.4,0.8,0.7,1.5,0.7,2.3c0,0.7-0.1,1.4-0.5,2C70.1,126.3,69.6,126.8,68.9,127.2z
			 M68.4,126.2c0.4-0.2,0.6-0.5,0.6-0.9c0-0.4,0-0.8-0.1-1.2c-0.1-0.4-0.3-0.8-0.6-1.2c-0.2-0.3-0.4-0.7-0.7-1
			c-0.2-0.3-0.5-0.6-0.8-0.8c-0.3-0.2-0.6-0.4-0.9-0.4c-0.3-0.1-0.6,0-0.8,0.2c-0.4,0.2-0.6,0.5-0.6,0.9c-0.1,0.4,0,0.8,0.1,1.2
			c0.1,0.4,0.3,0.8,0.5,1.2c0.3,0.5,0.6,0.9,1,1.3c0.4,0.4,0.7,0.7,1.1,0.8C67.6,126.4,68,126.4,68.4,126.2z M76.8,122.7
			c-0.7,0.4-1.3,0.6-2,0.6c-0.7,0-1.4-0.1-2-0.5c-0.6-0.4-1.1-0.9-1.5-1.6c-0.4-0.8-0.7-1.5-0.7-2.3c0-0.8,0.2-1.5,0.5-2.1
			c0.3-0.6,0.8-1.1,1.5-1.5c0.7-0.4,1.3-0.6,2-0.6c0.7,0,1.3,0.2,2,0.5c0.6,0.4,1.1,0.9,1.6,1.6c0.4,0.8,0.7,1.5,0.7,2.3
			c0,0.7-0.1,1.4-0.5,2C77.9,121.8,77.4,122.3,76.8,122.7z M76.2,121.6c0.4-0.2,0.6-0.5,0.6-0.9c0.1-0.4,0-0.8-0.1-1.2
			c-0.1-0.4-0.3-0.8-0.6-1.2c-0.2-0.3-0.4-0.7-0.7-1c-0.2-0.3-0.5-0.6-0.8-0.8c-0.3-0.2-0.6-0.4-0.9-0.4c-0.3-0.1-0.6,0-0.8,0.2
			c-0.4,0.2-0.6,0.5-0.6,0.9c-0.1,0.4,0,0.8,0.1,1.2c0.1,0.4,0.3,0.8,0.5,1.2c0.3,0.5,0.6,0.9,1,1.3c0.4,0.4,0.7,0.7,1.1,0.8
			C75.5,121.9,75.9,121.9,76.2,121.6z M80.8,120l-0.5-0.9c0.3-0.1,0.4-0.3,0.5-0.5c0.1-0.2,0.1-0.4,0-0.6c-0.1-0.2-0.2-0.4-0.3-0.7
			l-3.3-5.7c-0.1-0.2-0.2-0.4-0.3-0.6c-0.1-0.2-0.2-0.4-0.3-0.7c-0.1,0.1-0.3,0.2-0.5,0.3c-0.2,0.1-0.3,0.2-0.4,0.3l-0.6-1.1
			c0.4-0.2,0.8-0.5,1-0.7c0.3-0.2,0.5-0.4,0.6-0.6c0.1-0.2,0.2-0.3,0.2-0.4l0.8-0.4l3.6,6.3l0.7-0.4l0.3-1.7c0-0.2,0.1-0.4,0.1-0.5
			c0-0.1,0.1-0.3,0.1-0.4l-0.7,0.4l-0.6-1.1l3.1-1.8l0.5,0.9c-0.3,0.2-0.5,0.5-0.7,0.7c-0.2,0.3-0.3,0.5-0.4,0.8
			c-0.1,0.3-0.1,0.5-0.2,0.7l-0.3,1.5c0.2,0,0.4,0,0.6,0.1c0.2,0,0.5,0.1,0.8,0.3l1.6,0.7c0.1,0,0.2,0.1,0.4,0.1
			c0.2,0.1,0.3,0.1,0.5,0.2c0.2,0,0.3,0.1,0.5,0.1c0.2,0,0.3,0,0.5-0.1l0.5,0.9l-1.6,0.9c-0.3,0.2-0.6,0.2-1,0.1
			c-0.3-0.1-0.8-0.2-1.3-0.5c-0.3-0.1-0.6-0.3-0.9-0.4c-0.3-0.2-0.6-0.3-0.9-0.4c-0.3-0.1-0.5-0.3-0.7-0.3l-0.3,0.2l0.5,0.9
			c0.1,0.1,0.2,0.3,0.3,0.6c0.1,0.2,0.2,0.5,0.3,0.7c0.1-0.1,0.3-0.2,0.5-0.3c0.2-0.1,0.3-0.2,0.4-0.3l0.6,1.1L80.8,120z"/>
		<path class="st6" d="M320.6,63.5l0.8,1.3l1.3-0.8l0.2-0.1l16,27.5l-0.2,0.1l-1.3,0.8l0.8,1.3L431,252.9c1.8,3,2.9,6.4,3.4,9.9
			c0.5,3.5,0.3,7-0.6,10.4c-0.9,3.4-2.5,6.6-4.6,9.4c-2.1,2.8-4.8,5.1-7.8,6.9l-89.4,52.1c-3,1.8-6.4,2.9-9.9,3.4
			c-3.5,0.5-7,0.3-10.4-0.6s-6.6-2.5-9.4-4.6c-2.8-2.1-5.2-4.8-6.9-7.8l-135-231.6c-1.8-3-2.9-6.4-3.4-9.9c-0.5-3.5-0.3-7,0.6-10.4
			c0.9-3.4,2.5-6.6,4.6-9.4c2.1-2.8,4.8-5.2,7.8-6.9l89.4-52.1c3-1.8,6.4-2.9,9.9-3.4c3.5-0.5,7-0.3,10.4,0.6
			c3.4,0.9,6.6,2.5,9.4,4.6c2.8,2.1,5.1,4.8,6.9,7.8L320.6,63.5z"/>
		<path class="st6" d="M387.7,208.7 M387.7,208.7l38.5,47.4l0,0L290.8,23.8l1.3-0.8l-1.3,0.8c-1.3-2.2-3-4.2-5.1-5.8
			c-2.1-1.6-4.4-2.7-6.9-3.4c-2.5-0.7-5.1-0.8-7.7-0.5c-2.6,0.3-5,1.2-7.3,2.5l0,0l-10,5.8c0.8,0.9,1.4,1.9,1.9,2.9
			c0.8,1.7,1.1,3.6,1,5.5c-0.1,1.9-0.7,3.7-1.7,5.3c-1,1.6-2.4,3-4,3.9l0.3,0.3 M426.2,256.2c1.3,2.2,2.2,4.7,2.5,7.3
			c0.4,2.6,0.2,5.2-0.5,7.7c-0.7,2.5-1.8,4.8-3.4,6.9c-1.6,2.1-3.5,3.8-5.8,5.1h0 M426.2,256.2l-7.1,26.9 M419.8,284.4
			c2.4-1.4,4.5-3.3,6.2-5.5c1.7-2.2,2.9-4.7,3.6-7.4s0.9-5.5,0.5-8.3c-0.4-2.8-1.3-5.4-2.7-7.8L419.8,284.4z M419.1,283.1L329,335.6
			h0 M419.1,283.1L329,335.6 M329,335.6c-2.2,1.3-4.7,2.2-7.3,2.5c-2.6,0.3-5.2,0.2-7.7-0.5c-2.5-0.7-4.8-1.8-6.9-3.4
			c-2.1-1.6-3.8-3.5-5.1-5.8l0,0 M302.1,328.5L166.7,96.1v0 M302.1,328.5L166.7,96.1 M166.7,96.1c-1.3-2.2-2.2-4.7-2.5-7.3
			c-0.4-2.6-0.2-5.2,0.5-7.7c0.7-2.5,1.8-4.8,3.4-6.9c1.6-2.1,3.5-3.8,5.8-5.1l0,0 M173.8,69.2l9.2-5.4 M173.8,69.2l9.2-5.4
			 M183.6,63.6 M183.6,63.6l-0.6,0.2c0.4,1.1,0.9,2.2,1.6,3.1c1.1,1.5,2.6,2.8,4.3,3.6c1.7,0.8,3.6,1.2,5.5,1.2
			c1.9-0.1,3.7-0.6,5.4-1.6c0,0,0,0,0,0l51.4-29.9l-0.4,0.1"/>
		<path class="st9" d="M178.6,64.7l156.7,269l-5.1,3c-1.3,0.8-2.7,1.4-4.2,2L169.7,70.3c1.2-1,2.4-1.9,3.8-2.6L178.6,64.7z"/>
		<path class="st9" d="M226.9,53l-7.4,4.3L369,314l7.4-4.3L226.9,53z"/>
		<path class="st9" d="M269.7,13.1l155.4,266.7c-1.5,1.9-3.3,3.4-5.3,4.6l-1.5,0.8l-156.7-269l1.5-0.8
			C265.1,14.2,267.4,13.4,269.7,13.1L269.7,13.1z"/>
		<path class="st9" d="M307.8,50l-126.7,73.8l4.3,7.4l126.7-73.8L307.8,50z"/>
		<path class="st9" d="M359.5,138.8l-126.7,73.8l4.8,8.2l126.7-73.8L359.5,138.8z"/>
		<path class="st9" d="M381.3,185.6L318,222.6l4.8,8.2l63.3-36.9L381.3,185.6z"/>
		<path class="st9" d="M327.4,83.7L258.3,124l4.3,7.4l69.1-40.3L327.4,83.7z"/>
		<path class="st10" d="M336.3,170c4.3-2.5,5.5-8.6,2.5-13.6c-2.9-5-8.8-7-13.1-4.5c-4.3,2.5-5.5,8.6-2.5,13.6
			C326.2,170.5,332,172.5,336.3,170z"/>
		<path class="st9" d="M248.4,93.8l-0.6,1.1l-3.2,5.6l-23.1,40.5l-5.2,9.2l-9.9,17.3l-5.3-9.2l9.9-17.3l5.2-9.2l15.8-27.7l7.3-12.8
			l1.2-2L248.4,93.8z"/>
		<path class="st9" d="M410.3,226l-126.7,73.8l4.8,8.2l126.7-73.8L410.3,226z"/>
		<path class="st11" d="M330.9,104.9c7.7,13.2,0.6,56.8,0.6,56.8s-41.4-15.3-49.1-28.5c-3.7-6.4-4.7-13.9-2.8-21.1
			c1.9-7.1,6.6-13.3,13.1-17c6.4-3.8,14.1-4.8,21.2-3C321.1,94,327.2,98.6,330.9,104.9L330.9,104.9z"/>
		
			<ellipse transform="matrix(0.864 -0.5034 0.5034 0.864 -17.148 170.1891)" class="st12" cx="306.5" cy="116.8" rx="11.9" ry="12.4"/>
	</g>
</g>
</svg>
